<?xml version="1.0" encoding="utf-8"?>
<!-- Generator: Adobe Illustrator 23.1.1, SVG Export Plug-In . SVG Version: 6.00 Build 0)  -->
<svg version="1.1" id="Layer_1" xmlns="http://www.w3.org/2000/svg" xmlns:xlink="http://www.w3.org/1999/xlink" x="0px" y="0px"
	 viewBox="0 0 600 400" style="enable-background:new 0 0 600 400;" xml:space="preserve">
<style type="text/css">
	.st0{fill:#FFDEE7;}
	.st1{fill:#401722;}
	.st2{fill:#FFF599;}
	.st3{fill:none;stroke:#000000;stroke-width:4.84;stroke-miterlimit:10;}
	.st4{fill:#BFAD00;}
	.st5{fill:#FFE600;}
	.st6{fill:none;stroke:#000000;stroke-width:4.36;stroke-miterlimit:10;}
	.st7{fill:#FFFFFF;stroke:#000000;stroke-width:0.24;stroke-miterlimit:10;}
	.st8{font-family:'MaisonNeue-Bold';}
	.st9{font-size:15.01px;}
	.st10{fill:#DCDCDC;}
	.st11{fill:#C5C5C5;}
	.st12{fill:#807300;}
	.st13{fill:none;stroke:#FFFFFF;stroke-width:0.24;stroke-miterlimit:10;}
	.st14{fill:#FFF599;stroke:#000000;stroke-width:0.24;stroke-miterlimit:10;}
	.st15{fill:#FF5A87;stroke:#000000;stroke-width:0.24;stroke-miterlimit:10;}
	.st16{fill:none;stroke:#000000;stroke-width:0.24;stroke-miterlimit:10;}
	.st17{fill:#999999;}
	.st18{fill:#BF4465;}
	.st19{fill:#F0F0F0;}
	.st20{fill:#C6C6C6;}
	.st21{fill:none;stroke:#010B0C;stroke-width:0.24;stroke-miterlimit:10;}
	.st22{fill:#802D44;}
	.st23{fill:#FFFFFF;}
	.st24{fill:#FF5A87;}
	.st25{fill:#FFE600;stroke:#000000;stroke-width:0.24;stroke-miterlimit:10;}
</style>
<title>illo_CAPEX_thumbnail</title>
<g id="Layer_1-2">
	<rect class="st0" width="600" height="400"/>
	<polygon class="st1" points="68.8,239.1 112.5,213.7 173.8,249.1 130.1,274.5 	"/>
	<polygon class="st2" points="77.6,174.6 121.1,149.4 182.1,184.6 138.6,209.9 	"/>
	<path d="M121.1,149.5l60.8,35.1l-43.2,25.1l-60.8-35.1L121.1,149.5 M121.1,149.2l-43.7,25.4l61.3,35.4l43.7-25.4L121.1,149.2z"/>
	<polygon class="st2" points="77.6,174.6 121.1,149.4 182.1,184.6 138.6,209.9 	"/>
	<path d="M121.1,149.5l60.8,35.1l-43.2,25.1l-60.8-35.1L121.1,149.5 M121.1,149.2l-43.7,25.4l61.3,35.4l43.7-25.4L121.1,149.2z"/>
	<path class="st3" d="M210,153.8c-10.3-1.7-33.7-13.5-42.7-5.8c-10.4,8.9,12,26.9,17.7,31.3c16.7,13.1,40,33,39.4,56.4
		c-0.5,19.1-14.8,32.3-33.9,32.2c-4.1-0.1-8.2-1-11.9-2.9"/>
	<g>
		<polygon points="78.2,175.5 121.3,150.5 121.1,218.8 78,243.8 		"/>
		<polygon points="78,243.8 121.1,218.8 181.6,253.7 138.5,278.8 		"/>
		<polygon class="st2" points="77.6,174.6 121.1,149.4 182.1,184.6 138.6,209.9 		"/>
		<path d="M121.1,149.5l60.8,35.1l-43.2,25.1l-60.8-35.1L121.1,149.5 M121.1,149.2l-43.7,25.4l61.3,35.4l43.7-25.4L121.1,149.2z"/>
		<polygon class="st4" points="139,209.8 181.9,184.8 181.7,254.7 138.8,279.6 		"/>
		<path d="M181.8,185l-0.2,69.6l-42.7,24.8l0.2-69.6L181.8,185 M182,184.6l-43.2,25.1l-0.2,70.1l43.2-25.1L182,184.6L182,184.6z"/>
		<path d="M77.6,174.5l61.8,35.7l-0.2,69.7l-61.8-35.7L77.6,174.5z M138.5,278.8l0.2-68.3l-60.5-34.9L78,243.8L138.5,278.8"/>
		<polygon class="st5" points="138.7,210.5 138.5,278.8 78,243.8 78.2,175.5 		"/>
	</g>
	<path class="st1" d="M105.8,163.6v9.6h-2.6v-9.6C104.1,163.4,105,163.4,105.8,163.6z"/>
	<path class="st6" d="M178.6,265.1c-5.8-2.9-10.5-7.4-13.7-13c-6.4-11.4-2.9-22.1-2.9-34.1"/>
	<polygon class="st7" points="95,216.4 82.9,209.4 82.9,191 95,198 	"/>
	<polygon class="st7" points="113.9,227.3 101.7,220.3 101.7,201.8 113.9,208.8 	"/>
	<polygon class="st7" points="130.6,237 118.5,230 118.5,211.5 130.6,218.5 	"/>
	<text transform="matrix(0.65 0.37 0 1 85.5007 207.165)" class="st8 st9">2</text>
	<text transform="matrix(0.65 0.37 0 1 104.3902 218.0751)" class="st8 st9">7</text>
	<text transform="matrix(0.65 0.37 0 1 121.3106 227.8455)" class="st8 st9">5</text>
	<polygon points="99.5,219 97.8,218 97.8,216.1 99.5,217.1 	"/>
	<g>
		<polygon points="71.6,214.3 78.5,210.4 78.4,216.3 71.6,220.3 		"/>
		<polygon points="71.6,220.3 78.4,216.3 139.1,251.3 132.2,255.3 		"/>
		<polygon class="st10" points="71.6,214.3 78.5,210.4 139.1,245.4 132.3,249.3 		"/>
		<polygon class="st11" points="132.3,249.3 139.1,245.4 139.1,251.3 132.2,255.3 		"/>
		<path d="M71.3,213.7l61.3,35.4v6.7l-61.3-35.4L71.3,213.7z M132.2,255.3v-5.9l-60.6-35v5.9L132.2,255.3"/>
		<polygon class="st5" points="132.3,249.3 132.2,255.3 71.6,220.3 71.6,214.3 		"/>
		<polygon class="st4" points="132.7,249.2 139.3,245.4 139.3,251.8 132.7,255.6 		"/>
		<path d="M139.2,245.6v6.2l-6.3,3.7v-6.2L139.2,245.6 M139.4,245.2l-6.8,4v6.7l6.8-4L139.4,245.2L139.4,245.2z"/>
		<polygon class="st2" points="71.5,213.7 78.1,209.9 139.2,245.2 132.6,249 		"/>
		<path d="M78.1,210l60.9,35.1l-6.4,3.7l-60.9-35.1L78.1,210 M78.1,209.8l-6.8,4l61.3,35.4l6.8-4L78.1,209.8L78.1,209.8z"/>
	</g>
	<g>
		<polygon class="st7" points="175.1,208.2 175.1,236.1 156.3,247 156.2,219.1 		"/>
		<polygon class="st12" points="149.1,242.6 149,215 156.1,219.2 156.2,246.7 		"/>
		<path d="M149.1,215.2l6.9,4l0.1,27.3l-6.9-4L149.1,215.2 M148.8,214.8l0.1,27.9l7.4,4.3l-0.1-27.9L148.8,214.8z"/>
		<polygon class="st4" points="149.1,214.8 167.7,204.1 174.8,208.2 156.2,219 		"/>
		<path d="M167.7,204.2l6.9,4l-18.4,10.6l-6.9-4L167.7,204.2 M167.7,203.9l-18.9,10.9l7.4,4.3l18.9-10.9L167.7,203.9z"/>
	</g>
	<path class="st13" d="M187.9,185c7.6,7.9,16,13.4,21.9,23c3.9,6.3,8.9,15,8.8,22.6"/>
	<g>
		<path class="st4" d="M111.4,172.8c-0.4-0.9-1.1-1.6-1.9-2c-3.2-1.6-7-1.6-10.3,0c-0.8,0.4-1.5,1.1-1.9,1.9v-1.3
			c0.1-1.2,0.9-2.3,2-2.8c3.1-1.6,6.9-1.6,10,0c1.2,0.5,1.9,1.6,2.1,2.9L111.4,172.8z"/>
		<path d="M104.3,167.6L104.3,167.6c1.7,0,3.5,0.4,5,1.2c1.1,0.5,1.9,1.5,2,2.7v0.8c-0.5-0.7-1.1-1.2-1.8-1.6
			c-1.6-0.8-3.4-1.3-5.2-1.2c-1.8,0-3.6,0.4-5.2,1.2c-0.7,0.4-1.3,0.9-1.7,1.6v-0.8c0.1-1.2,0.9-2.2,2-2.7
			C101,168,102.7,167.6,104.3,167.6 M104.4,167.4c-1.8,0-3.5,0.4-5.1,1.2c-1.2,0.5-2,1.6-2.1,2.9v2.4c0.1-1.3,0.8-2.4,2-3
			c1.5-0.8,3.3-1.2,5-1.2c1.8,0,3.5,0.4,5.1,1.2c1.2,0.5,2,1.7,2.1,3v-2.4c-0.1-1.3-0.9-2.5-2.1-3c-1.6-0.8-3.3-1.3-5.1-1.2
			L104.4,167.4z"/>
		<path class="st4" d="M104.4,180.3c-2.7,0.1-5.5-0.6-7.9-1.9c-2.1-1.2-3.2-2.8-3.2-4.5v-1c0.6,1.5,1.7,2.6,3.1,3.4
			c5,2.6,11,2.6,16,0c1.4-0.7,2.5-1.9,3.1-3.3v1c0,1.7-1.1,3.3-3.2,4.4C109.8,179.7,107.1,180.3,104.4,180.3z"/>
		<path d="M93.4,173.5c0.7,1.2,1.7,2.2,3,2.9c5.1,2.6,11,2.6,16.1,0c1.2-0.6,2.2-1.6,2.9-2.8v0.4c0,1.6-1.1,3.2-3.1,4.4
			c-4.9,2.5-10.7,2.5-15.6,0c-2.1-1.2-3.2-2.8-3.2-4.4L93.4,173.5 M93.2,171.5v2.4c0,1.7,1.1,3.3,3.3,4.6c5,2.5,10.9,2.5,15.8,0
			c2.2-1.3,3.2-2.9,3.3-4.6v-2.4c0,1.6-1.1,3.3-3.2,4.6c-5,2.5-10.9,2.5-15.8,0C94.3,174.8,93.2,173.1,93.2,171.5L93.2,171.5z"/>
	</g>
	<path class="st14" d="M112.2,166.9c4.4,2.5,4.4,6.6,0.1,9.2s-11.5,2.5-15.8,0s-4.4-6.6,0-9.2S107.8,164.4,112.2,166.9z M99.3,174.5
		c3.2,1.6,7,1.6,10.1,0c2.8-1.6,2.8-4.2,0-5.9c-3.2-1.6-6.9-1.6-10.1,0C96.5,170.2,96.5,172.8,99.3,174.5"/>
	<rect x="103.2" y="133" class="st1" width="2.6" height="40.2"/>
	<circle class="st15" cx="104.5" cy="133" r="5.1"/>
	<ellipse class="st1" cx="104.5" cy="173.3" rx="1.3" ry="0.8"/>
	<path class="st16" d="M94.5,134c0-0.3-0.1-0.7-0.1-1c0-5.5,4.5-10,10-10c5.5,0,10,4.5,10,10l0,0"/>
	<path class="st16" d="M82,135.3c-0.1-0.8-0.1-1.5-0.1-2.3c-0.3-12.5,9.6-22.8,22.1-23.1c12.5-0.3,22.8,9.6,23.1,22.1
		c0,0.3,0,0.6,0,1"/>
	<path class="st16" d="M89.7,134.5c0-0.5-0.1-1-0.1-1.5c0.2-8.2,7-14.7,15.3-14.5c7.9,0.2,14.3,6.6,14.5,14.5"/>
	<path class="st16" d="M94.5,134c0-0.3-0.1-0.7-0.1-1c0-5.5,4.5-10,10-10c5.5,0,10,4.5,10,10l0,0"/>
	<path class="st1" d="M399.6,332L190.5,211.2c-2.2-1.3-1.9-3.5,0.6-5l76.2-44c2.5-1.5,6.4-1.6,8.6-0.4L485,282.7
		c2.2,1.3,1.9,3.5-0.6,4.9l-76.2,44C405.7,333.1,401.8,333.3,399.6,332z"/>
	<polyline class="st1" points="288.7,91.7 288.7,107.6 315.2,110 320.3,109.4 	"/>
	<g>
		<path class="st17" d="M515.2,225.3c7.2-4.2,13.2-0.8,13.2,7.5s-5.9,18.5-13.1,22.7l-80.9,46.7c-7.2,4.2-13.2,0.8-13.2-7.5
			s5.9-18.5,13.1-22.7L515.2,225.3z"/>
		<path class="st15" d="M524.3,224.3l-0.2-0.1l-0.4-0.2c-0.1-0.1-0.3-0.1-0.4-0.1l-0.3-0.1l-0.2-0.1l-0.3-0.1l-0.5-0.1h-0.5H521
			h-0.5H520l-0.5,0.1l-0.5,0.1c-0.2,0-0.5,0.1-0.7,0.2l-0.5,0.2c-0.6,0.2-1.2,0.5-1.7,0.8c-0.3,0.1-0.5,0.3-0.8,0.4L434.2,272l0,0
			c-7.2,4.2-13.1,14.4-13.1,22.7c0,4.1,1.5,7,3.8,8.4L198,171c-2.4-1.4-3.8-4.3-3.9-8.4c0-8.3,5.9-18.5,13.1-22.7l0,0l19-11
			l54.6-31.5c5-0.8,10.2-0.7,15.2,0.4c11.1,2.1,22.4,7.2,29.5,10.8c0,0,2.2,1.3,25.9,15.1l1,0.6h0.1l8.2,4.7l0.1,0.1l57.7,33.5l0,0
			l25.4,14.8l1,0.6l0.1,0.1l0.6,0.4l0.2,0.1L524.3,224.3L524.3,224.3z"/>
		<path class="st18" d="M421.9,294.7c0,4.1,1.5,7,3.8,8.4L198.7,171c-2.4-1.4-3.8-4.3-3.9-8.4c0-7.6,4.9-16.7,11.2-21.4l227.8,131.5
			C427.1,277.2,421.8,286.8,421.9,294.7z"/>
		<path class="st15" d="M515.2,225.3c7.2-4.2,13.2-0.8,13.2,7.5s-5.9,18.5-13.1,22.7l-80.9,46.7c-7.2,4.2-13.2,0.8-13.2-7.5
			s5.9-18.5,13.1-22.7L515.2,225.3z"/>
	</g>
	<path class="st19" d="M445.4,179.1l-0.1-0.1l0,0l0,0l-0.6-0.3L418,163.2l0,0l-57.7-33.5l-0.1-0.1l-8.5-4.9l1-0.2l0.4-0.1
		c4.9-0.4,9.9-0.1,14.7,0.8h0.2c13.7,2.4,35,10.1,58.7,33l0.1,0.1c6.2,6,12,12.4,17.3,19.2l1,0.6l0.1,0.1l0.2,0.8v0L445.4,179.1z"/>
	<path class="st19" d="M445.2,179l-4.7,2.7L358,229.4l-7.2-27.6l62.3-36l0,0l4.7-2.7l0.7-0.4l7.9-4.6l0.1,0.1
		c6.2,6,12,12.5,17.4,19.3l1,0.6L445.2,179L445.2,179z"/>
	<path class="st20" d="M426.5,158.1l-7.9,4.6l-0.7,0.4l-4.7,2.7l-62.3,36l-58-33.5l0,0h-0.1l62.5-36.1l4.7-2.7l0.7-0.4l6.9-4h0.2
		C381.5,127.6,402.9,135.2,426.5,158.1z"/>
	<polygon class="st1" points="292.9,168.3 264.2,174.9 358.2,229.8 350.9,201.8 	"/>
	<path class="st1" d="M367.9,125.1l-7,4l-0.7,0.4l-4.7,2.7l-62.5,36l0,0l-28.7,6.6l87.4-50.3l1-0.2l0.4-0.1
		c4.9-0.4,9.9-0.1,14.7,0.8L367.9,125.1z"/>
	<path class="st21" d="M254.2,203.8c-4.9-6.8,0.7-21.9,9.9-28.3"/>
	<path class="st20" d="M351.5,123.7l1,0.6h-0.1L351.5,123.7z"/>
	<path class="st20" d="M307.2,176.5c4.2,2.2,8,4.4,11.5,6.7L307.2,176.5z"/>
	<path class="st20" d="M350.9,201.8l5.9,23.1c-5.6-16.9-22.5-31.8-37.6-41.4l-0.5-0.3l31.8,18.4L350.9,201.8z"/>
	<path class="st20" d="M357.7,228.6c0-0.1-1-3.9-0.9-3.7C357.2,226.1,357.5,227.3,357.7,228.6z"/>
	<g>
		<path class="st1" d="M296.3,85.8c0.6,0.4,1.2,0.8,1.7,1.2l37.5,31.6l-46.8-27v-1.5C288.7,85.3,292.2,83.5,296.3,85.8z"/>
		<path class="st15" d="M338.9,116.7l-37.5-31.6c-0.5-0.5-1.1-0.9-1.7-1.2c-2.1-1.2-4-1.3-5.4-0.5l-3.4,2c1.4-0.8,3.3-0.7,5.4,0.5
			c0.6,0.4,1.2,0.8,1.7,1.2l37.5,31.6"/>
	</g>
	<polygon class="st15" points="501.8,240.2 501.8,255.2 453.3,283.2 453.3,268.2 498.9,241.9 	"/>
	<polygon class="st22" points="453.4,268.2 498.8,242.1 498.8,253.4 453.4,279.6 	"/>
	<path d="M498.6,242.3v11l-45.1,26v-11L498.6,242.3 M498.9,241.9l-45.5,26.3v11.6l45.5-26.3V241.9L498.9,241.9z"/>
	<path class="st15" d="M426.5,158.1l-7.9,4.6l-0.7,0.4l-4.7,2.7l0,0l-62.6,35.8l0,0l-5.8,3.3c-5.7-6.6-13.9-14-25.5-21.4l0,0
		l-26.3-15.2l0,0h-0.1l62.5-36.1l4.7-2.7l0.7-0.4l6.9-4h0.2C381.5,127.6,402.9,135.2,426.5,158.1z"/>
	<path class="st23" d="M360,187.9l-6.6,3.8c-17.6-15.4-33.7-22.9-46-26.5l7.8-4.5C328,165.6,343.4,173.8,360,187.9z"/>
	<path class="st24" d="M205.2,135.6c0,0,42.5,28.2,39.3,28.2s-5.6,6.5-5.6,6.5l-40.2-20.8v-12.7"/>
	<path class="st21" d="M357,233.1c-5,5-8.6,12.7-8.6,19.2c0,3.5,1.1,6.1,2.8,7.7c-3.3-0.9-5.4-4.1-5.4-9.1c0-7.8,5.1-17.2,11.7-21.8
		L357,233.1z"/>
	<path class="st21" d="M351.2,259.9L351.2,259.9"/>
	<path class="st1" d="M357.4,229.1l2.6,1.4c-1.1,0.8-2.1,1.7-3.1,2.6L357.4,229.1"/>
	<path class="st21" d="M304.1,202.5c-5,5-8.6,12.7-8.6,19.2c0,3.5,1.1,6.1,2.8,7.7c-3.3-0.9-5.4-4.1-5.5-9.1
		c0-7.8,5.1-17.2,11.7-21.8L304.1,202.5z"/>
	<path class="st21" d="M298.3,229.4L298.3,229.4"/>
	<path class="st1" d="M304.5,198.5l2.6,1.4c-1.1,0.8-2.1,1.7-3.1,2.6L304.5,198.5"/>
	<line class="st21" x1="433.1" y1="272.7" x2="244.5" y2="163.3"/>
	<path class="st23" d="M431.1,287.4c-1,0-1.8-0.6-2.1-1.5c-0.2-0.5-0.3-1-0.3-1.6c0.2-3.1,1.8-6,4.4-7.7c0.5-0.3,1-0.5,1.5-0.6h0.5
		c1.5,0,2.4,1.2,2.4,3.1c-0.2,3.1-1.8,6-4.4,7.7C432.5,287.1,431.8,287.3,431.1,287.4z"/>
	<path d="M435.1,276.1L435.1,276.1c1.4,0,2.2,1.1,2.2,3c-0.2,3.1-1.8,5.9-4.4,7.6c-0.6,0.4-1.2,0.6-1.9,0.6c-0.9,0-1.7-0.6-2-1.4
		c-0.2-0.5-0.3-1-0.2-1.5c0.2-3.1,1.8-5.9,4.4-7.6c0.4-0.3,0.9-0.5,1.5-0.5L435.1,276.1 M435.1,276h-0.5c-0.5,0.1-1.1,0.3-1.5,0.6
		c-2.6,1.7-4.3,4.6-4.5,7.8c0,0.5,0.1,1.1,0.3,1.6c0.3,1,1.2,1.6,2.2,1.6c0.7,0,1.4-0.2,2-0.6c2.7-1.7,4.3-4.6,4.5-7.8
		C437.6,277.1,436.6,275.9,435.1,276L435.1,276z"/>
	<path class="st25" d="M434.9,277.5c-0.2,3.2-1.8,6.1-4.5,7.8c-0.5,0.3-1,0.5-1.5,0.6c-0.2-0.5-0.3-1.1-0.3-1.6
		c0.2-3.2,1.8-6,4.5-7.8c0.5-0.3,1-0.5,1.5-0.6C434.8,276.4,434.9,277,434.9,277.5z"/>
	<path class="st23" d="M431.1,299.9c-1,0-1.8-0.6-2.1-1.5c-0.2-0.5-0.3-1-0.2-1.6c0.2-3.1,1.8-6,4.4-7.7c0.5-0.3,1-0.5,1.5-0.6h0.5
		c1.5,0,2.4,1.2,2.4,3.1c-0.2,3.1-1.8,6-4.4,7.7C432.5,299.7,431.8,299.9,431.1,299.9z"/>
	<path d="M435.1,288.8L435.1,288.8c1.4,0,2.2,1.1,2.2,3c-0.2,3.1-1.8,5.9-4.4,7.6c-0.6,0.4-1.2,0.6-1.9,0.6c-0.9,0-1.7-0.6-2-1.4
		c-0.2-0.5-0.3-1-0.2-1.5c0.2-3.1,1.8-5.9,4.4-7.6c0.4-0.3,0.9-0.4,1.5-0.5L435.1,288.8 M435.1,288.6c-0.2,0-0.3,0-0.5,0
		c-0.5,0.1-1.1,0.3-1.5,0.6c-2.6,1.7-4.3,4.6-4.5,7.8c0,0.5,0.1,1.1,0.3,1.6c0.3,1,1.2,1.6,2.2,1.6c0.7,0,1.4-0.2,2-0.6
		c2.7-1.7,4.3-4.6,4.5-7.8C437.6,289.7,436.6,288.5,435.1,288.6L435.1,288.6z"/>
	<path class="st25" d="M434.9,290.2c-0.2,3.2-1.8,6-4.5,7.8c-0.5,0.3-1,0.5-1.5,0.6c-0.2-0.5-0.3-1.1-0.3-1.6
		c0.2-3.2,1.8-6.1,4.5-7.8c0.5-0.3,1-0.5,1.5-0.6C434.8,289.1,434.9,289.6,434.9,290.2z"/>
	<path class="st23" d="M515.7,238.5c-1,0-1.8-0.6-2.1-1.5c-0.2-0.5-0.3-1-0.3-1.6c0.2-3.1,1.8-6,4.4-7.7c0.5-0.3,1-0.5,1.5-0.6
		c0.2,0,0.3,0,0.5,0c1.5,0,2.4,1.2,2.4,3.1c-0.2,3.1-1.8,6-4.4,7.7C517.1,238.3,516.4,238.5,515.7,238.5z"/>
	<path d="M519.7,227.3c1.4,0,2.2,1.1,2.2,3c-0.2,3.1-1.8,5.9-4.4,7.6c-0.6,0.4-1.2,0.5-1.9,0.6c-0.9,0-1.7-0.6-2-1.4
		c-0.2-0.5-0.3-1-0.2-1.5c0.2-3.1,1.8-5.9,4.4-7.6c0.4-0.3,0.9-0.5,1.4-0.5C519.4,227.3,519.6,227.3,519.7,227.3 M519.7,227.1
		c-0.2,0-0.3,0-0.5,0c-0.5,0.1-1.1,0.3-1.5,0.6c-2.7,1.7-4.3,4.6-4.5,7.8c0,0.5,0.1,1.1,0.3,1.6c0.3,1,1.2,1.6,2.2,1.6
		c0.7,0,1.4-0.2,2-0.6c2.6-1.7,4.3-4.6,4.5-7.8C522.2,228.3,521.2,227.1,519.7,227.1L519.7,227.1z"/>
	<path class="st25" d="M519.5,228.7c-0.2,3.2-1.8,6-4.5,7.8c-0.5,0.3-1,0.5-1.5,0.6c-0.2-0.5-0.3-1.1-0.3-1.6c0.2-3.2,1.8-6,4.5-7.8
		c0.5-0.3,1-0.5,1.5-0.6C519.5,227.6,519.5,228.1,519.5,228.7z"/>
	<path class="st23" d="M515.7,251.1c-1,0-1.8-0.6-2.1-1.5c-0.2-0.5-0.3-1-0.3-1.6c0.2-3.1,1.8-6,4.4-7.7c0.5-0.3,1-0.5,1.5-0.6
		c0.2,0,0.3,0,0.5,0c1.5,0,2.4,1.2,2.4,3.1c-0.2,3.1-1.8,6-4.4,7.7C517.1,250.9,516.4,251.1,515.7,251.1z"/>
	<path d="M519.7,239.9c1.4,0,2.2,1.1,2.2,3c-0.2,3.1-1.8,5.9-4.4,7.6c-0.6,0.4-1.2,0.6-1.9,0.6c-0.9,0-1.7-0.6-2-1.4
		c-0.2-0.5-0.3-1-0.2-1.5c0.2-3.1,1.8-5.9,4.4-7.6c0.4-0.3,0.9-0.5,1.4-0.5C519.4,240,519.6,240,519.7,239.9 M519.7,239.8
		c-0.2,0-0.3,0-0.5,0c-0.5,0.1-1.1,0.3-1.5,0.6c-2.7,1.7-4.3,4.6-4.5,7.8c0,0.5,0.1,1.1,0.3,1.6c0.3,1,1.2,1.6,2.2,1.6
		c0.7,0,1.4-0.2,2-0.6c2.6-1.7,4.3-4.6,4.5-7.8C522.2,240.9,521.2,239.7,519.7,239.8L519.7,239.8z"/>
	<path class="st25" d="M519.5,241.3c-0.2,3.2-1.8,6-4.5,7.8c-0.5,0.3-1,0.5-1.5,0.6c-0.2-0.5-0.3-1.1-0.3-1.6c0.2-3.2,1.8-6,4.5-7.8
		c0.5-0.3,1-0.5,1.5-0.6C519.5,240.2,519.5,240.7,519.5,241.3z"/>
	<polygon class="st23" points="321.3,204.4 304.7,194.8 302.9,177.8 319.5,187.4 	"/>
	<polygon class="st23" points="328.2,208.4 324.3,206.1 322.5,189.1 326.4,191.4 	"/>
	<line class="st13" x1="264.2" y1="175.4" x2="293.3" y2="168.5"/>
	<polygon class="st23" points="448.5,258.8 441.4,262.9 377.9,223.9 384.1,220.3 	"/>
	<polygon class="st23" points="280.6,160.8 272.9,164.7 220.2,132.4 226.3,128.9 	"/>
	<g>
		<path class="st24" d="M208.1,132.2l37.5,31.6l-46.8-27v-1.4C198.8,129.7,203.3,128.1,208.1,132.2z"/>
		<path class="st15" d="M246.1,163.8l-37.5-31.6c-2-1.7-4.9-3.1-7.1-1.7l3.4-2c1.4-0.8,3.3-0.7,5.4,0.5c1.6,0.9-0.1-0.3,39.2,32.9"
			/>
	</g>
	<line class="st16" x1="203.6" y1="159.9" x2="412.3" y2="280.9"/>
	<path class="st21" d="M198.7,148.5v-12.2c0,0-0.1-5.8,2.7-5.8"/>
	<path class="st22" d="M357.4,227.2c0-0.1-2-9.8-12.6-22.2l5.7-3.2l62.6-35.8l13.3-7.7l0,0c6.2,6,12,12.5,17.3,19.2l2,1L445,179l0,0
		l-87,50.2L357.4,227.2z"/>
	<path d="M426.4,158.5c6.2,6,11.9,12.4,17.3,19.2l0,0h0l1.7,0.9l-0.5,0.3l-0.1,0.1l0,0l-4.5,2.6l-36.5,21.1l-8.4,4.8l-5,2.9
		l-16.9,9.7l0,0l-0.2,0.1L358,229c-0.2-0.6-0.5-1.9-0.5-1.9l0,0c-0.5-2.2-1.3-4.4-2.3-6.5c-2.7-5.6-6.1-10.9-10.2-15.6l5.5-3.1l0,0
		h0.1l25.2-14.4l15.3-8.8l6.5-3.7l0,0l0.2-0.1l0,0l0,0l0.6-0.4l14.7-8.4l0,0h0.1l4.7-2.7l0.7-0.4L426.4,158.5 M426.3,158.2l-7.9,4.6
		l-0.7,0.4l-4.6,2.7l0,0l-15.3,8.8l0,0l-0.2,0.1l0.2-0.1l-0.2,0.1l-6.5,3.7l-15.3,8.7l-25.2,14.4l0,0l-5.8,3.3
		c10.9,12.5,12.7,22.2,12.7,22.2s0.6,2.1,0.6,2.2l15.8-9.1l-0.2,0.1l0.3-0.1l0,0l0,0l21.8-12.6l8.4-4.8l36.5-21.1l4.7-2.7l0,0
		l0.8-0.5l-2.1-1.1c-5.4-6.8-11.1-13.2-17.3-19.2l-0.1-0.1L426.3,158.2z"/>
	<path class="st1" d="M444.9,178.2l0.4,0.7L445,179h0.2l-0.6-0.3l-26.8-15.5l0.1-0.1l0.7-0.4l8-4.5c6.2,6,12,12.4,17.4,19.2l1,0.6
		l0.1,0.1L444.9,178.2z"/>
	<path class="st23" d="M390.8,182c-0.5,8.9-1,18.1-1.4,25.9l-12.2,7l1.5-26L390.8,182z"/>
	<path class="st23" d="M402.4,175.4c-0.4,8.1-1,18.6-1.4,25.8l-6.6,3.8l1.5-25.9L402.4,175.4z"/>
	<path class="st23" d="M473.3,202.9l32.6,18.5c0.5,0.3,0.6,0.9,0.3,1.4c-0.1,0.1-0.2,0.2-0.3,0.3l-21.4,11.5
		c-0.5,0.2-1.1-0.1-1.3-0.6c-0.1-0.2-0.1-0.5,0-0.8c3-5,4.9-14.8-11-28.8c-0.3-0.4-0.2-1.1,0.2-1.4
		C472.7,202.9,473,202.9,473.3,202.9z"/>
	<path class="st23" d="M323.4,117.9c-10.2-7.1-28.4-18.2-41.4-17.1c-0.1,0-0.3,0.1-0.4,0.1l-13.9,7.6c-0.5,0.3-0.7,0.9-0.4,1.4
		c0.2,0.4,0.6,0.6,1,0.5c9.2-0.9,29.4-1.1,54.1,9.3c0.5,0.3,1.1,0.1,1.4-0.4C324,118.8,323.9,118.2,323.4,117.9z"/>
	<path class="st23" d="M276.8,160.1l49.5-28.6c0.6-0.3,1.3-0.1,1.7,0.4l0,0c0.3,0.6,0.1,1.3-0.4,1.7L278,162.2
		c-0.6,0.3-1.3,0.1-1.7-0.4l0,0C276,161.2,276.2,160.4,276.8,160.1z"/>
	<path class="st23" d="M259.6,148.5c0,0,19.3,13.4,43.4-3.5l-24.2,15.8l-8.5-2.6l-12-6.6v-0.9"/>
	<path class="st1" d="M242.1,165l-9.1,0.9l-32-18.4l-0.4-10.7c0-3.2,1.6-4.4,3.7-3.9c1.2,0.4,2.3,1,3.3,1.8l32.6,28.7L242.1,165z"/>
	<path class="st22" d="M204.6,145.3l-0.3-10.6c0-0.5,0-1,0.2-1.6c1.2,0.4,2.2,1,3.1,1.8l32.4,28.5l-3.4,0.4L204.6,145.3z"/>
	<path d="M204.6,133.2c1.1,0.4,2.1,0.9,2.9,1.7l32.2,28.3l-3.1,0.3l-31.8-18.3l-0.3-10.6C204.4,134.2,204.5,133.7,204.6,133.2
		 M204.4,132.9c-0.1,0.6-0.2,1.1-0.2,1.7l0.4,10.7l32,18.4l3.8-0.4l-32.6-28.7C206.7,133.9,205.6,133.3,204.4,132.9L204.4,132.9z"/>
	<path d="M166,222.7c2.2-1.3,4.1-0.2,4.1,2.3c-0.1,2.8-1.6,5.4-4,7c-2.2,1.3-4.1,0.2-4.1-2.3C162.1,226.8,163.6,224.2,166,222.7z
		 M166,231.6c2.2-1.4,3.6-3.8,3.7-6.4c0-2.3-1.7-3.3-3.7-2.1c-2.2,1.4-3.6,3.8-3.7,6.4C162.3,231.8,164,232.8,166,231.6"/>
	<path class="st5" d="M164.4,231.9c-1.2,0-1.9-1-1.9-2.5c0.1-2.6,1.5-4.9,3.6-6.3c0.5-0.3,1-0.5,1.6-0.5c1.2,0,1.9,1,1.9,2.5
		c-0.1,2.6-1.5,4.9-3.6,6.3C165.5,231.7,164.9,231.9,164.4,231.9z"/>
	<path d="M167.7,222.8L167.7,222.8c1.1,0,1.8,0.9,1.8,2.4c-0.1,2.5-1.5,4.8-3.6,6.2c-0.5,0.3-1,0.4-1.5,0.5c-1.1,0-1.8-0.9-1.8-2.4
		c0.1-2.5,1.5-4.8,3.6-6.2C166.6,223,167.1,222.8,167.7,222.8 M167.7,222.6c-0.6,0-1.2,0.2-1.6,0.5c-2.2,1.4-3.6,3.8-3.7,6.4
		c0,1.7,0.9,2.6,2.1,2.6c0.6,0,1.2-0.2,1.7-0.5c2.2-1.4,3.6-3.8,3.7-6.4C169.7,223.5,168.9,222.6,167.7,222.6L167.7,222.6z"/>
	<path class="st13" d="M189.9,185.6c7.6,7.9,16,13.4,21.9,23c3.9,6.3,8.9,15,8.8,22.6"/>
</g>
</svg>
