<svg id="Layer_1" data-name="Layer 1" xmlns="http://www.w3.org/2000/svg" viewBox="0 0 600 400"><defs><style>.cls-1{fill:#fff382;}.cls-2{fill:#a18e33;}.cls-3{fill:#262200;}.cls-4{fill:#fff;}.cls-5{fill:#f0ebe6;}.cls-6{fill:#b0a06a;}.cls-7{fill:#007ff5;}.cls-8{fill:#e7daa2;}.cls-9{fill:#7e6e3b;}.cls-10{fill:#ffe600;}.cls-11{fill:#f3eeea;}</style></defs><title>illo_capital-gains_thumbnail</title><rect class="cls-1" width="600" height="400"/><path class="cls-2" d="M361.68,89.21a2.92,2.92,0,0,0-1.34-2l-15.47-9.69a3,3,0,0,0-.73-.32l0,0h0a3,3,0,0,0-1.26-.08L200.47,99.68l20.27,127.75-.61.47a1.86,1.86,0,0,0-.68,1.76l.88,5.56,3.6,22.7h0l.5,3.14a1.86,1.86,0,0,0,1.54,1.55l.37.05,10.18,64.16L355.35,308a6.18,6.18,0,0,0,1.26-.34l9.72-3.83a6.08,6.08,0,0,1,2.67-.4l9.52.73a6.66,6.66,0,0,0,1.41-.06l15.46-2.45Z"/><path class="cls-1" d="M370.69,85.35l28.84,213.11L384,300.56a6,6,0,0,1-1.41,0l-9.5-.94a6,6,0,0,0-2.68.34l-9.81,3.6a6.06,6.06,0,0,1-1.27.32L240.13,320,209.27,92.12,352.13,72.79a2.94,2.94,0,0,1,2,.45l15.24,10.05A3,3,0,0,1,370.69,85.35Z"/><path class="cls-3" d="M370.69,85.35l-.25,0,28.81,212.86L384,300.31a5,5,0,0,1-.77.05l-.58,0-9.5-.94c-.21,0-.41,0-.62,0a6.34,6.34,0,0,0-2.16.38l-9.81,3.61a6.59,6.59,0,0,1-1.22.3l-119,16.11L209.56,92.34,352.17,73l.36,0a2.7,2.7,0,0,1,1.48.44l15.24,10a2.73,2.73,0,0,1,1.19,1.89l.25,0,.24,0a3.15,3.15,0,0,0-1.4-2.24L354.29,73a3.19,3.19,0,0,0-1.76-.53,3.11,3.11,0,0,0-.43,0L209.24,91.88a.24.24,0,0,0-.21.28l30.85,227.91a.25.25,0,0,0,.1.17.22.22,0,0,0,.18,0l119.23-16.14a6.69,6.69,0,0,0,1.32-.32l9.81-3.61a5.87,5.87,0,0,1,2-.35l.57,0,9.51.94c.2,0,.41,0,.62,0a7.89,7.89,0,0,0,.84-.05l15.52-2.1a.27.27,0,0,0,.16-.1.25.25,0,0,0,0-.19L370.93,85.32Z"/><path class="cls-4" d="M212.12,94.29l.14,1,140.35-19-.14-1,0,1h0l0-1v.58l-.11.4.11,0v-.42l-.11.4.16-.6-.34.52a.49.49,0,0,0,.18.08l.16-.6-.34.52,15.23,10,.33-.49-.58.08a.56.56,0,0,0,.25.41l.33-.49-.58.08,28.37,209.61-12,1.63-.33,0H383l-9.51-.95c-.31,0-.63,0-.94,0a9.52,9.52,0,0,0-3.3.58l-9.81,3.61h0a3,3,0,0,1-.52.13h0L243.15,316.06l-30-221.9-1,.13.14,1-.14-1-1,.14L241.3,317.32a1,1,0,0,0,.39.66.94.94,0,0,0,.74.2l116.72-15.8h0a4,4,0,0,0,1-.24h0l9.81-3.6a7.52,7.52,0,0,1,2.61-.46q.38,0,.75,0l9.5.95h0l.45,0a4,4,0,0,0,.6,0l13-1.76a1,1,0,0,0,.86-1.13L369.17,85.56a1.45,1.45,0,0,0-.62-1l-15.24-10a1.47,1.47,0,0,0-.4-.18,1.58,1.58,0,0,0-.41,0h-.16L212,93.3a1,1,0,0,0-.86,1.13Z"/><path class="cls-3" d="M353.16,73l2.46,6.79h0a4.54,4.54,0,0,0,3.62,2.92l8.41,1.19a.25.25,0,0,0,.28-.21.25.25,0,0,0-.21-.29l-8.41-1.19a4,4,0,0,1-3.22-2.59h0l-2.46-6.79a.26.26,0,0,0-.32-.15.25.25,0,0,0-.15.32Z"/><rect class="cls-2" x="234.84" y="100.12" width="136.05" height="193.46" rx="4.49" transform="translate(-18.55 32.02) rotate(-5.87)"/><rect class="cls-5" x="236.1" y="97.59" width="136.05" height="193.46" rx="4.49" transform="translate(-18.28 32.13) rotate(-5.87)"/><path class="cls-3" d="M357.43,91.6l0-.25L231,104.35a4.73,4.73,0,0,0-4.25,4.7,3.91,3.91,0,0,0,0,.49l18.87,183.52a4.74,4.74,0,0,0,4.71,4.26l.49,0,126.4-13a4.74,4.74,0,0,0,4.26-4.71,4.15,4.15,0,0,0,0-.49L362.61,95.58a4.74,4.74,0,0,0-4.71-4.26,4,4,0,0,0-.49,0l0,.25,0,.24.44,0a4.24,4.24,0,0,1,4.21,3.81L381,279.15a3.11,3.11,0,0,1,0,.43,4.24,4.24,0,0,1-3.81,4.21l-126.4,13-.44,0a4.24,4.24,0,0,1-4.21-3.81L227.27,109.49c0-.14,0-.29,0-.44a4.24,4.24,0,0,1,3.8-4.21l126.41-13Z"/><path class="cls-6" d="M330.21,159.87l32.62-59.64-.47-4.63a4.49,4.49,0,0,0-4.93-4l-2,.2-27.22,65.38Z"/><path class="cls-3" d="M330.21,159.87l.22.12,32.62-59.64a.17.17,0,0,0,0-.14l-.47-4.63a4.74,4.74,0,0,0-4.71-4.26,4,4,0,0,0-.49,0l-2,.2a.26.26,0,0,0-.21.16L328,157.08a.23.23,0,0,0,0,.25l2,2.69a.24.24,0,0,0,.22.1.26.26,0,0,0,.2-.13l-.22-.12.2-.15-1.94-2.58L355.59,92l1.87-.2.44,0a4.24,4.24,0,0,1,4.21,3.81l.47,4.55L330,159.75l.22.12.2-.15Z"/><path class="cls-7" d="M234.84,112.45l15.75-1.62c8.56-.88,15,2.33,15.7,9.7a10.51,10.51,0,0,1-4,9.61v.12c5.06,1,7.31,5.18,7.7,9,1,9.34-6.47,13.56-15,14.43l-15.74,1.62Zm17.58,15c2.63-.27,3.57-2.3,3.36-4.34s-1.51-3.53-4.33-3.24l-5.21.53L247,128Zm2.67,17.16a4.29,4.29,0,0,0,4.09-5,4.14,4.14,0,0,0-4.94-3.91l-6.35.65.91,8.86Z"/><path class="cls-3" d="M234.84,112.45l0,.25,15.75-1.62a24.16,24.16,0,0,1,2.65-.14,14.94,14.94,0,0,1,8.81,2.41,9.71,9.71,0,0,1,4,7.21,10.55,10.55,0,0,1,.06,1.13,10.12,10.12,0,0,1-4,8.25.25.25,0,0,0-.1.23v.12a.24.24,0,0,0,.2.22,8.72,8.72,0,0,1,5.45,3.33,10.86,10.86,0,0,1,2.05,5.4,14.06,14.06,0,0,1,.08,1.56,10.68,10.68,0,0,1-4.43,9,21,21,0,0,1-10.4,3.59l-15.5,1.6-4.38-42.57-.25,0,0,.25,0-.25-.24,0,4.4,42.82a.22.22,0,0,0,.09.16.21.21,0,0,0,.18.06L255,153.89a21.46,21.46,0,0,0,10.65-3.69,11.21,11.21,0,0,0,4.63-9.4,14.83,14.83,0,0,0-.08-1.61,11.33,11.33,0,0,0-2.15-5.65,9.23,9.23,0,0,0-5.75-3.52l-.05.24.25,0v-.12l-.25,0,.14.2a10.58,10.58,0,0,0,4.2-8.65,11.85,11.85,0,0,0-.06-1.19,10.23,10.23,0,0,0-4.17-7.56,15.42,15.42,0,0,0-9.1-2.5,25.06,25.06,0,0,0-2.7.14l-15.75,1.62a.24.24,0,0,0-.22.27Zm17.58,15,0,.25a3.92,3.92,0,0,0,2.77-1.39,4.22,4.22,0,0,0,.85-2.65,5.44,5.44,0,0,0,0-.57,4,4,0,0,0-1.09-2.48,3.91,3.91,0,0,0-2.83-1,5.27,5.27,0,0,0-.68,0l-5.21.53a.25.25,0,0,0-.22.28l.78,7.6a.26.26,0,0,0,.09.17.3.3,0,0,0,.18.06l5.39-.56,0-.25,0-.25-5.14.53-.73-7.1,5-.51a4.64,4.64,0,0,1,.63,0,3.39,3.39,0,0,1,2.48.89,3.47,3.47,0,0,1,.94,2.17,4.41,4.41,0,0,1,0,.52,3.78,3.78,0,0,1-.74,2.34,3.42,3.42,0,0,1-2.43,1.2Zm2.67,17.16,0,.24a4.79,4.79,0,0,0,3.28-1.57,4.66,4.66,0,0,0,1.07-3.06q0-.3,0-.6a4.78,4.78,0,0,0-1.31-2.95,4.42,4.42,0,0,0-3.22-1.22,5.53,5.53,0,0,0-.69,0l-6.35.65a.25.25,0,0,0-.22.27l.91,8.87a.32.32,0,0,0,.09.17.25.25,0,0,0,.19,0l6.28-.65,0-.24,0-.25-6,.62-.86-8.37,6.1-.62a4.78,4.78,0,0,1,.64,0,3.88,3.88,0,0,1,2.86,1.07,4.27,4.27,0,0,1,1.17,2.65,5.07,5.07,0,0,1,0,.55,4.09,4.09,0,0,1-.95,2.73,4.31,4.31,0,0,1-2.95,1.41Z"/><path class="cls-7" d="M293.68,105.67c12.93-1.33,23.38,7.28,24.64,19.55a22.51,22.51,0,1,1-44.79,4.61C272.27,117.55,280.75,107,293.68,105.67Zm3.57,34.67c6.4-.66,11-6.7,10.23-14-.72-7-6.41-11.75-12.81-11.09s-11,6.46-10.3,13.46C285.12,136,290.84,141,297.25,140.34Z"/><path class="cls-3" d="M293.68,105.67l0,.25a25.24,25.24,0,0,1,2.59-.13,21.37,21.37,0,0,1,21.77,19.46,23.39,23.39,0,0,1,.13,2.5,21.7,21.7,0,0,1-20,21.92,24.23,24.23,0,0,1-2.53.13c-11.61,0-20.7-8.38-21.9-20-.08-.8-.12-1.59-.12-2.38,0-11.09,8.08-20.27,20-21.5l0-.25,0-.25c-12.2,1.25-20.51,10.66-20.5,22q0,1.21.12,2.43c1.22,11.86,10.54,20.46,22.4,20.45a25.18,25.18,0,0,0,2.58-.13,22.21,22.21,0,0,0,20.44-22.42,24.47,24.47,0,0,0-.13-2.55,21.87,21.87,0,0,0-22.27-19.91,26.21,26.21,0,0,0-2.64.13Zm3.57,34.67,0,.25c6.09-.63,10.55-6,10.54-12.69a14.35,14.35,0,0,0-.08-1.59c-.68-6.68-5.84-11.37-11.88-11.37-.4,0-.8,0-1.21.06a12,12,0,0,0-10.59,12.28,14.41,14.41,0,0,0,.07,1.46c.72,7,5.91,11.91,12,11.91a11.41,11.41,0,0,0,1.16-.06l0-.25,0-.25a10.32,10.32,0,0,1-1.11.06c-5.79,0-10.79-4.7-11.49-11.46a13.58,13.58,0,0,1-.07-1.41c0-6.23,4.31-11.18,10.14-11.78a11.41,11.41,0,0,1,1.16-.06c5.78,0,10.72,4.47,11.38,10.92a13.36,13.36,0,0,1,.08,1.54c0,6.48-4.29,11.59-10.09,12.19Z"/><path class="cls-7" d="M323.26,103.35,339,101.73c8.56-.88,14.94,2.34,15.7,9.71a10.51,10.51,0,0,1-4,9.61v.12c5.06,1,7.31,5.18,7.7,9,1,9.34-6.47,13.55-15,14.43l-15.74,1.62Zm17.58,15c2.63-.27,3.57-2.3,3.36-4.34s-1.51-3.54-4.33-3.25l-5.21.54.79,7.6Zm2.67,17.15a4.28,4.28,0,0,0,4.09-5,4.15,4.15,0,0,0-4.94-3.91l-6.35.66.91,8.86Z"/><path class="cls-3" d="M323.26,103.35l0,.25L339,102c.91-.09,1.79-.14,2.65-.14a14.94,14.94,0,0,1,8.81,2.41,9.71,9.71,0,0,1,4,7.21,10.84,10.84,0,0,1,.06,1.13,10.09,10.09,0,0,1-4,8.25.26.26,0,0,0-.1.23v.12a.24.24,0,0,0,.2.22,8.73,8.73,0,0,1,5.45,3.34,10.86,10.86,0,0,1,2.05,5.39,14.24,14.24,0,0,1,.08,1.57,10.74,10.74,0,0,1-4.43,9,21,21,0,0,1-10.4,3.59l-15.5,1.59-4.38-42.56-.25,0,0,.25,0-.25-.25,0,4.41,42.81a.22.22,0,0,0,.09.17.3.3,0,0,0,.18.06l15.75-1.62a21.55,21.55,0,0,0,10.65-3.69,11.23,11.23,0,0,0,4.63-9.4,15.14,15.14,0,0,0-.08-1.62,11.33,11.33,0,0,0-2.15-5.64,9.24,9.24,0,0,0-5.75-3.53l-.05.25.25,0V121l-.25,0,.14.2a10.58,10.58,0,0,0,4.2-8.66,11.66,11.66,0,0,0-.06-1.18,10.19,10.19,0,0,0-4.17-7.56,15.42,15.42,0,0,0-9.1-2.51,25.45,25.45,0,0,0-2.71.15l-15.74,1.62a.25.25,0,0,0-.23.27Zm17.58,15,0,.25a3.89,3.89,0,0,0,2.77-1.4,4.2,4.2,0,0,0,.85-2.65,5.44,5.44,0,0,0,0-.57,4,4,0,0,0-1.09-2.47,3.91,3.91,0,0,0-2.83-1,5.27,5.27,0,0,0-.68,0l-5.21.53a.24.24,0,0,0-.22.28l.78,7.6a.22.22,0,0,0,.09.17.24.24,0,0,0,.18,0l5.39-.55,0-.25,0-.25-5.14.53-.73-7.11,5-.51.63,0a3.35,3.35,0,0,1,2.48.89A3.52,3.52,0,0,1,344,114a4.67,4.67,0,0,1,0,.52,3.74,3.74,0,0,1-.74,2.34,3.39,3.39,0,0,1-2.43,1.21Zm2.67,17.15,0,.25a4.83,4.83,0,0,0,3.28-1.57,4.69,4.69,0,0,0,1.07-3.07c0-.19,0-.39,0-.59a4.81,4.81,0,0,0-1.31-3,4.42,4.42,0,0,0-3.22-1.21l-.69,0-6.35.66a.25.25,0,0,0-.22.27l.91,8.86a.26.26,0,0,0,.09.17.31.31,0,0,0,.19.06l6.28-.65,0-.25,0-.25-6,.62-.86-8.36,6.1-.63.64,0a3.88,3.88,0,0,1,2.86,1.07,4.27,4.27,0,0,1,1.17,2.65,4.89,4.89,0,0,1,0,.54,4.17,4.17,0,0,1-.95,2.74,4.31,4.31,0,0,1-2.95,1.4Z"/><polyline class="cls-6" points="345.11 132.63 331.2 158.07 328.64 156.09 338.9 131.46"/><path class="cls-3" d="M344.89,132.51l-13.77,25.18L328.94,156l10.19-24.46a.25.25,0,0,0-.14-.32.23.23,0,0,0-.32.13L328.41,156a.25.25,0,0,0,.07.29l2.56,2a.25.25,0,0,0,.38-.08l13.91-25.44a.25.25,0,0,0-.1-.34.26.26,0,0,0-.34.1Z"/><path class="cls-7" d="M344.5,163.45a1.6,1.6,0,0,1-.44.55,3.58,3.58,0,0,1-1.4.65,9.54,9.54,0,0,1-2.31.25,23.14,23.14,0,0,1-5.68-.84,40.79,40.79,0,0,1-6.82-2.5,35.77,35.77,0,0,1-9-5.83,14.44,14.44,0,0,1-2.47-2.87,4.38,4.38,0,0,1-.79-2.21,1.63,1.63,0,0,1,.14-.69l-1.81-.85a3.56,3.56,0,0,0-.33,1.54,6.31,6.31,0,0,0,1.09,3.27,19.88,19.88,0,0,0,4.75,4.91,41.34,41.34,0,0,0,7.54,4.54,43.38,43.38,0,0,0,7.16,2.63,25.12,25.12,0,0,0,6.19.9,10,10,0,0,0,3.61-.57,4.9,4.9,0,0,0,1.39-.8,3.63,3.63,0,0,0,1-1.23l-1.81-.85Z"/><path class="cls-7" d="M315.76,150a1.6,1.6,0,0,1,.44-.55,3.45,3.45,0,0,1,1.4-.65,9.06,9.06,0,0,1,2.31-.25,23.08,23.08,0,0,1,5.68.83,40,40,0,0,1,6.82,2.51,35.77,35.77,0,0,1,9,5.82,14.73,14.73,0,0,1,2.47,2.87,4.41,4.41,0,0,1,.79,2.21,1.71,1.71,0,0,1-.14.7l1.81.85a3.63,3.63,0,0,0,.33-1.55,6.28,6.28,0,0,0-1.09-3.26,19.9,19.9,0,0,0-4.75-4.92,40.44,40.44,0,0,0-7.54-4.53,41.64,41.64,0,0,0-7.16-2.63,25.12,25.12,0,0,0-6.19-.9,10,10,0,0,0-3.61.57,5.12,5.12,0,0,0-1.39.79,3.77,3.77,0,0,0-1,1.24l1.81.85Z"/><path class="cls-3" d="M291.36,142.54l-11.81-3.15a12.77,12.77,0,0,0-12.69,3.71,5.18,5.18,0,0,0,1.81,8.28l6.1,2.6,5.15,1.3,11.77-9.59Z"/><path class="cls-3" d="M291.36,142.54l.07-.25-11.81-3.14a12.85,12.85,0,0,0-3.35-.44,13,13,0,0,0-9.6,4.22,5.44,5.44,0,0,0,1.91,8.69h0l6.1,2.6h0l5.15,1.3a.25.25,0,0,0,.22-.05l11.77-9.59a.29.29,0,0,0,.09-.22l-.33-3.15a.26.26,0,0,0-.18-.22l-.07.25-.25,0,.31,3L279.86,155l-5-1.26-6.08-2.59h0a4.93,4.93,0,0,1-1.73-7.88,12.53,12.53,0,0,1,9.23-4.06,12.71,12.71,0,0,1,3.22.42l11.81,3.15.06-.24-.25,0Z"/><path class="cls-8" d="M284.39,172.05l-4.22-1.44a3.28,3.28,0,0,1-2-2l-1-2.75-.63-.82a2.9,2.9,0,0,1-.61-1.8v-1.13l-.34-.46a2.93,2.93,0,0,1-.46-2.45l.45-1.77a2.72,2.72,0,0,1-1.21-.69,1.49,1.49,0,0,1-.17-1.81l.57-.93.32-.51-.3-3.93a5.15,5.15,0,0,1,2.66-5l.32-.16s8.1-4.92,20.18,3.56l10.36,5.37,1.3,2.66-1.21,7.22-2.71,6.16Z"/><path class="cls-3" d="M284.39,172.05l.08-.24-4.21-1.44a3,3,0,0,1-1.89-1.86l-1-2.75,0-.07-.63-.82a2.68,2.68,0,0,1-.56-1.63h0v-1.14a.3.3,0,0,0-.05-.15l-.33-.46a2.63,2.63,0,0,1-.51-1.57,2.56,2.56,0,0,1,.08-.67l.46-1.77a.26.26,0,0,0-.18-.3,2.38,2.38,0,0,1-1.1-.63,1.16,1.16,0,0,1-.33-.82,1.26,1.26,0,0,1,.2-.68l.57-.93.31-.51a.26.26,0,0,0,0-.15l-.3-3.93c0-.13,0-.26,0-.39a4.88,4.88,0,0,1,2.53-4.35c.1-.06.21-.1.31-.15h0l0,0a13.16,13.16,0,0,1,6.23-1.37c3.42,0,8.1,1,13.66,4.94h0l10.29,5.34,1.23,2.5-1.19,7.12-2.64,6-21.16,2.67,0,.25.08-.24-.08.24,0,.24,21.3-2.68a.25.25,0,0,0,.2-.14l2.71-6.15,0-.06,1.21-7.23a.25.25,0,0,0,0-.15l-1.31-2.66a.29.29,0,0,0-.11-.11l-10.36-5.37L298,148l.14-.2c-5.62-4-10.42-5-13.94-5a13.31,13.31,0,0,0-6.51,1.46l.13.21-.1-.23-.34.16a5.41,5.41,0,0,0-2.8,4.8,3.17,3.17,0,0,0,0,.43l.28,3.85-.27.44-.57.92a1.8,1.8,0,0,0-.27.95,1.69,1.69,0,0,0,.47,1.17,2.92,2.92,0,0,0,1.33.76l.06-.24-.24-.06-.45,1.77a3.06,3.06,0,0,0-.1.79,3.13,3.13,0,0,0,.6,1.86l.29.4v1.05h0v0a3.24,3.24,0,0,0,.66,1.94l.61.78,1,2.72a3.51,3.51,0,0,0,2.19,2.16l4.22,1.44h.11Z"/><path class="cls-9" d="M332.8,156.7l2.55.09a1.88,1.88,0,0,1,1.76,1.45l.11.46,1.65,2.21a2.49,2.49,0,0,1-3.37.66l-.34-.22-2-1.39Z"/><path class="cls-3" d="M332.8,156.7V157l2.55.09a1.63,1.63,0,0,1,1.53,1.26l.11.46,0,.09,1.65,2.21.2-.15-.2-.15a2.24,2.24,0,0,1-1.83,1,2.2,2.2,0,0,1-1.2-.35l-.34-.22-1.93-1.32-.32-3.14-.25,0v0l-.25,0,.34,3.26a.24.24,0,0,0,.1.18l2,1.39h0l.34.22a2.7,2.7,0,0,0,1.47.43,2.75,2.75,0,0,0,2.24-1.16.24.24,0,0,0,0-.29l-1.62-2.16-.09-.41a2.14,2.14,0,0,0-2-1.65l-2.55-.09a.27.27,0,0,0-.19.08.25.25,0,0,0-.07.2Z"/><path class="cls-10" d="M345.29,198l-3.7-11.29a17.24,17.24,0,0,0-7.8-9.57l-4.87-2.79-10-8.32-37.45,7.88-4.25-1.56a12.33,12.33,0,0,0-8.75.12l-4.12,1.64a10.7,10.7,0,0,0-6.75,10.3,43.28,43.28,0,0,0,4,16.77l3.19,6.88a19.81,19.81,0,0,0,2.25,3.72,20.33,20.33,0,0,1,2.42,4.12l11.79,26.9.8,9a6.71,6.71,0,0,0,.43,1.82l2.36,6.06s25.06-21.29,47-16.06l.15-.24a1.93,1.93,0,0,0-.09-2.23l-1-1.31.33-.82a2,2,0,0,0-.19-1.79l-1.38-2.07,4.37-29Z"/><path class="cls-3" d="M345.29,198l.24-.08-3.7-11.29a17.5,17.5,0,0,0-7.92-9.71l-4.84-2.77-10-8.31a.27.27,0,0,0-.21-.06l-37.38,7.87-4.18-1.53a12.58,12.58,0,0,0-8.93.12l-4.12,1.63a11,11,0,0,0-6.92,10.19c0,.12,0,.24,0,.36a43.48,43.48,0,0,0,4,16.86l3.2,6.88a20.3,20.3,0,0,0,2.27,3.77,19.83,19.83,0,0,1,2.39,4.07L281,242.87l.8,8.95a7.13,7.13,0,0,0,.44,1.89l2.37,6.06a.22.22,0,0,0,.17.15.25.25,0,0,0,.22-.05l.23-.19a91.76,91.76,0,0,1,13.57-9c7.25-3.93,16.53-7.62,25.77-7.62a30.91,30.91,0,0,1,7.21.82.25.25,0,0,0,.27-.11l.15-.23a2.14,2.14,0,0,0,.35-1.19,2.18,2.18,0,0,0-.45-1.33l-.93-1.2.28-.69a2.23,2.23,0,0,0-.21-2l-1.33-2,4.34-28.77,11.23-8.12a.24.24,0,0,0,.09-.28l-.24.08-.14-.2L333.83,206a.27.27,0,0,0-.1.16l-4.37,29a.21.21,0,0,0,0,.17l1.38,2.07a1.64,1.64,0,0,1,.16,1.57l-.33.82a.24.24,0,0,0,0,.24l1,1.31a1.7,1.7,0,0,1,.08,1.95l-.15.23.21.14.06-.24a31.41,31.41,0,0,0-7.33-.84c-10,0-20,4.25-27.43,8.48a86.79,86.79,0,0,0-12.46,8.47l.16.19.23-.09-2.36-6.06a6.2,6.2,0,0,1-.41-1.75l-.81-9,0-.07-11.78-26.9a20.55,20.55,0,0,0-2.45-4.17A19.36,19.36,0,0,1,265,208l-3.19-6.88a42.91,42.91,0,0,1-4-16.66c0-.12,0-.24,0-.35a10.45,10.45,0,0,1,6.6-9.72l4.12-1.63a12.06,12.06,0,0,1,8.58-.12l4.25,1.55a.2.2,0,0,0,.13,0l37.33-7.85,9.94,8.25,0,0,4.86,2.78a16.92,16.92,0,0,1,7.69,9.44l3.71,11.29.23-.08-.14-.2Z"/><path class="cls-3" d="M332.84,248.83l1.17.3-2.34-5.45c-21.94-5.22-47,16.07-47,16.07l2,5.23,2.25-1.93C295.92,257.66,315.34,244.41,332.84,248.83Z"/><path class="cls-3" d="M332.84,248.83l-.07.24,1.18.3a.22.22,0,0,0,.25-.08.25.25,0,0,0,0-.26l-2.34-5.44a.27.27,0,0,0-.18-.15,31.34,31.34,0,0,0-7.33-.83c-10,0-20,4.24-27.43,8.47a88.75,88.75,0,0,0-12.46,8.48.24.24,0,0,0-.07.28l2,5.23a.25.25,0,0,0,.4.1l2.25-1.93-.16-.19.15.19c6-4.62,21.19-15.06,36.36-15.05a29.72,29.72,0,0,1,7.31.88h0l.07-.24.06-.25a30.2,30.2,0,0,0-7.43-.89c-15.4,0-30.65,10.51-36.67,15.16h0l-2,1.7-1.91-4.9-.23.09.16.19.22-.19a90.66,90.66,0,0,1,13.58-9c7.25-3.93,16.52-7.62,25.76-7.62a30.94,30.94,0,0,1,7.22.82l.06-.25-.23.1,2.14,5-.68-.18h0Z"/><path class="cls-9" d="M335.13,160.15l-.28-1a3.87,3.87,0,0,0-2.05-2.44l-4-1.9a5.39,5.39,0,0,0-5,.19l-6.92,4a10,10,0,0,0-3.12,2.8l-1.27,1.66a4.39,4.39,0,0,0-.81,3.59l0,.22a4.43,4.43,0,0,0,2.65,3.17l1.8.73a11.16,11.16,0,0,1,2.45-.74h.07l3.65-.62a9.28,9.28,0,0,1,4.56.37l1.35.47,2-1.05.55-.35a2.47,2.47,0,0,0,1.13-1.85l.06-.72.54-.44a2.87,2.87,0,0,0,1.06-2l.05-.67.9-1.08A2.48,2.48,0,0,0,335.13,160.15Z"/><path class="cls-3" d="M335.13,160.15l.24-.07-.28-1a4.13,4.13,0,0,0-2.18-2.6l-4-1.9a5.64,5.64,0,0,0-5.24.2l-6.92,4a10.31,10.31,0,0,0-3.19,2.87l.2.15-.2-.15-1.27,1.65a4.66,4.66,0,0,0-1,2.84,4.47,4.47,0,0,0,.1,1l0,.22a4.66,4.66,0,0,0,2.8,3.35l1.8.73a.31.31,0,0,0,.19,0,10.06,10.06,0,0,1,2.4-.72h.06l3.65-.62a8.56,8.56,0,0,1,1.51-.13,8.88,8.88,0,0,1,2.93.49l1.35.47a.27.27,0,0,0,.2,0l2-1.05h0l.54-.35a2.68,2.68,0,0,0,1.24-2l.06-.61.46-.38a3.11,3.11,0,0,0,1.15-2.2l0-.59.85-1a2.75,2.75,0,0,0,.65-1.78,2.64,2.64,0,0,0-.1-.74l-.24.07-.24.06a2.55,2.55,0,0,1,.08.61,2.22,2.22,0,0,1-.53,1.45l-.9,1.08a.2.2,0,0,0-.06.14l-.05.68a2.64,2.64,0,0,1-1,1.85l-.55.44a.26.26,0,0,0-.09.17l-.06.72a2.22,2.22,0,0,1-1,1.66l-.54.34-2,1-1.25-.43a9.28,9.28,0,0,0-3.09-.52,9.59,9.59,0,0,0-1.6.13l-3.64.63h-.07a11,11,0,0,0-2.51.75l.1.23.1-.23-1.8-.74a4.11,4.11,0,0,1-2.5-3L312,167a4.26,4.26,0,0,1-.09-.86,4.16,4.16,0,0,1,.86-2.53l1.27-1.66h0a9.84,9.84,0,0,1,3-2.74l6.92-4a5.17,5.17,0,0,1,4.78-.18l3.95,1.9a3.61,3.61,0,0,1,1.92,2.28l.28,1Z"/><path class="cls-9" d="M332.18,187.85a5.6,5.6,0,0,0,1.2-3.17l.08-1.18-1.78-2.21,0-7a3.57,3.57,0,0,0-2.4-3.35l-1-.33-1.35-.47a9.28,9.28,0,0,0-4.56-.37l-1.88.32a2.06,2.06,0,0,0-1.71,2.1v.41l-.51.19a2.07,2.07,0,0,0-1.3,1.76l0,.42-.44.24a2.06,2.06,0,0,0-1.1,1.85l0,.83h0a2.06,2.06,0,0,0-1.36,1.94.83.83,0,0,0,.19.52l.76.91a9.39,9.39,0,0,0,3.24,2.48l2.45,1.14.4,1.2a4.2,4.2,0,0,0,2.21,2.5l1.45.67,2.31.44A5.33,5.33,0,0,0,332.18,187.85Z"/><path class="cls-3" d="M332.18,187.85l.19.16a5.84,5.84,0,0,0,1.26-3.31l.08-1.19a.27.27,0,0,0-.06-.17l-1.72-2.13,0-6.91a3.82,3.82,0,0,0-2.57-3.59l-.95-.33-1.36-.46a9.28,9.28,0,0,0-3.09-.52,9.59,9.59,0,0,0-1.6.13l-1.87.32a2.32,2.32,0,0,0-1.92,2.28v.08h0v.23l-.35.13a2.32,2.32,0,0,0-1.46,2l0,.28-.32.17a2.32,2.32,0,0,0-1.23,2v0h0l0,.82h.25l-.09-.24h0a2.31,2.31,0,0,0-1.52,2.17,1.06,1.06,0,0,0,.25.68l.75.91a9.79,9.79,0,0,0,3.33,2.55l2.36,1.09.36,1.1a4.47,4.47,0,0,0,2.35,2.64l1.44.68h.06L327,190a6.22,6.22,0,0,0,1.05.1,5.59,5.59,0,0,0,4.31-2l-.19-.16-.2-.16a5.06,5.06,0,0,1-4.87,1.77l-2.29-.44-1.41-.66a4,4,0,0,1-2.09-2.35l-.39-1.2a.26.26,0,0,0-.14-.15l-2.45-1.13a9.21,9.21,0,0,1-3.15-2.42l-.76-.91a.59.59,0,0,1-.13-.36,1.81,1.81,0,0,1,1.2-1.7h0a.25.25,0,0,0,.17-.24l0-.82h0v0a1.81,1.81,0,0,1,1-1.6l.45-.24a.28.28,0,0,0,.13-.2l0-.42a1.83,1.83,0,0,1,1.15-1.54l.51-.2a.25.25,0,0,0,.16-.24v-.41h0v-.06a1.8,1.8,0,0,1,1.5-1.78l1.88-.32a8.56,8.56,0,0,1,1.51-.13,8.88,8.88,0,0,1,2.93.49l1.35.47,1,.33a3.32,3.32,0,0,1,2.23,3.11l0,7a.22.22,0,0,0,.06.15l1.71,2.13-.07,1.08a5.34,5.34,0,0,1-1.15,3Z"/><line class="cls-4" x1="331.68" y1="181.29" x2="331.69" y2="183.22"/><path class="cls-3" d="M331.43,181.3v1.92a.25.25,0,0,0,.5,0v-1.93a.25.25,0,0,0-.25-.25.26.26,0,0,0-.25.26"/><line class="cls-4" x1="332.08" y1="166.65" x2="326.94" y2="162.48"/><path class="cls-3" d="M332.24,166.46l-5.14-4.17a.25.25,0,1,0-.32.39l5.14,4.17a.25.25,0,0,0,.32-.39"/><line class="cls-4" x1="333.73" y1="163.51" x2="329.44" y2="159.5"/><path class="cls-3" d="M333.9,163.32l-4.29-4a.25.25,0,0,0-.35,0,.25.25,0,0,0,0,.36l4.29,4a.25.25,0,0,0,.35,0,.26.26,0,0,0,0-.36"/><path class="cls-7" d="M290.17,178.51c-2.22-7.67,2.52-11,2.65-11a27.86,27.86,0,0,0-5.77,2.84l-7,4.48a2.59,2.59,0,0,1-1.46.42h-1a13.87,13.87,0,0,0-9.38,3.54,11,11,0,0,0-3.59,7.05l-.13,1.27a12.06,12.06,0,0,0,2.85,9.14l.77.91a5.16,5.16,0,0,0,4.89,1.73,9.18,9.18,0,0,0,4.2-2l1.12-.95a22.76,22.76,0,0,0,3.47-3.67l12.11-4.71a22.92,22.92,0,0,0,3.92-2S292.43,186.29,290.17,178.51Z"/><path class="cls-3" d="M290.17,178.51l.24-.07a13.88,13.88,0,0,1-.58-3.83,9,9,0,0,1,1.54-5.24,6.86,6.86,0,0,1,1.59-1.7.25.25,0,0,0-.22-.45,28.63,28.63,0,0,0-5.82,2.87l-7,4.48a2.4,2.4,0,0,1-1.3.38h0v0h-1.12a14.06,14.06,0,0,0-9.41,3.61,11.23,11.23,0,0,0-3.68,7.2l-.13,1.28a11,11,0,0,0-.07,1.28,12.36,12.36,0,0,0,3,8l.77.91a5.44,5.44,0,0,0,4.13,1.91,5.63,5.63,0,0,0,1-.09,9.41,9.41,0,0,0,4.31-2.07l1.12-.95a22.76,22.76,0,0,0,3.51-3.7l-.2-.16.09.24L294,187.72a22.32,22.32,0,0,0,4-2,.25.25,0,0,0-.15-.46h0a3.57,3.57,0,0,1-.4,0,6,6,0,0,1-3.27-1c-1.36-.92-2.8-2.61-3.73-5.8l-.24.07-.24.07c.95,3.28,2.47,5.09,3.93,6.07a6.46,6.46,0,0,0,3.55,1.13l.34,0h.12l0-.23,0,.23h0l0-.23,0,.23,0-.25-.13-.21a22.82,22.82,0,0,1-3.88,2L281.72,192l-.11.08a22.25,22.25,0,0,1-3.43,3.63l-1.12.95a9,9,0,0,1-4.08,2,4.76,4.76,0,0,1-.91.09,5,5,0,0,1-3.75-1.73l-.77-.91a11.82,11.82,0,0,1-2.86-7.72q0-.62.06-1.23l.14-1.27a10.68,10.68,0,0,1,3.51-6.89,13.6,13.6,0,0,1,9.08-3.48h1.15a2.93,2.93,0,0,0,1.57-.46l7-4.48a27.65,27.65,0,0,1,5.72-2.82l-.09-.23-.14-.21a7.29,7.29,0,0,0-1.73,1.83,9.66,9.66,0,0,0-1.62,5.53,14.08,14.08,0,0,0,.6,4Z"/><path class="cls-8" d="M314.41,170.42a4.43,4.43,0,0,1-2.65-3.17l0-.22a4.39,4.39,0,0,1,.81-3.59l1.27-1.66-18.69,5c-.77.21-1.53.45-2.29.72-.13.09-4.87,3.38-2.65,11s7.66,7,7.67,7a22.6,22.6,0,0,0,3.56-2.78l6.1-5.86,6.94-4.74a11.29,11.29,0,0,1,1.77-1Z"/><path class="cls-3" d="M314.41,170.42l.1-.24a4.11,4.11,0,0,1-2.5-3L312,167a4.26,4.26,0,0,1-.09-.86,4.16,4.16,0,0,1,.86-2.53l1.27-1.66a.26.26,0,0,0,0-.29.24.24,0,0,0-.27-.1l-18.69,5q-1.17.31-2.31.72l-.06,0a7.29,7.29,0,0,0-1.73,1.83,9.66,9.66,0,0,0-1.62,5.53,14.08,14.08,0,0,0,.6,4c.95,3.28,2.47,5.09,3.93,6.07a6.46,6.46,0,0,0,3.55,1.13l.34,0h.12v0h0v0l0-.24v.24h0l0-.24v.24a.2.2,0,0,0,.13,0,22.64,22.64,0,0,0,3.6-2.81l6.09-5.84,6.92-4.73a10.07,10.07,0,0,1,1.73-1,.24.24,0,0,0,.15-.24.23.23,0,0,0-.15-.22l-1.8-.74-.1.24-.09.23,1.8.73.09-.23-.09-.23a10.7,10.7,0,0,0-1.82,1l-6.94,4.75,0,0-6.11,5.86a23.24,23.24,0,0,1-3.51,2.75l.13.21v-.25h0l-.11,0h-.29a6,6,0,0,1-3.27-1c-1.36-.92-2.8-2.61-3.73-5.8a13.51,13.51,0,0,1-.58-3.83,9,9,0,0,1,1.54-5.24,6.59,6.59,0,0,1,1.6-1.7l-.15-.21.09.23c.75-.26,1.5-.5,2.27-.7l18-4.78-.83,1.07a4.66,4.66,0,0,0-1,2.84,4.47,4.47,0,0,0,.1,1l0,.22a4.66,4.66,0,0,0,2.8,3.35Z"/><path class="cls-4" d="M330.4,208.4l-.17-1A5.44,5.44,0,0,0,330.4,208.4Z"/><path class="cls-8" d="M338.62,211.76c6-1.6,7.57-8,8-11.28a18.66,18.66,0,0,0-2.13-3.31l-11-13.67-.08,1.18a5.6,5.6,0,0,1-1.2,3.17,5.33,5.33,0,0,1-5.12,1.85l-2.31-.44,3,7.09a20,20,0,0,1,1.34,4.55l1.12,6.51h0l.17,1C330.86,210.14,332.54,213.38,338.62,211.76Z"/><path class="cls-3" d="M338.62,211.76l.07.24a9.94,9.94,0,0,0,6.24-5.14,18.47,18.47,0,0,0,1.92-6.35.22.22,0,0,0,0-.14,19.29,19.29,0,0,0-2.15-3.35l-11-13.68a.25.25,0,0,0-.27-.08.23.23,0,0,0-.17.22l-.08,1.18a5.34,5.34,0,0,1-1.15,3,5.08,5.08,0,0,1-3.92,1.86,5,5,0,0,1-.95-.09l-2.32-.45a.27.27,0,0,0-.24.09.24.24,0,0,0,0,.26l3,7.08a20.23,20.23,0,0,1,1.33,4.5l1.11,6.51a.26.26,0,0,0,.27.21.25.25,0,0,0,.23-.25h0a.29.29,0,0,0-.07-.18.24.24,0,0,0-.18-.07.26.26,0,0,0-.18.07.29.29,0,0,0-.07.18h0v0l.18,1v0a5.47,5.47,0,0,0,1.43,2.54,5.52,5.52,0,0,0,4,1.44,12.24,12.24,0,0,0,3.09-.45l-.07-.24-.06-.24a11.78,11.78,0,0,1-3,.43,4.67,4.67,0,0,1-5-3.61l-.24.06.25,0-.17-1-.25,0h.25a.29.29,0,0,0-.07-.18.24.24,0,0,0-.18-.07.26.26,0,0,0-.18.07.29.29,0,0,0-.07.18h.25l.25,0-1.12-6.52a20.45,20.45,0,0,0-1.36-4.6l-2.84-6.66L327,190a6.22,6.22,0,0,0,1.05.1,5.59,5.59,0,0,0,4.31-2,5.84,5.84,0,0,0,1.26-3.31l0-.55,10.63,13.18a18.62,18.62,0,0,1,2.09,3.26l.23-.11-.25,0a18.3,18.3,0,0,1-1.87,6.17,9.44,9.44,0,0,1-5.93,4.9Z"/><path class="cls-7" d="M348.18,204.05l-1.09-2.54c-.15-.35-.31-.69-.48-1-.42,3.26-2,9.68-8,11.28s-7.76-1.62-8.22-3.36l.08.47a13.25,13.25,0,0,0,2.61,5.88l1.5,1.91a12.41,12.41,0,0,0,7.12,4.46,5.42,5.42,0,0,0,4-.68l.14-.08a5.45,5.45,0,0,0,2.56-3.93l.73-5.51A13,13,0,0,0,348.18,204.05Z"/><path class="cls-3" d="M348.18,204.05l.23-.1-1.09-2.54c-.15-.36-.32-.7-.49-1a.27.27,0,0,0-.27-.14.26.26,0,0,0-.2.22,18.3,18.3,0,0,1-1.87,6.17,9.44,9.44,0,0,1-5.93,4.9,11.71,11.71,0,0,1-3,.43,4.67,4.67,0,0,1-5-3.61.24.24,0,0,0-.29-.18.25.25,0,0,0-.19.29l.08.46a13.25,13.25,0,0,0,2.65,6l1.51,1.92a12.59,12.59,0,0,0,7.26,4.54,5.44,5.44,0,0,0,1.2.13,5.69,5.69,0,0,0,3-.83l.14-.08a5.71,5.71,0,0,0,2.68-4.12l.72-5.51a12.72,12.72,0,0,0,.12-1.74,13.42,13.42,0,0,0-1.08-5.26l-.23.1-.23.1a12.77,12.77,0,0,1,1,5.06,13.54,13.54,0,0,1-.11,1.68l-.73,5.51a5.21,5.21,0,0,1-2.44,3.75l-.14.08a5.21,5.21,0,0,1-2.71.76,5.76,5.76,0,0,1-1.09-.11,12.17,12.17,0,0,1-7-4.37l-1.5-1.92a12.82,12.82,0,0,1-2.56-5.77l-.08-.46-.25,0-.24.07a5.47,5.47,0,0,0,1.43,2.54,5.52,5.52,0,0,0,4,1.44,12.24,12.24,0,0,0,3.09-.45,9.94,9.94,0,0,0,6.24-5.14,18.47,18.47,0,0,0,1.92-6.35l-.24,0-.23.11c.17.34.33.67.48,1l1.09,2.54Z"/><path class="cls-3" d="M289.6,191.82c.37,1.72,1.15,3.29,1.47,4.92a9.67,9.67,0,0,1,.18,1.92,20.09,20.09,0,0,1-1.39,6.46,46.81,46.81,0,0,0-2,6.62,26.9,26.9,0,0,0-.35,4.82c0,1.19,0,2.38,0,3.57,0,.86,0,1.71-.07,2.55-.32,4.44-1.8,8.73-2.67,13.15a29.83,29.83,0,0,0-.61,5.74,15.87,15.87,0,0,0,1.71,7.58h0l3.89,6.73a.25.25,0,0,0,.43-.25l-3.89-6.73-.22.13.22-.12a15.38,15.38,0,0,1-1.65-7.34,29.76,29.76,0,0,1,.6-5.64c.86-4.38,2.35-8.69,2.67-13.21.07-.86.08-1.73.08-2.59,0-1.19,0-2.39,0-3.57a26.55,26.55,0,0,1,.34-4.73,47.64,47.64,0,0,1,2-6.54,20.42,20.42,0,0,0,1.42-6.63,10.52,10.52,0,0,0-.19-2c-.34-1.73-1.13-3.3-1.47-4.93a.25.25,0,0,0-.3-.19.24.24,0,0,0-.19.29Z"/><path class="cls-3" d="M292.26,217.93l-.25,0v.13a1.15,1.15,0,0,1-.19.64.59.59,0,0,1-.43.26h-.06a.64.64,0,0,1-.48-.24,1.21,1.21,0,0,1-.28-.66V218a1.08,1.08,0,0,1,.19-.64.57.57,0,0,1,.43-.26h.05a.64.64,0,0,1,.48.24,1.14,1.14,0,0,1,.28.66l.25,0,.25,0a1.65,1.65,0,0,0-.41-.94,1.12,1.12,0,0,0-.85-.41h-.1a1.13,1.13,0,0,0-.79.47,1.62,1.62,0,0,0-.28.93,1.28,1.28,0,0,0,0,.19,1.58,1.58,0,0,0,.4.93,1.14,1.14,0,0,0,.85.41h.11a1.11,1.11,0,0,0,.78-.47,1.61,1.61,0,0,0,.29-.93c0-.06,0-.12,0-.18Z"/><path class="cls-3" d="M294.31,207.52l-.23-.09a1,1,0,0,1-.83.69.43.43,0,0,1-.19,0,.54.54,0,0,1-.29-.25,1,1,0,0,1-.12-.47,1.19,1.19,0,0,1,.09-.44,1,1,0,0,1,.82-.68.58.58,0,0,1,.19,0,.61.61,0,0,1,.29.26.86.86,0,0,1,.12.47,1.35,1.35,0,0,1-.08.43l.23.09.24.09a1.87,1.87,0,0,0,.11-.61,1.45,1.45,0,0,0-.18-.72,1.06,1.06,0,0,0-.55-.47,1,1,0,0,0-.37-.07,1.45,1.45,0,0,0-1.29,1,1.75,1.75,0,0,0-.12.62,1.46,1.46,0,0,0,.19.72,1.08,1.08,0,0,0,.54.47,1,1,0,0,0,.37.07,1.49,1.49,0,0,0,1.3-1Z"/><path class="cls-3" d="M295.56,195.71h-.25v.07a1.14,1.14,0,0,1-.21.67.63.63,0,0,1-.46.27h0a.65.65,0,0,1-.48-.25,1.22,1.22,0,0,1-.26-.68v-.07a1.14,1.14,0,0,1,.21-.67.63.63,0,0,1,.46-.27h0a.65.65,0,0,1,.48.25,1.22,1.22,0,0,1,.26.68h.5a1.62,1.62,0,0,0-.38-1,1.11,1.11,0,0,0-.86-.43h-.05a1.13,1.13,0,0,0-.84.47,1.58,1.58,0,0,0-.31,1v.09a1.64,1.64,0,0,0,.38,1,1.11,1.11,0,0,0,.86.43h.05a1.16,1.16,0,0,0,.84-.47,1.65,1.65,0,0,0,.31-1v-.09Z"/><path class="cls-3" d="M291.21,229.44l-.25,0a1.07,1.07,0,0,1-.3.62.7.7,0,0,1-.48.23h-.09a.64.64,0,0,1-.39-.27,1.08,1.08,0,0,1-.17-.59,1.64,1.64,0,0,1,0-.22,1.21,1.21,0,0,1,.3-.62.68.68,0,0,1,.48-.22h.09a.55.55,0,0,1,.39.27,1,1,0,0,1,.17.59.75.75,0,0,1,0,.21l.25,0,.25.05c0-.1,0-.2,0-.3a1.55,1.55,0,0,0-.26-.88,1.11,1.11,0,0,0-.72-.48h-.17a1.18,1.18,0,0,0-.83.37,1.71,1.71,0,0,0-.44.89,1.57,1.57,0,0,0,.23,1.17,1.09,1.09,0,0,0,.72.48.5.5,0,0,0,.17,0,1.18,1.18,0,0,0,.84-.37,1.64,1.64,0,0,0,.44-.88Z"/><path class="cls-3" d="M289.37,240.24h-.25a1.18,1.18,0,0,1-.24.7.62.62,0,0,1-.49.25h0l0,.25v-.25a.62.62,0,0,1-.48-.26,1.16,1.16,0,0,1-.22-.69v0h0a1.18,1.18,0,0,1,.24-.7.62.62,0,0,1,.49-.25h0v0h0v0h0a.6.6,0,0,1,.47.26,1.1,1.1,0,0,1,.23.69v0h.5v0a1.62,1.62,0,0,0-.33-1,1.12,1.12,0,0,0-.86-.45V239l0-.25h0a1.15,1.15,0,0,0-.88.44,1.68,1.68,0,0,0-.35,1h0v0a1.62,1.62,0,0,0,.33,1,1.12,1.12,0,0,0,.86.45h0a1.13,1.13,0,0,0,.88-.44,1.68,1.68,0,0,0,.35-1h-.25Z"/><path class="cls-7" d="M340.67,264.6,334,249.13l-1.17-.3a28.92,28.92,0,0,0-5.59-.83l-2-5.13a47.15,47.15,0,0,0-18.06,3.58l2.11,4.85h0a74,74,0,0,0-11.17,5.51h0l-2.88-4.45c-2,1.18-3.73,2.33-5.22,3.36l2.83,4.47c-1.55,1.07-2.87,2.05-3.91,2.86L286.71,265l2,5Z"/><path class="cls-3" d="M340.67,264.6l.23-.09L334.24,249a.24.24,0,0,0-.17-.14l-1.17-.31h0a29.44,29.44,0,0,0-5.63-.83l0,.25.23-.09-2-5.13a.26.26,0,0,0-.23-.16h-.88a48.15,48.15,0,0,0-17.28,3.61.25.25,0,0,0-.14.13.23.23,0,0,0,0,.2l2.11,4.85a.25.25,0,0,0,.29.14h0l-.07-.24-.09-.24A76,76,0,0,0,298,256.59a.25.25,0,0,0-.09.34.26.26,0,0,0,.34.1h0a.26.26,0,0,0,.09-.36l-2.88-4.44a.24.24,0,0,0-.34-.08c-2,1.18-3.74,2.33-5.23,3.37a.24.24,0,0,0-.07.33c.82,1.31,2.07,3.27,2.83,4.47l.21-.13-.14-.2c-1.56,1.07-2.88,2.05-3.93,2.86h0l-2.25,1.93a.26.26,0,0,0-.07.29l2,5a.24.24,0,0,0,.25.16l52-5.35a.25.25,0,0,0,.21-.34l-.23.09,0-.24-51.79,5.32L287,265.06l2.12-1.82-.16-.19.15.19c1-.8,2.36-1.78,3.9-2.84a.25.25,0,0,0,.07-.34c-.76-1.2-2-3.17-2.83-4.47l-.21.13.14.21c1.49-1,3.24-2.18,5.21-3.35l-.13-.22-.21.14,2.88,4.44.21-.13-.13-.22h0l.13.22.12.21a75.53,75.53,0,0,1,11.14-5.49.24.24,0,0,0,.14-.31.24.24,0,0,0-.3-.16h0l.07.24.23-.1-2.11-4.85-.23.1.09.23a47.76,47.76,0,0,1,17.1-3.57h.87v-.25L325,243l2,5.13a.25.25,0,0,0,.22.16,29.07,29.07,0,0,1,5.54.82h0l1.06.27,6.61,15.36.23-.1,0-.24Z"/><path class="cls-3" d="M280.4,169.5l8.41-2.63a6.78,6.78,0,0,0,3.43-2.61,11.2,11.2,0,0,0,1.78-4,.25.25,0,0,0-.19-.3.25.25,0,0,0-.3.19,10.9,10.9,0,0,1-1.7,3.87,6.29,6.29,0,0,1-3.17,2.42L280.25,169a.25.25,0,0,0-.16.31.24.24,0,0,0,.31.16Z"/><path class="cls-3" d="M281.08,150.75a11.58,11.58,0,0,0,4.49-2.47.24.24,0,0,0,.08-.24.25.25,0,0,0-.17-.19,9.65,9.65,0,0,0-2.93-.52,8.64,8.64,0,0,0-1.73.19.25.25,0,0,0-.19.3.24.24,0,0,0,.29.19,7.89,7.89,0,0,1,1.63-.18,8.85,8.85,0,0,1,2.78.5l.08-.24-.17-.19a11,11,0,0,1-4.29,2.36.25.25,0,1,0,.13.49Z"/><path class="cls-3" d="M282.61,148.86c0,.49-.33.88-.71.87s-.67-.42-.65-.92a.81.81,0,0,1,.7-.87C282.33,148,282.62,148.36,282.61,148.86Z"/><path class="cls-3" d="M282.61,148.86h-.25a.82.82,0,0,1-.16.47.38.38,0,0,1-.28.16h0v0a.33.33,0,0,1-.27-.16.75.75,0,0,1-.14-.47v0h0a.76.76,0,0,1,.16-.47.36.36,0,0,1,.28-.16h0v0h0v0h0a.36.36,0,0,1,.27.16.82.82,0,0,1,.14.47v0h.5v0a1.33,1.33,0,0,0-.24-.77.87.87,0,0,0-.66-.36v.25l0-.25h0a.85.85,0,0,0-.68.35,1.29,1.29,0,0,0-.26.77h0v0a1.32,1.32,0,0,0,.23.77.9.9,0,0,0,.66.36h0v0h0v0h0a.85.85,0,0,0,.67-.35,1.3,1.3,0,0,0,.27-.77h-.25Z"/><path class="cls-3" d="M280.17,146a9.53,9.53,0,0,1,2.65-.37,9.77,9.77,0,0,1,3.27.56.24.24,0,0,0,.32-.15.25.25,0,0,0-.15-.32,10.32,10.32,0,0,0-3.44-.59,10,10,0,0,0-2.78.39.23.23,0,0,0-.17.3.24.24,0,0,0,.3.18Z"/><path class="cls-3" d="M278.88,153.73h0a1,1,0,0,1,.82.47,1,1,0,0,1,.12.47,1,1,0,0,1-.12.48.25.25,0,0,0,.43.25,1.42,1.42,0,0,0,.19-.73,1.42,1.42,0,0,0-1.44-1.44h0a.25.25,0,1,0,0,.5Z"/><path class="cls-3" d="M278.73,155.16c-.06-.19-.34-.49-.53-.43a4,4,0,0,0-1.84,1.12A17.84,17.84,0,0,0,278.73,155.16Z"/><path class="cls-3" d="M278.73,155.16l.24-.07a.93.93,0,0,0-.26-.39.68.68,0,0,0-.46-.23l-.12,0,.07.24-.07-.24a4.2,4.2,0,0,0-2,1.19.25.25,0,0,0,.24.42,18.9,18.9,0,0,0,2.41-.7.26.26,0,0,0,.15-.31l-.24.07-.09-.23a18,18,0,0,1-2.34.68l.06.24.18.17a3.69,3.69,0,0,1,1.73-1.05h0l0-.09V155h0l0-.09V155h0v0l.05,0,.13.13a.31.31,0,0,1,.07.12l.24-.08-.09-.23Z"/><line class="cls-4" x1="318.8" y1="172.61" x2="323.78" y2="172.09"/><path class="cls-3" d="M318.83,172.85l5-.51a.23.23,0,0,0,.22-.27.25.25,0,0,0-.27-.23l-5,.52a.25.25,0,1,0,.05.49"/><line class="cls-4" x1="316.95" y1="174.98" x2="322.59" y2="175.2"/><path class="cls-3" d="M316.94,175.23l5.64.22a.25.25,0,0,0,.26-.24.25.25,0,0,0-.24-.26l-5.64-.22a.25.25,0,0,0-.26.24.25.25,0,0,0,.24.26"/><line class="cls-4" x1="315.43" y1="177.9" x2="320.62" y2="178.4"/><path class="cls-3" d="M315.4,178.15l5.19.49a.25.25,0,1,0,.05-.49l-5.19-.5a.25.25,0,0,0-.05.5"/><path class="cls-3" d="M282.6,191.74a15.9,15.9,0,0,1-7.44,12.42.26.26,0,0,0-.08.35.24.24,0,0,0,.34.08,16.42,16.42,0,0,0,7.68-12.82.25.25,0,0,0-.24-.26.24.24,0,0,0-.26.23Z"/><path class="cls-3" d="M276.16,160.16a2.68,2.68,0,0,1,1.19-.25,8.39,8.39,0,0,1,1.75.25,8.19,8.19,0,0,0,1.86.27,3.3,3.3,0,0,0,1.41-.29.26.26,0,0,0,.11-.34.25.25,0,0,0-.33-.11,2.82,2.82,0,0,1-1.19.24,8.3,8.3,0,0,1-1.75-.25,8.19,8.19,0,0,0-1.86-.27,3.17,3.17,0,0,0-1.41.3.25.25,0,0,0-.11.33.24.24,0,0,0,.33.12Z"/><path class="cls-6" d="M284.75,133.71s9.09-7.19,24-.31a1.66,1.66,0,0,1,.79,2.21L306,143Z"/><path class="cls-3" d="M284.75,133.71l.16.2,0,0a19.52,19.52,0,0,1,11.27-3.2,29.57,29.57,0,0,1,12.46,3,1.39,1.39,0,0,1,.8,1.26,1.33,1.33,0,0,1-.14.61l-3.43,7.16-21.06-9.18-.1.23.16.2-.16-.2-.1.23,21.28,9.27a.26.26,0,0,0,.33-.12l3.53-7.37a1.9,1.9,0,0,0-.9-2.55,30.2,30.2,0,0,0-12.67-3c-7.39,0-11.6,3.32-11.62,3.34a.26.26,0,0,0-.1.23.28.28,0,0,0,.15.2Z"/><path class="cls-3" d="M296.7,133l-5.39-1.44a13.12,13.12,0,0,0-14.81,6.19l-.7,1.24v0a12.83,12.83,0,0,1,3.74.42l11.81,3.15c-.55,1.54-2.2,2.41-3.12,3.54a5.46,5.46,0,0,0-1.15,3.35,7.49,7.49,0,0,0,0,.82,8.11,8.11,0,0,0,1.75,4,10.51,10.51,0,0,0,9.25,3.9c1.24-.13,2.44-.48,3.67-.7a7.35,7.35,0,0,1,3.7.14,4.74,4.74,0,0,1,2.95,5l1.55-8.74A18.32,18.32,0,0,0,296.7,133Z"/><path class="cls-3" d="M296.7,133l.06-.24-5.38-1.44a13.36,13.36,0,0,0-15.1,6.31l-.7,1.24a.27.27,0,0,0,0,.23l0,0a.24.24,0,0,0,.23.13h.46a12.56,12.56,0,0,1,3.21.41l11.81,3.15.06-.24-.23-.09a4.7,4.7,0,0,1-1.36,1.83,15.87,15.87,0,0,0-1.72,1.65,5.67,5.67,0,0,0-1.21,3.5v.15a5.32,5.32,0,0,0,0,.69,8.3,8.3,0,0,0,1.79,4.14,10.85,10.85,0,0,0,8.4,4.05,9.46,9.46,0,0,0,1.07-.06c1.27-.13,2.48-.49,3.69-.7a10,10,0,0,1,1.72-.17,5.21,5.21,0,0,1,1.85.3,4.51,4.51,0,0,1,2.84,4.13,4,4,0,0,1-.05.6.26.26,0,0,0,.21.29.25.25,0,0,0,.28-.21l1.56-8.74a19.19,19.19,0,0,0,.29-3.27,18.57,18.57,0,0,0-13.77-17.92l-.06.24-.06.24a18.07,18.07,0,0,1,13.11,20.62l-1.56,8.75.25,0,.25,0a5.31,5.31,0,0,0,.05-.68,5,5,0,0,0-3.17-4.6,5.82,5.82,0,0,0-2-.33,10.76,10.76,0,0,0-1.8.17c-1.25.22-2.45.58-3.66.71-.34,0-.68.05-1,.05a10.3,10.3,0,0,1-8-3.86,7.8,7.8,0,0,1-1.7-3.88c0-.21,0-.42,0-.64v-.14a5.21,5.21,0,0,1,1.1-3.2,17.29,17.29,0,0,1,1.67-1.59,5.24,5.24,0,0,0,1.49-2,.23.23,0,0,0,0-.2.27.27,0,0,0-.15-.13l-11.81-3.14a13.2,13.2,0,0,0-3.34-.43h-.48V139l.23-.11,0,0-.22.11.21.12.71-1.23a12.87,12.87,0,0,1,14.53-6.08l5.39,1.44Z"/><path class="cls-7" d="M289,148.83c0,.18,0,.36,0,.53a6.93,6.93,0,0,0,2.68,5.32,8.8,8.8,0,0,0,5.4,1.76c.28,0,.57,0,.85,0,1.8-.16,3.48-.76,5.19-.88l.53,0a6,6,0,0,1,2.25.4,3.52,3.52,0,0,1,1.67,1.32.26.26,0,0,0,.35.07A.24.24,0,0,0,308,157a4,4,0,0,0-1.9-1.51,6.51,6.51,0,0,0-2.44-.44l-.57,0c-1.79.14-3.48.74-5.19.88a7.32,7.32,0,0,1-.81,0,8.29,8.29,0,0,1-5.09-1.65,6.46,6.46,0,0,1-2.49-4.93c0-.16,0-.32,0-.48a.25.25,0,0,0-.23-.27.25.25,0,0,0-.27.22Z"/><line class="cls-4" x1="276.69" y1="150.87" x2="274.2" y2="154.91"/><path class="cls-3" d="M276.48,150.74l-2.49,4a.25.25,0,0,0,.43.27l2.48-4a.24.24,0,0,0-.08-.34.24.24,0,0,0-.34.08"/><path class="cls-7" d="M275.82,139.22h.46a12.56,12.56,0,0,1,3.21.41l11.81,3.15a.25.25,0,0,0,.13-.49l-11.81-3.14a13.2,13.2,0,0,0-3.34-.43h-.48a.27.27,0,0,0-.24.26.25.25,0,0,0,.26.24Z"/><line class="cls-4" x1="333.09" y1="214.75" x2="321.84" y2="202.13"/><path class="cls-3" d="M333.28,214.58,322,202a.25.25,0,0,0-.37.33l11.26,12.62a.23.23,0,0,0,.35,0,.25.25,0,0,0,0-.35"/><path class="cls-3" d="M313.59,223.64C298.82,235,295,252.28,295,252.31a.24.24,0,0,0,.14.28.25.25,0,0,0,.31-.08l.1-.14c1-1.37,9.67-12.6,21.47-17.62a.26.26,0,0,0,.13-.33.26.26,0,0,0-.33-.13c-12.75,5.44-21.77,17.91-21.78,17.93l.2.14.25.06s0-.07,0-.19c.46-1.92,4.65-17.72,18.34-28.2a.25.25,0,0,0,.05-.35.24.24,0,0,0-.35,0Z"/><path class="cls-3" d="M319.13,221.2l3.07-1.78A.25.25,0,0,0,322,219l-3.07,1.78a.25.25,0,0,0,.25.43Z"/><path class="cls-6" d="M320.36,183.72l0-.1h0a4.64,4.64,0,0,0-2.55-2,4.57,4.57,0,0,0-3.26-.12h0a3.32,3.32,0,0,0-2.05,4s.39,1.52,2.83,2.4c1.69.62,3.08.55,4-.2a3.91,3.91,0,0,0,1.21-3.6A1.3,1.3,0,0,0,320.36,183.72Z"/><path class="cls-3" d="M320.36,183.72l.24-.08,0-.1a.23.23,0,0,0-.15-.15h0l-.09.24.22-.12a4.82,4.82,0,0,0-2.68-2.11,6,6,0,0,0-2-.39,3.53,3.53,0,0,0-1.42.27l.1.23.09-.24h0a.25.25,0,0,0-.17,0,4,4,0,0,0-1.18.73,3.24,3.24,0,0,0-1.19,2.5,3.85,3.85,0,0,0,.17,1.11l.24-.07-.25.06s.47,1.67,3,2.58a6.62,6.62,0,0,0,2.18.43,3.23,3.23,0,0,0,2.07-.67h0a4.07,4.07,0,0,0,.69-.83,4,4,0,0,0,.69-2.18,3.56,3.56,0,0,0-.1-.84l-.24.06.25,0a2,2,0,0,0-.15-.47l-.23.1.24-.08-.24.08-.22.1a1.69,1.69,0,0,1,.1.35v0a3.69,3.69,0,0,1,.08.72,3.86,3.86,0,0,1-1,2.45l-.14.14,0,0h0l.16.19-.16-.19a2.68,2.68,0,0,1-1.75.56,5.9,5.9,0,0,1-2-.4,5,5,0,0,1-2.23-1.46,2.92,2.92,0,0,1-.37-.57,1.44,1.44,0,0,0-.07-.16v0h0a3.28,3.28,0,0,1-.15-1,2.74,2.74,0,0,1,1-2.12,3.65,3.65,0,0,1,.71-.49l.24-.12.06,0h0l-.09-.24-.09.24h0a.28.28,0,0,0,.18,0,3,3,0,0,1,1.22-.23,5.45,5.45,0,0,1,1.85.36,4.37,4.37,0,0,1,2.42,1.87.22.22,0,0,0,.13.12h0l.08-.24-.23.08,0,.09v0Z"/><path class="cls-3" d="M313.44,184.27a2.9,2.9,0,0,1,1.27-.25,5.37,5.37,0,0,1,1.88.36,4.24,4.24,0,0,1,2.46,2,.26.26,0,0,0,.33.13.25.25,0,0,0,.13-.33,4.74,4.74,0,0,0-2.75-2.22,5.79,5.79,0,0,0-2.05-.39,3.49,3.49,0,0,0-1.5.3.25.25,0,1,0,.23.45Z"/><path class="cls-3" d="M245.9,293a4.48,4.48,0,0,0,4.92,4l126.41-13a4.48,4.48,0,0,0,4-4.92l-4.88-47.45-131.3,53.11Z"/><path class="cls-3" d="M245.9,293l-.25,0a4.74,4.74,0,0,0,4.71,4.26l.49,0,126.4-13a4.74,4.74,0,0,0,4.26-4.71,3.87,3.87,0,0,0,0-.48l-4.88-47.46a.28.28,0,0,0-.12-.19.24.24,0,0,0-.22,0L245,284.55a.24.24,0,0,0-.15.25l.85,8.26.25,0,.25,0-.83-8.07L376.14,232,381,279.15a3.11,3.11,0,0,1,0,.43,4.24,4.24,0,0,1-3.81,4.21l-126.4,13-.44,0a4.24,4.24,0,0,1-4.21-3.81Z"/><path class="cls-10" d="M356.29,254.31l3,4.62,5.48.28a1.42,1.42,0,0,1,1,2.32l-3.47,4.24,1.42,5.3a1.42,1.42,0,0,1-1.88,1.69l-5.12-2-4.6,3a1.41,1.41,0,0,1-2.18-1.27l.31-5.48L346,263.56a1.42,1.42,0,0,1,.54-2.47l5.3-1.4,2-5.12A1.42,1.42,0,0,1,356.29,254.31Z"/><path class="cls-10" d="M356.29,254.31l-.21.14,3,4.61a.25.25,0,0,0,.19.12l5.48.28a1.19,1.19,0,0,1,.81.38,1.21,1.21,0,0,1,.3.79,1.17,1.17,0,0,1-.26.74l-3.48,4.24a.27.27,0,0,0,0,.23l1.42,5.3a1.1,1.1,0,0,1,0,.31,1.13,1.13,0,0,1-.35.82,1.16,1.16,0,0,1-.82.34,1.3,1.3,0,0,1-.42-.08l-5.12-2a.24.24,0,0,0-.22,0l-4.6,3a1.16,1.16,0,0,1-1.45-.14,1.12,1.12,0,0,1-.36-.83v-.07h0l.31-5.47a.27.27,0,0,0-.09-.21l-4.27-3.45a1.17,1.17,0,0,1,.44-2l5.31-1.4a.22.22,0,0,0,.16-.15l2-5.12a1.15,1.15,0,0,1,1.09-.75,1.14,1.14,0,0,1,1,.54l.21-.14.21-.13a1.64,1.64,0,0,0-1.4-.77,1.66,1.66,0,0,0-1.56,1.07l-1.92,5-5.18,1.37a1.66,1.66,0,0,0-.62,2.9l4.16,3.38-.3,5.35h0v.11a1.66,1.66,0,0,0,.51,1.19,1.68,1.68,0,0,0,1.16.47,1.72,1.72,0,0,0,.91-.27l4.49-2.92,5,1.94a1.61,1.61,0,0,0,.6.12A1.66,1.66,0,0,0,364,271l-1.39-5.18,3.39-4.15a1.62,1.62,0,0,0,.38-1.05,1.67,1.67,0,0,0-1.58-1.67l-5.35-.28-2.9-4.5Z"/><path class="cls-3" d="M280.51,271.59l103.92,23.86a.26.26,0,0,0,.3-.19.25.25,0,0,0-.19-.3L280.62,271.1a.26.26,0,0,0-.3.19.25.25,0,0,0,.19.3"/><path class="cls-3" d="M360.13,299.59,259.79,266.32a.25.25,0,0,0-.31.16.25.25,0,0,0,.16.32L360,300.06a.25.25,0,0,0,.31-.16.24.24,0,0,0-.16-.31"/><path class="cls-7" d="M311.58,284l7.91,2.62a.25.25,0,0,0,.32-.16.25.25,0,0,0-.16-.31l-7.91-2.63a.26.26,0,0,0-.32.16.26.26,0,0,0,.16.32"/><path class="cls-3" d="M244.6,315.7l109.6-14.83a.26.26,0,0,0,.22-.28.26.26,0,0,0-.29-.22L244.54,315.21a.25.25,0,1,0,.06.49"/><line class="cls-11" x1="220.24" y1="99.07" x2="350.32" y2="75.44"/><path class="cls-3" d="M220.29,99.31,350.36,75.69a.25.25,0,0,0,.2-.29.24.24,0,0,0-.29-.2L220.2,98.82a.25.25,0,0,0-.2.29.24.24,0,0,0,.29.2"/><path class="cls-3" d="M387.16,259.74,220.43,157l-7.18-56.18a.24.24,0,0,0-.28-.21.25.25,0,0,0-.21.28L220,157.15a.25.25,0,0,0,.12.18L386.89,260.17a.26.26,0,0,0,.35-.09.26.26,0,0,0-.08-.34Z"/><path class="cls-5" d="M335.63,226.71l-84.95-52.36a.24.24,0,0,0-.34.08.26.26,0,0,0,.08.35l84.94,52.36a.25.25,0,0,0,.27-.43"/><path class="cls-7" d="M359,241.7l14.22,8.77a.27.27,0,0,0,.35-.08.26.26,0,0,0-.09-.35l-14.21-8.76a.26.26,0,0,0-.35.08.25.25,0,0,0,.08.34"/><path class="cls-2" d="M257.18,206c-12.47,3.56-23.31,8.87-31.18,14.8a1.85,1.85,0,0,0-.72,1.74l4.27,31.5A1.84,1.84,0,0,0,231,255.6c10.6,1.9,24.67,1,39.4-3.24,17.05-4.87,31-13,38.6-21.52l-.66-23.93C298.36,200.64,278.45,199.89,257.18,206Z"/><path class="cls-3" d="M257.18,206l-.07-.24c-12.5,3.57-23.35,8.89-31.26,14.84a2.09,2.09,0,0,0-.84,1.68,2.64,2.64,0,0,0,0,.29l4.27,31.51a2.11,2.11,0,0,0,1.7,1.8,65.82,65.82,0,0,0,11.47.94,103.51,103.51,0,0,0,28-4.19c17.09-4.88,31.11-13,38.71-21.6a.26.26,0,0,0,.07-.17l-.66-23.92a.26.26,0,0,0-.12-.21c-5.41-3.39-13.62-5.16-23.35-5.17a103.61,103.61,0,0,0-28.05,4.2l.07.24.07.24A103,103,0,0,1,285.16,202c9.67,0,17.8,1.78,23.09,5.09l.13-.21h-.25l.66,23.92H309l-.19-.17c-7.51,8.46-21.46,16.59-38.48,21.45a103,103,0,0,1-27.9,4.17,64.68,64.68,0,0,1-11.38-.94,1.61,1.61,0,0,1-1.3-1.37l-4.26-31.5a1.79,1.79,0,0,1,0-.23,1.58,1.58,0,0,1,.64-1.28c7.84-5.9,18.65-11.21,31.1-14.76Z"/><path class="cls-3" d="M258.35,210.06l-.07-.24c-14.2,4.06-25.41,10.15-32.64,16.35a.27.27,0,0,0-.09.22l3.32,24.5a.23.23,0,0,0,.19.21,56.28,56.28,0,0,0,13.4,1.46,99.1,99.1,0,0,0,26.88-4.05,97.94,97.94,0,0,0,25.59-11.17c6.75-4.3,11.59-8.93,14.13-13.22a.2.2,0,0,0,0-.13l-.32-11.57a.28.28,0,0,0-.07-.17c-2-2-5.07-3.62-9.07-4.74a54.49,54.49,0,0,0-14.49-1.74,99.09,99.09,0,0,0-26.87,4l.07.24.07.24a98.45,98.45,0,0,1,26.73-4A53.85,53.85,0,0,1,299.51,208c3.94,1.1,7,2.69,8.84,4.6l.18-.17h-.25L308.6,224h.25l-.22-.13c-2.48,4.18-7.26,8.78-14,13a105,105,0,0,1-52.21,15.14,56.27,56.27,0,0,1-13.28-1.44l-.06.24.25,0-3.32-24.5-.25,0,.16.19c7.16-6.15,18.32-12.21,32.46-16.25Z"/><path class="cls-10" d="M236.91,227.79c-3,.85-5.62,3.59-4.65,7,.83,2.88,3.56,3.46,5.55,3.88.94.19,1.9.4,2,.77.27.93-1.16,1.35-1.18,1.36a5.42,5.42,0,0,1-3.72-.33.45.45,0,0,0-.34,0,.39.39,0,0,0-.25.22L232.85,244a.43.43,0,0,0,.15.53,8.52,8.52,0,0,0,6.81.59c3.44-1,5.48-4.06,4.64-7s-3.55-3.45-5.54-3.85c-1-.19-1.94-.38-2.06-.79-.2-.69.76-1.22,1.23-1.35a5.55,5.55,0,0,1,3.33.14.47.47,0,0,0,.33,0A.43.43,0,0,0,242,232l1.23-3.36a.43.43,0,0,0-.17-.51C242.93,228.06,240.67,226.72,236.91,227.79Z"/><path class="cls-3" d="M236.91,227.79l-.07-.24a7.92,7.92,0,0,0-3.5,2.1,5.41,5.41,0,0,0-1.53,3.7,5.14,5.14,0,0,0,.21,1.48,4.77,4.77,0,0,0,2.46,3,12.06,12.06,0,0,0,3.28,1c.47.1.94.2,1.29.31a2.05,2.05,0,0,1,.41.18l.1.08,0,0a1.11,1.11,0,0,1,0,.17.63.63,0,0,1-.13.35,1.59,1.59,0,0,1-.55.4,1.18,1.18,0,0,1-.25.1l-.07,0h0l.07.24-.07-.24a4.86,4.86,0,0,1-1.32.18,5.49,5.49,0,0,1-1.59-.24l-.46-.17-.13-.06h0l-.11.22.11-.22a.72.72,0,0,0-.32-.08.52.52,0,0,0-.21,0h0a.65.65,0,0,0-.4.36l-1.48,3.32a.66.66,0,0,0-.06.27.7.7,0,0,0,.3.57,7.85,7.85,0,0,0,4.11,1,10.73,10.73,0,0,0,2.9-.42c3-.86,5-3.28,5-5.9a4.9,4.9,0,0,0-.2-1.41,4.77,4.77,0,0,0-2.46-3,11.74,11.74,0,0,0-3.27-1c-.5-.1-1-.2-1.33-.31a1.82,1.82,0,0,1-.41-.18.28.28,0,0,1-.13-.13v-.11a.55.55,0,0,1,.09-.29,1.61,1.61,0,0,1,.45-.4,2.28,2.28,0,0,1,.52-.24,4.79,4.79,0,0,1,1.35-.18,5.62,5.62,0,0,1,1.31.15l.38.11.1,0h0a.75.75,0,0,0,.26.05.81.81,0,0,0,.27-.05h0a.74.74,0,0,0,.37-.39l1.23-3.36a.66.66,0,0,0,0-.23.7.7,0,0,0-.32-.58,6.9,6.9,0,0,0-3.43-.78,10.54,10.54,0,0,0-2.89.42l.07.24.07.24a9.91,9.91,0,0,1,2.75-.4,6.37,6.37,0,0,1,3.17.71.18.18,0,0,1,.08.15v.06l-1.23,3.36-.1.1h-.14l-.09.23.1-.23h0a5.79,5.79,0,0,0-2-.34,5.35,5.35,0,0,0-1.48.2,2.74,2.74,0,0,0-.87.44,1.9,1.9,0,0,0-.39.41,1.06,1.06,0,0,0-.17.56,1.07,1.07,0,0,0,0,.25.77.77,0,0,0,.34.41,3.13,3.13,0,0,0,.84.33l1.08.23a11.7,11.7,0,0,1,3.13.95,4.27,4.27,0,0,1,2.21,2.72,4.64,4.64,0,0,1,.18,1.27,6,6,0,0,1-4.65,5.42,10.16,10.16,0,0,1-2.77.4,7.26,7.26,0,0,1-3.83-1,.18.18,0,0,1-.08-.15l0-.07,1.47-3.31a.18.18,0,0,1,.11-.1h.05l.09,0h0a5.76,5.76,0,0,0,2.44.54,5.17,5.17,0,0,0,1.46-.2h0l0-.12,0,.12h0l0-.12,0,.12a3.38,3.38,0,0,0,.68-.31,2.23,2.23,0,0,0,.47-.41,1.11,1.11,0,0,0,.23-.65,1,1,0,0,0,0-.3.69.69,0,0,0-.34-.39,3.06,3.06,0,0,0-.83-.32c-.32-.09-.68-.16-1-.24a11.53,11.53,0,0,1-3.14-1,4.28,4.28,0,0,1-2.22-2.71,5,5,0,0,1-.19-1.35,4.91,4.91,0,0,1,1.4-3.36,7.26,7.26,0,0,1,3.27-2Z"/><path class="cls-10" d="M254,222.91a10.1,10.1,0,0,0-6.74,12.17c1.23,4.29,5.23,6.39,9.74,5.1a10.19,10.19,0,0,0,6.72-12.32C262.49,223.66,258.49,221.62,254,222.91Zm5.07,6.53a5.33,5.33,0,0,1-3.25,6.46,3.07,3.07,0,0,1-3.92-2.38,5.17,5.17,0,0,1,3.28-6.32A3,3,0,0,1,259,229.44Z"/><path class="cls-3" d="M254,222.91l-.07-.24a10.41,10.41,0,0,0-7.27,9.88,9.65,9.65,0,0,0,.36,2.6,7.82,7.82,0,0,0,2.77,4.16,7.58,7.58,0,0,0,4.62,1.5,9.68,9.68,0,0,0,2.66-.39,10.44,10.44,0,0,0,7.26-10,9.77,9.77,0,0,0-.37-2.67,7.55,7.55,0,0,0-2.72-4.06,7.67,7.67,0,0,0-4.59-1.45,10.15,10.15,0,0,0-2.72.39l.07.24.07.24a9.57,9.57,0,0,1,2.58-.37,7.1,7.1,0,0,1,4.29,1.36,7,7,0,0,1,2.54,3.79,9.09,9.09,0,0,1,.35,2.53,9.94,9.94,0,0,1-6.9,9.48,9,9,0,0,1-2.52.37,7,7,0,0,1-4.32-1.4,7.27,7.27,0,0,1-2.59-3.9,9,9,0,0,1-.34-2.46,9.92,9.92,0,0,1,6.91-9.4Zm5.07,6.53-.25.07a4.87,4.87,0,0,1,.2,1.39,5.33,5.33,0,0,1-1,3,4.39,4.39,0,0,1-2.28,1.71,3.13,3.13,0,0,1-.88.13,2.57,2.57,0,0,1-1.68-.61,3.44,3.44,0,0,1-1.06-1.73,5,5,0,0,1-.19-1.36,4.89,4.89,0,0,1,3.3-4.65,3.29,3.29,0,0,1,.9-.14,2.53,2.53,0,0,1,1.65.58,3.14,3.14,0,0,1,1,1.63l.25-.07.24-.06a3.74,3.74,0,0,0-1.19-1.89,3.07,3.07,0,0,0-2-.69,3.56,3.56,0,0,0-1,.16,5.39,5.39,0,0,0-3.66,5.13,5.65,5.65,0,0,0,.21,1.5,4,4,0,0,0,1.22,2,3.12,3.12,0,0,0,2,.72,3.58,3.58,0,0,0,1-.15,4.87,4.87,0,0,0,2.55-1.9,5.81,5.81,0,0,0,1.08-3.34,5.74,5.74,0,0,0-.21-1.52Z"/><path class="cls-10" d="M278.6,229.34,272.8,231l-1.07-12.34a.44.44,0,0,0-.18-.32.46.46,0,0,0-.36-.06l-3.77,1.08a.42.42,0,0,0-.31.45l1.41,16.27a.44.44,0,0,0,.18.32.46.46,0,0,0,.36.06l10.05-2.88a.42.42,0,0,0,.31-.44l-.28-3.42a.46.46,0,0,0-.18-.32A.42.42,0,0,0,278.6,229.34Z"/><path class="cls-3" d="M278.6,229.34l-.07-.24L273,230.67l-1-12a.65.65,0,0,0-.29-.49.66.66,0,0,0-.38-.12.62.62,0,0,0-.19,0h0l-3.77,1.08a.68.68,0,0,0-.49.65v.06l.25,0-.25,0,1.41,16.27a.68.68,0,0,0,.67.62l.19,0h0l10.05-2.88a.68.68,0,0,0,.49-.65v0h0l-.28-3.42a.69.69,0,0,0-.29-.5.66.66,0,0,0-.38-.12.58.58,0,0,0-.19,0h0l.07.24.07.24h.05l.1,0a.17.17,0,0,1,.07.13l.28,3.42h0a.17.17,0,0,1-.13.17L269,236.21h-.05l-.1,0a.17.17,0,0,1-.07-.13l-1.41-16.27h0a.17.17,0,0,1,.13-.17l3.77-1.08h.05l.1,0a.17.17,0,0,1,.07.13L272.55,231a.23.23,0,0,0,.11.18.25.25,0,0,0,.21,0l5.8-1.65h0Z"/><path class="cls-10" d="M286.57,213.88l-4.94,1.41a.42.42,0,0,0-.31.45L282.75,232a.42.42,0,0,0,.19.31.43.43,0,0,0,.35.06l6-1.72A9.76,9.76,0,0,0,296,218.23C294.81,214.16,291.29,212.53,286.57,213.88Zm4.8,6c.89,3.09-.5,5.91-3.28,6.7l-1.06.31-.73-8.59,1.21-.35C288.91,217.59,290.71,217.6,291.37,219.92Z"/><path class="cls-3" d="M286.57,213.88l-.07-.24-4.94,1.41a.68.68,0,0,0-.49.65v.06h0L282.5,232a.72.72,0,0,0,.29.5.77.77,0,0,0,.39.11.55.55,0,0,0,.18,0h0l6-1.72a9.86,9.86,0,0,0,7.28-9.63,11.21,11.21,0,0,0-.44-3.1,6.94,6.94,0,0,0-2.41-3.72,6.81,6.81,0,0,0-4.17-1.29,11.37,11.37,0,0,0-3.14.48l.07.24.07.24a10.85,10.85,0,0,1,3-.46,6.23,6.23,0,0,1,3.86,1.19,6.39,6.39,0,0,1,2.24,3.45,11.14,11.14,0,0,1,.42,3,9.36,9.36,0,0,1-6.92,9.15l-6,1.72h-.05l-.1,0A.17.17,0,0,1,283,232l-1.43-16.27h0a.17.17,0,0,1,.13-.17l4.94-1.41Zm4.8,6-.24.07a6.15,6.15,0,0,1,.26,1.76,4.63,4.63,0,0,1-3.37,4.63l-.76.22-.7-8.08,1-.29a4.56,4.56,0,0,1,1.22-.18,2.26,2.26,0,0,1,1.36.4,2.67,2.67,0,0,1,1,1.54l.24-.07.24-.07a3.17,3.17,0,0,0-1.16-1.81,2.71,2.71,0,0,0-1.65-.49,5,5,0,0,0-1.36.2l-1.21.35a.24.24,0,0,0-.18.26l.73,8.59a.27.27,0,0,0,.11.18.26.26,0,0,0,.21,0l1.06-.31a5.13,5.13,0,0,0,3.73-5.11,6.78,6.78,0,0,0-.28-1.9Z"/><path class="cls-2" d="M308.38,206.91s-4.73.16-4.49,7.37c.22,6.87,5.15,16.56,5.15,16.56Z"/><path class="cls-3" d="M308.38,206.91v-.25a4.53,4.53,0,0,0-2.39,1c-1.19.92-2.35,2.73-2.35,6.13,0,.17,0,.35,0,.53a36.89,36.89,0,0,0,2.67,10.94c1.27,3.29,2.5,5.72,2.5,5.72a.26.26,0,0,0,.29.13.26.26,0,0,0,.19-.25l-.66-23.92a.25.25,0,0,0-.08-.18.29.29,0,0,0-.18-.07v.25h-.25l.66,23.92H309l.22-.12s-.08-.14-.21-.42a69.86,69.86,0,0,1-2.74-6.52,33.15,33.15,0,0,1-2.17-9.51c0-.17,0-.34,0-.51,0-3.3,1.09-4.91,2.15-5.74a4.44,4.44,0,0,1,1.46-.74l.48-.1h.17v-.25h0Z"/><path class="cls-7" d="M285.65,271.59l59.82,13.74a.25.25,0,0,0,.3-.19.25.25,0,0,0-.19-.3L285.76,271.1a.25.25,0,0,0-.3.19.25.25,0,0,0,.19.3"/><path class="cls-3" d="M217.89,93.62l5.32,8.56-10.94-8.09a.25.25,0,1,0-.3.4l12,8.87a.26.26,0,0,0,.32,0,.24.24,0,0,0,0-.31l-6-9.68a.24.24,0,0,0-.34-.08.26.26,0,0,0-.08.35Z"/><path class="cls-7" d="M318.3,188.1c-.32,1-1.81,1.29-3.34.78s-2.52-1.69-2.2-2.63,1.81-1.29,3.34-.78S318.61,187.16,318.3,188.1Z"/><path class="cls-3" d="M318.3,188.1l-.24-.08a1.05,1.05,0,0,1-.57.61,2.57,2.57,0,0,1-1.14.24,4.21,4.21,0,0,1-1.31-.23,3.91,3.91,0,0,1-1.54-.91,1.71,1.71,0,0,1-.55-1.12.86.86,0,0,1,0-.28,1.11,1.11,0,0,1,.58-.61,2.54,2.54,0,0,1,1.14-.23,4.28,4.28,0,0,1,1.31.22,3.88,3.88,0,0,1,1.53.92,1.67,1.67,0,0,1,.56,1.11,1,1,0,0,1-.05.29l.24.07.24.08a1.62,1.62,0,0,0,.07-.44,2.21,2.21,0,0,0-.7-1.46,4.31,4.31,0,0,0-1.73-1,4.68,4.68,0,0,0-1.47-.25,3,3,0,0,0-1.37.29,1.56,1.56,0,0,0-.82.89,1.31,1.31,0,0,0-.07.44,2.15,2.15,0,0,0,.7,1.47,4.47,4.47,0,0,0,1.73,1,4.59,4.59,0,0,0,1.47.25,3.14,3.14,0,0,0,1.37-.29,1.64,1.64,0,0,0,.82-.9Z"/><ellipse class="cls-7" cx="298.15" cy="148.4" rx="4.34" ry="3.91"/><path class="cls-3" d="M302.49,148.4h-.25a3.47,3.47,0,0,1-1.19,2.58,4.43,4.43,0,0,1-5.8,0,3.39,3.39,0,0,1,0-5.16,4.43,4.43,0,0,1,5.8,0,3.46,3.46,0,0,1,1.19,2.58h.5a4,4,0,0,0-1.35-3,4.94,4.94,0,0,0-6.48,0,3.9,3.9,0,0,0,0,5.9,4.94,4.94,0,0,0,6.48,0,4,4,0,0,0,1.35-2.95Z"/><path class="cls-7" d="M298.4,151.26a3.39,3.39,0,0,1-3.55-3.19"/><path class="cls-3" d="M298.4,151a3.46,3.46,0,0,1-2.34-.87,2.78,2.78,0,0,1-1-2.07.25.25,0,0,0-.5,0,3.29,3.29,0,0,0,1.12,2.44,4,4,0,0,0,2.68,1,.25.25,0,0,0,0-.5Z"/></svg>