<svg width="600" height="400" viewBox="0 0 600 400" fill="none" xmlns="http://www.w3.org/2000/svg">
<g clip-path="url(#clip0)">
<rect width="600" height="400" fill="white"/>
<path d="M600 0H0V400H600V0Z" fill="#04C604"/>
<path d="M189.507 305.198C189.507 305.198 154.485 313.564 149.813 313.386C145.14 313.208 129.432 325.624 129.432 325.624C129.432 325.624 129.921 333.367 137.086 333.055C144.25 332.744 166.367 336.927 169.526 337.906C172.686 338.885 192.31 336.927 192.31 336.927" fill="#039503"/>
<path d="M232.805 316.857L231.737 302.795L236.721 296.342L249.492 302.439L241.66 315.789L232.805 316.857Z" fill="#CDF4CD" stroke="black" stroke-width="0.5" stroke-miterlimit="10"/>
<path d="M188.661 302.973L192.443 296.788L231.737 302.795L232.805 316.857C232.805 316.857 188.661 314.588 188.794 314.232C188.928 313.876 188.661 302.973 188.661 302.973Z" fill="#42B042" stroke="black" stroke-width="0.5" stroke-miterlimit="10"/>
<path d="M227.732 310.894L191.642 320.64L202.5 337.505L241.66 315.789L227.732 310.894Z" fill="#CDF4CD" stroke="black" stroke-width="0.5" stroke-miterlimit="10"/>
<path d="M177.046 303.329C177.892 303.018 178.737 302.706 179.583 302.439C181.496 301.772 181.897 299.769 183.098 299.458L212.824 302.84L216.384 308.046L227.732 310.983L191.642 320.729L186.258 323.71L175.177 316.902L167.968 310.894L168.769 309.159L173.753 308.447C173.887 308.224 176.913 303.374 177.046 303.329Z" fill="#9AE89A" stroke="black" stroke-width="0.5" stroke-miterlimit="10"/>
<path d="M175.177 316.768L170.015 329.94C170.015 329.94 180.25 330.251 184.077 333.188C187.904 336.125 202.5 337.46 202.5 337.46L191.642 320.639C191.642 320.639 188.527 321.663 184.878 319.037C181.229 316.412 175.177 316.768 175.177 316.768Z" fill="#36D136" stroke="black" stroke-width="0.5" stroke-miterlimit="10"/>
<path d="M168.769 309.025L175.177 316.812L170.015 329.94L154.93 322.419C155.775 321.707 167.167 312.14 168.769 309.025Z" fill="#42B042" stroke="black" stroke-width="0.5" stroke-miterlimit="10"/>
<path d="M192.443 296.788L200.275 293.45L227.776 292.872L236.721 296.343L231.737 302.795L192.443 296.788Z" fill="#9AE89A" stroke="black" stroke-width="0.5" stroke-miterlimit="10"/>
<path d="M192.488 316.145L193.289 311.517L212.824 302.795L216.384 308.001L192.488 316.145Z" fill="#CDF4CD" stroke="black" stroke-width="0.5" stroke-miterlimit="10"/>
<path d="M177.046 303.329L193.289 311.517L192.488 316.145L172.552 308.447L177.046 303.329Z" fill="#42B042" stroke="black" stroke-width="0.5" stroke-miterlimit="10"/>
<path d="M202.945 337.595L208.775 329.852L216.918 333.59L218.965 341.021L202.945 337.595Z" fill="#42B042" stroke="black" stroke-width="0.5" stroke-miterlimit="10"/>
<path d="M225.373 328.872L227.509 334.123L218.965 341.021L216.918 333.589L225.373 328.872Z" fill="#DFF8DF" stroke="black" stroke-width="0.5" stroke-miterlimit="10"/>
<path d="M208.775 329.852L216.918 333.59L225.373 328.873L218.431 325.624L208.775 329.852Z" fill="#9AE89A" stroke="black" stroke-width="0.5" stroke-miterlimit="10"/>
<path d="M249.492 302.439L236.721 296.387L227.777 292.916L200.275 293.495L192.443 296.832L190.352 300.303L183.098 299.458C181.897 299.814 181.541 301.772 179.583 302.439C178.737 302.751 177.892 303.018 177.047 303.329C177.002 303.374 177.002 303.374 176.958 303.418L172.508 308.491L168.77 309.07C167.168 312.185 155.775 321.752 154.885 322.464L169.971 329.985C169.971 329.985 180.206 330.296 184.033 333.233C187.86 336.17 202.456 337.505 202.456 337.505L203.39 336.971L202.945 337.594L218.965 341.021L227.51 334.123L225.373 328.872L221.368 327.003L241.66 315.745L249.492 302.439Z" stroke="black" stroke-width="0.5" stroke-linecap="round" stroke-linejoin="round"/>
<path d="M394.474 289.757C394.474 289.757 376.54 292.827 374.093 292.516C371.645 292.204 362.3 296.788 362.3 296.788C362.3 296.788 364.303 300.57 368.085 300.748C371.868 300.926 381.168 305.688 382.77 306.266C384.372 306.845 391.581 308.091 391.581 308.091" fill="#039503"/>
<path d="M423.176 302.395L411.651 289.534L395.586 295.764L391.581 308.091L423.176 302.395Z" fill="#9AE89A" stroke="black" stroke-width="0.5" stroke-miterlimit="10"/>
<path d="M385.129 288.867L374.671 296.699L391.581 308.091L395.586 295.764L385.129 288.867Z" fill="#42B042" stroke="black" stroke-width="0.5" stroke-miterlimit="10"/>
<path d="M411.651 289.534L395.586 295.764L385.129 288.867L397.856 284.55L411.651 289.534Z" fill="#68DD68" stroke="black" stroke-width="0.5" stroke-miterlimit="10"/>
<path d="M411.651 289.534L395.586 295.764L398.568 288.422L397.856 284.55L411.651 289.534Z" fill="#CDF4CD" stroke="black" stroke-width="0.5" stroke-miterlimit="10"/>
<path d="M432.788 302.973L427.671 299.992L424.155 303.374L425.49 307.423L432.788 302.973Z" fill="#9AE89A" stroke="black" stroke-width="0.5" stroke-miterlimit="10"/>
<path d="M416.634 300.125L413.252 304.086L425.49 307.423L424.155 303.374L416.634 300.125Z" fill="#42B042" stroke="black" stroke-width="0.5" stroke-miterlimit="10"/>
<path d="M427.671 299.992L424.155 303.373L416.635 300.125L420.284 298.167L427.671 299.992Z" fill="#DFF8DF" stroke="black" stroke-width="0.5" stroke-miterlimit="10"/>
<path d="M432.788 302.973L427.671 299.991L420.284 298.167L419.661 298.478L411.651 289.534L397.856 284.55L385.129 288.866L374.671 296.698L391.581 308.09L413.431 304.13L425.49 307.423L432.788 302.973Z" stroke="black" stroke-width="0.5" stroke-linecap="round" stroke-linejoin="round"/>
<path d="M262.042 344.758L292.212 350.321L309.301 350.543L327.723 348.585L348.683 337.104L355.269 316.99L341.474 299.19L329.058 301.104L324.92 298.834L314.641 298.656L287.496 323.621" fill="#42B042"/>
<path d="M262.042 344.758L292.212 350.321L309.301 350.543L327.723 348.585L348.683 337.104L355.269 316.99L341.474 299.19L329.058 301.104L324.92 298.834L314.641 298.656L287.496 323.621" stroke="black" stroke-width="0.5" stroke-miterlimit="10"/>
<path d="M380.456 334.078L352.955 344.981L327.723 348.585L324.564 343.156L336.49 333.099L326.477 330.118L330.927 324.6L338.27 316.812L341.474 299.19L367.417 308.58L381.39 324.422L380.456 334.078Z" fill="#013101" stroke="black" stroke-width="0.5" stroke-linecap="round" stroke-linejoin="round"/>
<path d="M250.738 317.658L249.804 330.786L262.041 344.759L281.621 338.573L298.131 333.189L305.429 323.799L314.64 298.657L300.979 301.104L287.228 298.879" fill="#36D136"/>
<path d="M250.738 317.658L249.804 330.786L262.041 344.759L281.621 338.573L298.131 333.189L305.429 323.799L314.64 298.657L300.979 301.104L287.228 298.879" stroke="black" stroke-width="0.5" stroke-miterlimit="10"/>
<path d="M278.551 322.33L281.621 338.573L278.64 347.784L262.041 344.758L249.804 330.785L250.738 317.658L286.338 301.682" fill="#CDF4CD"/>
<path d="M278.551 322.33L281.621 338.573L278.64 347.784L262.041 344.758L249.804 330.785L250.738 317.658L286.338 301.682" stroke="black" stroke-width="0.5" stroke-miterlimit="10"/>
<path d="M318.601 323.888L326.7 310.671L329.058 301.104L325.009 298.879L321.983 309.025L318.601 323.888Z" fill="#013101" stroke="black" stroke-width="0.5" stroke-linecap="round" stroke-linejoin="round"/>
<path d="M295.95 318.904L299.644 307.912L300.979 301.104L287.228 298.879L295.95 318.904Z" fill="#42B042" stroke="black" stroke-width="0.5" stroke-miterlimit="10"/>
<path d="M367.417 308.58L341.474 299.191L329.058 301.104L325.009 298.879L324.92 298.835L314.64 298.657L300.979 301.104L287.228 298.879L250.738 317.658L249.804 330.786L262.041 344.759L278.64 347.785L292.212 350.321L309.3 350.544L327.723 348.586L352.955 344.981L380.456 334.079L381.39 324.422L367.417 308.58Z" stroke="black" stroke-width="0.5" stroke-linecap="round" stroke-linejoin="round"/>
<path d="M327.59 254.468C326.077 258.606 322.695 261.187 321.983 260.92C321.182 260.609 320.292 256.515 321.761 252.376C322.651 249.929 324.564 247.926 327.012 246.947C328.258 249.306 328.48 252.02 327.59 254.468Z" fill="#FFAA08" stroke="black" stroke-width="0.5" stroke-linecap="round" stroke-linejoin="round"/>
<path opacity="0.3" d="M323.941 253.711C322.428 257.85 322.695 261.232 322.027 260.965C321.226 260.653 320.336 256.559 321.805 252.421C322.695 249.973 324.608 247.971 327.056 246.992C325.765 249.128 324.742 251.353 323.941 253.711Z" fill="black" stroke="black" stroke-width="0.5" stroke-linecap="round" stroke-linejoin="round"/>
<path d="M322.339 278.365C323.941 282.459 323.095 286.642 322.383 286.909C321.582 287.22 318.2 284.684 316.598 280.59C315.664 278.142 315.797 275.428 316.954 273.069C319.402 274.004 321.36 275.917 322.339 278.365Z" fill="#FFAA08" stroke="black" stroke-width="0.5" stroke-linecap="round" stroke-linejoin="round"/>
<path opacity="0.3" d="M319.046 280.189C320.648 284.283 323.095 286.641 322.383 286.953C321.582 287.264 318.2 284.728 316.598 280.634C315.664 278.186 315.797 275.472 316.954 273.113C317.399 275.516 318.111 277.919 319.046 280.189Z" fill="black" stroke="black" stroke-width="0.5" stroke-linecap="round" stroke-linejoin="round"/>
<path d="M315.352 334.257C319.713 334.924 322.917 337.728 322.784 338.484C322.65 339.33 318.779 341.021 314.418 340.353C311.837 339.953 309.523 338.484 308.099 336.304C310.146 334.613 312.771 333.856 315.352 334.257Z" fill="#FFAA08" stroke="black" stroke-width="0.5" stroke-linecap="round" stroke-linejoin="round"/>
<path opacity="0.3" d="M315.308 337.994C319.669 338.662 322.918 337.727 322.829 338.484C322.695 339.329 318.824 341.02 314.463 340.353C311.882 339.952 309.568 338.484 308.144 336.303C310.458 337.104 312.861 337.638 315.308 337.994Z" fill="black" stroke="black" stroke-width="0.5" stroke-linecap="round" stroke-linejoin="round"/>
<path d="M412.229 152.118C417.783 152.118 422.286 150.206 422.286 147.846C422.286 145.487 417.783 143.574 412.229 143.574C406.675 143.574 402.172 145.487 402.172 147.846C402.172 150.206 406.675 152.118 412.229 152.118Z" fill="#039503"/>
<path d="M415.077 108.775C415.077 108.775 410.894 118.209 412.096 125.64C413.297 133.072 416.145 139.213 415.077 148.202" stroke="black" stroke-width="0.5" stroke-linecap="round" stroke-linejoin="round"/>
<path d="M424.555 132.494C424.555 132.494 419.304 130.002 414.32 135.297C414.32 135.297 420.995 140.281 424.555 132.494Z" fill="#FFAA08" stroke="black" stroke-width="0.5" stroke-linecap="round" stroke-linejoin="round"/>
<path d="M402.617 112.335C402.617 112.335 404.531 117.942 412.185 117.275C412.185 117.275 410.227 110.066 402.617 112.335Z" fill="#FFAA08" stroke="black" stroke-width="0.5" stroke-linecap="round" stroke-linejoin="round"/>
<path d="M415.611 97.0269C415.611 97.0269 421.174 103.034 414.899 109.131C414.899 109.131 409.559 102.856 415.611 97.0269Z" fill="#FFAA08" stroke="black" stroke-width="0.5" stroke-linecap="round" stroke-linejoin="round"/>
<path d="M163.074 255.981C172.536 255.981 180.206 252.713 180.206 248.683C180.206 244.652 172.536 241.385 163.074 241.385C153.612 241.385 145.941 244.652 145.941 248.683C145.941 252.713 153.612 255.981 163.074 255.981Z" fill="#039503"/>
<path d="M170.728 190.433C170.728 190.433 172.33 236.535 170.728 250.152" stroke="black" stroke-width="0.5" stroke-linecap="round" stroke-linejoin="round"/>
<path d="M187.281 224.252C187.281 224.252 179.36 220.47 171.751 228.48C171.751 228.524 181.852 236.045 187.281 224.252Z" fill="#FFAA08" stroke="black" stroke-width="0.5" stroke-linecap="round" stroke-linejoin="round"/>
<path d="M156.354 207.387C156.354 207.387 159.247 215.842 170.817 214.863C170.817 214.863 167.835 203.961 156.354 207.387Z" fill="#FFAA08" stroke="black" stroke-width="0.5" stroke-linecap="round" stroke-linejoin="round"/>
<path d="M179.761 176.371C179.761 176.371 183.143 188.297 170.55 192.257C170.55 192.302 167.657 180.109 179.761 176.371Z" fill="#FFAA08" stroke="black" stroke-width="0.5" stroke-linecap="round" stroke-linejoin="round"/>
<path d="M417.347 266.661C425.236 266.661 431.631 263.932 431.631 260.565C431.631 257.198 425.236 254.468 417.347 254.468C409.457 254.468 403.062 257.198 403.062 260.565C403.062 263.932 409.457 266.661 417.347 266.661Z" fill="#039503"/>
<path d="M425.623 200.846C425.623 200.846 419.26 215.13 421.084 226.389C422.909 237.647 427.225 246.948 425.623 260.565" stroke="black" stroke-width="0.5" stroke-linecap="round" stroke-linejoin="round"/>
<path d="M436.749 214.552C436.749 214.552 428.828 210.769 421.218 218.779C421.218 218.779 431.32 226.344 436.749 214.552Z" fill="#FFAA08" stroke="black" stroke-width="0.5" stroke-linecap="round" stroke-linejoin="round"/>
<path d="M408.224 226.834C408.224 226.834 411.116 235.288 422.686 234.309C422.686 234.265 419.705 223.363 408.224 226.834Z" fill="#FFAA08" stroke="black" stroke-width="0.5" stroke-linecap="round" stroke-linejoin="round"/>
<path d="M433.99 187.006C433.99 187.006 437.372 198.932 424.778 202.892C424.778 202.892 421.841 190.744 433.99 187.006Z" fill="#FFAA08" stroke="black" stroke-width="0.5" stroke-linecap="round" stroke-linejoin="round"/>
<path d="M334.488 56.8436L338.493 51.1476C338.493 51.1476 344.5 39.5776 364.125 49.8571C383.749 60.1366 384.417 68.6806 385.396 72.4631C386.375 76.2456 377.964 87.9936 377.964 87.9936" fill="#013101"/>
<path d="M334.488 56.8436L338.493 51.1476C338.493 51.1476 344.5 39.5776 364.125 49.8571C383.749 60.1366 384.417 68.6806 385.396 72.4631C386.375 76.2456 377.964 87.9936 377.964 87.9936" stroke="black" stroke-width="0.5" stroke-linecap="round" stroke-linejoin="round"/>
<path d="M241.616 143.351L282.689 103.88L336.089 71.4395L370.176 90.975L375.249 127.109L354.067 144.775L347.57 176.148C347.57 176.148 339.783 152.251 331.016 159.549C323.184 166.091 315.352 177.527 315.352 177.527L276.103 168.449" fill="#026302"/>
<path d="M241.616 143.351L282.689 103.88L336.089 71.4395L370.176 90.975L375.249 127.109L354.067 144.775L347.57 176.148C347.57 176.148 339.783 152.251 331.016 159.549C323.184 166.091 315.352 177.527 315.352 177.527L276.103 168.449" stroke="black" stroke-width="0.5" stroke-linecap="round" stroke-linejoin="round"/>
<path d="M366.795 70.1045L382.681 76.29C382.993 78.3815 386.375 90.174 386.375 90.174L375.294 118.698" fill="#42B042"/>
<path d="M366.795 70.1045L382.681 76.29C382.993 78.3815 386.375 90.174 386.375 90.174L375.294 118.698" stroke="black" stroke-width="0.5" stroke-linecap="round" stroke-linejoin="round"/>
<path d="M376.229 75.6667C366.972 66.0102 344.367 58.6677 332.618 53.7282C326.967 51.3697 321.493 58.8457 321.493 58.8457C321.493 58.8457 308.499 75.2662 293.013 90.7967C286.605 97.2492 275.392 106.728 270.719 111.089C268.183 113.447 270.719 113.536 270.719 113.536C270.185 113.581 273.612 111.89 275.525 112.335C279.13 113.18 281.666 117.541 282.067 120.612C283.001 121.057 283.935 121.502 284.914 121.947C285.671 120.345 287.451 119.588 289.854 120.167C293.103 120.923 295.995 124.661 297.33 128.132C298.754 128.889 300.134 129.601 301.424 130.268C302.181 128.622 303.961 127.821 306.408 128.399C310.146 129.289 313.172 133.339 314.151 137.121C315.753 138.011 317.578 139.035 319.224 140.014C319.447 137.433 321.494 136.009 324.564 136.721C328.347 137.611 332.174 141.438 333.153 145.309C333.375 146.288 332.752 147.757 332.618 148.958V151.406C333.731 152.474 334.488 153.186 334.488 153.186L340.273 148.246L340.094 144.508L339.828 139.302C339.828 139.302 352.421 124.839 364.703 110.866C366.394 111.89 367.996 113.047 369.509 114.337C371.779 116.429 373.648 118.965 374.938 121.813C376.718 119.277 369.909 89.9512 371.467 86.3022L376.229 75.6667Z" fill="#42B042" stroke="black" stroke-width="0.5" stroke-linecap="round" stroke-linejoin="round"/>
<path d="M374.804 77.1799C370.221 72.3739 368.619 66.4999 358.829 62.0944C348.861 57.5999 338.537 53.7284 332.618 51.2809C326.967 48.9224 321.493 56.3984 321.493 56.3984C321.493 56.3984 309.256 68.1464 293.013 86.8809C283.802 97.5164 272.677 109.086 270.719 111.133C272.009 109.932 273.834 109.442 275.525 109.887C279.129 110.733 281.666 115.094 282.066 118.164C283.001 118.609 283.935 119.054 284.914 119.499C285.671 117.897 287.451 117.141 289.854 117.719C293.102 118.476 295.995 122.214 297.33 125.729C298.754 126.486 300.133 127.198 301.424 127.865C302.18 126.219 303.96 125.418 306.408 125.996C310.146 126.886 313.172 130.936 314.151 134.718C315.753 135.608 317.577 136.632 319.224 137.611C319.446 135.03 321.493 133.606 324.564 134.318C328.346 135.208 332.173 139.035 333.152 142.906C333.597 144.642 333.33 147 332.618 149.003C333.731 150.071 334.487 150.783 334.487 150.783L340.272 145.843L339.827 136.943C339.827 136.943 352.421 122.481 364.703 108.508C366.394 109.531 367.996 110.688 369.509 111.979C373.336 115.539 374.938 118.476 374.938 118.476C376.718 115.939 369.909 87.5929 371.467 83.9439L374.804 77.1799Z" fill="#36D136" stroke="black" stroke-width="0.5" stroke-linecap="round" stroke-linejoin="round"/>
<path d="M300.49 127.332L301.424 127.821C302.181 126.175 303.961 125.374 306.408 125.952C310.146 126.842 313.172 130.892 314.151 134.674C315.753 135.564 317.578 136.588 319.224 137.567C319.447 134.986 321.494 133.562 324.564 134.274C328.347 135.164 332.174 138.991 333.153 142.862C333.598 144.598 333.331 146.956 332.619 148.959L332.663 149.003C332.752 149.092 332.841 149.181 332.975 149.27L333.108 149.404L333.375 149.671L333.642 149.938L333.731 149.982L334.488 150.694L340.273 145.755L339.828 136.855C339.828 136.855 352.421 122.392 364.703 108.419C366.394 109.443 367.996 110.6 369.509 111.89C371.69 113.937 373.603 116.296 375.161 118.877C376.585 113.848 376.985 86.9702 378.498 83.4992L382.726 76.2902C378.454 71.7957 369.91 67.1677 360.787 62.9847C359.586 62.4507 358.829 62.1392 358.829 62.1392" fill="#68DD68"/>
<path d="M300.49 127.332L301.424 127.821C302.181 126.175 303.961 125.374 306.408 125.952C310.146 126.842 313.172 130.892 314.151 134.674C315.753 135.564 317.578 136.588 319.224 137.567C319.447 134.986 321.494 133.562 324.564 134.274C328.347 135.164 332.174 138.991 333.153 142.862C333.598 144.598 333.331 146.956 332.619 148.959L332.663 149.003C332.752 149.092 332.841 149.181 332.975 149.27L333.108 149.404L333.375 149.671L333.642 149.938L333.731 149.982L334.488 150.694L340.273 145.755L339.828 136.855C339.828 136.855 352.421 122.392 364.703 108.419C366.394 109.443 367.996 110.6 369.509 111.89C371.69 113.937 373.603 116.296 375.161 118.877C376.585 113.848 376.985 86.9702 378.498 83.4992L382.726 76.2902C378.454 71.7957 369.91 67.1677 360.787 62.9847C359.586 62.4507 358.829 62.1392 358.829 62.1392" stroke="black" stroke-width="0.5" stroke-linecap="round" stroke-linejoin="round"/>
<path d="M339.783 136.899L331.951 127.509L346.236 110.866L341.519 105.126L371.378 68.1909" stroke="black" stroke-width="0.5" stroke-linecap="round" stroke-linejoin="round"/>
<path d="M334.488 150.783V153.231" stroke="black" stroke-width="0.5" stroke-linecap="round" stroke-linejoin="round"/>
<path d="M302.937 101.967L288.163 116.429" stroke="black" stroke-width="0.5" stroke-linecap="round" stroke-linejoin="round"/>
<path d="M280.998 117.586C280.153 114.827 277.216 112.112 274.501 111.534C273.255 111.267 272.232 111.489 271.609 112.112L259.594 123.86L268.361 132.805L280.509 120.923L280.553 120.879C281.265 120.167 281.443 119.01 280.998 117.586Z" fill="#36D136" stroke="black" stroke-width="0.5" stroke-linecap="round" stroke-linejoin="round"/>
<path d="M277.483 112.913C276.593 112.246 275.569 111.756 274.501 111.534C273.255 111.267 272.232 111.489 271.609 112.112L259.594 123.86L264.133 126.708" fill="#82E382"/>
<path d="M277.483 112.913C276.593 112.246 275.569 111.756 274.501 111.534C273.255 111.267 272.232 111.489 271.609 112.112L259.594 123.86L264.133 126.708" stroke="black" stroke-width="0.5" stroke-linecap="round" stroke-linejoin="round"/>
<path d="M268.467 132.717C269.867 131.268 268.982 128.141 266.489 125.733C263.997 123.326 260.842 122.549 259.441 123.998C258.041 125.448 258.926 128.574 261.419 130.982C263.911 133.39 267.066 134.167 268.467 132.717Z" fill="#42B042" stroke="black" stroke-width="0.5" stroke-linecap="round" stroke-linejoin="round"/>
<path d="M266.674 130.986C267.528 130.102 267.002 128.209 265.5 126.757C263.997 125.306 262.087 124.846 261.233 125.729C260.38 126.613 260.905 128.506 262.408 129.958C263.91 131.409 265.82 131.869 266.674 130.986Z" fill="#013101" stroke="black" stroke-width="0.5" stroke-linecap="round" stroke-linejoin="round"/>
<path d="M242.061 150.872C248.869 143.396 256.345 136.543 264.444 130.446C266.758 128.711 263.955 125.195 261.641 126.931C253.275 133.25 245.532 140.37 238.456 148.157C237.655 149.047 238.011 150.605 238.901 151.317C239.969 152.118 241.215 151.762 242.061 150.872Z" fill="#039503" stroke="black" stroke-width="0.5" stroke-linecap="round" stroke-linejoin="round"/>
<path d="M295.728 125.552C294.883 122.793 291.945 120.078 289.231 119.5C287.94 119.233 286.961 119.455 286.338 120.078L274.323 131.826L283.09 140.815L295.238 128.934L295.283 128.889C295.951 128.177 296.173 127.02 295.728 125.552Z" fill="#36D136" stroke="black" stroke-width="0.5" stroke-linecap="round" stroke-linejoin="round"/>
<path d="M292.212 120.923C291.322 120.256 290.299 119.766 289.231 119.544C287.94 119.277 286.961 119.499 286.338 120.122L274.323 131.87L278.862 134.718" fill="#82E382"/>
<path d="M292.212 120.923C291.322 120.256 290.299 119.766 289.231 119.544C287.94 119.277 286.961 119.499 286.338 120.122L274.323 131.87L278.862 134.718" stroke="black" stroke-width="0.5" stroke-linecap="round" stroke-linejoin="round"/>
<path d="M283.204 140.714C284.604 139.265 283.719 136.138 281.227 133.73C278.735 131.323 275.579 130.546 274.179 131.995C272.779 133.445 273.664 136.571 276.156 138.979C278.648 141.387 281.804 142.164 283.204 140.714Z" fill="#42B042" stroke="black" stroke-width="0.5" stroke-linecap="round" stroke-linejoin="round"/>
<path d="M281.412 138.983C282.266 138.099 281.74 136.206 280.237 134.754C278.735 133.303 276.825 132.843 275.971 133.726C275.117 134.61 275.643 136.503 277.145 137.955C278.648 139.406 280.558 139.866 281.412 138.983Z" fill="#013101" stroke="black" stroke-width="0.5" stroke-linecap="round" stroke-linejoin="round"/>
<path d="M257.236 160.128C263.733 152.385 270.986 145.265 278.818 138.901C281.043 137.077 278.106 133.695 275.881 135.519C267.738 142.15 260.262 149.537 253.542 157.591C252.741 158.526 253.186 160.083 254.121 160.706C255.189 161.463 256.435 161.062 257.236 160.128Z" fill="#039503" stroke="black" stroke-width="0.5" stroke-linecap="round" stroke-linejoin="round"/>
<path d="M312.416 133.473C311.57 130.714 308.633 127.999 305.918 127.421C304.672 127.154 303.649 127.376 303.026 127.999L291.011 139.747L299.777 148.736L311.926 136.855L311.971 136.81C312.683 136.098 312.861 134.897 312.416 133.473Z" fill="#36D136" stroke="black" stroke-width="0.5" stroke-linecap="round" stroke-linejoin="round"/>
<path d="M308.9 128.8C308.01 128.133 306.986 127.643 305.918 127.376C304.672 127.109 303.649 127.332 303.026 127.955L291.011 139.703L295.55 142.595" fill="#82E382"/>
<path d="M308.9 128.8C308.01 128.133 306.986 127.643 305.918 127.376C304.672 127.109 303.649 127.332 303.026 127.955L291.011 139.703L295.55 142.595" stroke="black" stroke-width="0.5" stroke-linecap="round" stroke-linejoin="round"/>
<path d="M299.884 148.603C301.285 147.154 300.399 144.027 297.907 141.62C295.415 139.212 292.259 138.435 290.859 139.884C289.459 141.334 290.344 144.461 292.836 146.868C295.329 149.276 298.484 150.053 299.884 148.603Z" fill="#42B042" stroke="black" stroke-width="0.5" stroke-linecap="round" stroke-linejoin="round"/>
<path d="M298.092 146.872C298.946 145.988 298.42 144.095 296.918 142.643C295.415 141.192 293.505 140.732 292.651 141.616C291.798 142.499 292.323 144.392 293.826 145.844C295.328 147.295 297.238 147.756 298.092 146.872Z" fill="#013101" stroke="black" stroke-width="0.5" stroke-linecap="round" stroke-linejoin="round"/>
<path d="M277.127 170.007C282.645 161.552 288.964 153.587 295.95 146.333C297.953 144.242 294.615 141.216 292.613 143.307C285.359 150.872 278.818 159.149 273.122 167.96C272.454 168.984 273.077 170.452 274.101 170.986C275.258 171.609 276.459 171.031 277.127 170.007Z" fill="#039503" stroke="black" stroke-width="0.5" stroke-linecap="round" stroke-linejoin="round"/>
<path d="M331.195 141.883C330.082 139.08 327.012 136.454 324.297 136.009C323.051 135.787 322.072 136.098 321.538 136.766L310.947 149.76L320.337 158.571L331.061 145.443L331.106 145.399C331.684 144.598 331.773 143.352 331.195 141.883Z" fill="#36D136" stroke="black" stroke-width="0.5" stroke-linecap="round" stroke-linejoin="round"/>
<path d="M327.323 137.255C326.433 136.632 325.365 136.187 324.297 135.964C323.051 135.742 322.072 136.053 321.538 136.721L310.947 149.715L315.62 152.429" fill="#82E382"/>
<path d="M327.323 137.255C326.433 136.632 325.365 136.187 324.297 135.964C323.051 135.742 322.072 136.053 321.538 136.721L310.947 149.715L315.62 152.429" stroke="black" stroke-width="0.5" stroke-linecap="round" stroke-linejoin="round"/>
<path d="M320.287 158.61C321.67 157.144 320.689 153.973 318.097 151.528C315.504 149.083 312.282 148.289 310.899 149.756C309.516 151.222 310.497 154.392 313.089 156.837C315.682 159.282 318.905 160.076 320.287 158.61Z" fill="#42B042" stroke="black" stroke-width="0.5" stroke-linecap="round" stroke-linejoin="round"/>
<path d="M318.442 156.87C319.285 155.976 318.693 154.048 317.12 152.564C315.546 151.08 313.587 150.602 312.744 151.496C311.901 152.39 312.493 154.318 314.066 155.802C315.64 157.285 317.599 157.764 318.442 156.87Z" fill="#013101" stroke="black" stroke-width="0.5" stroke-linecap="round" stroke-linejoin="round"/>
<path d="M300.312 181.354C304.895 172.321 310.324 163.777 316.465 155.767C318.245 153.497 314.596 150.827 312.816 153.141C306.408 161.463 300.801 170.363 296.084 179.752C295.55 180.82 296.307 182.244 297.375 182.645C298.576 183.09 299.733 182.422 300.312 181.354Z" fill="#039503" stroke="black" stroke-width="0.5" stroke-linecap="round" stroke-linejoin="round"/>
<path d="M243.396 141.794L236.676 146.867L234.674 150.649L220.923 165.379L212.29 175.213L213.803 182.422L229.245 180.331L231.87 177.794L252.429 157.28L254.699 145.71" fill="#026302"/>
<path d="M243.396 141.794L236.676 146.867L234.674 150.649L220.923 165.379L212.29 175.213L213.803 182.422L229.245 180.331L231.87 177.794L252.429 157.28L254.699 145.71" stroke="black" stroke-width="0.5" stroke-linecap="round" stroke-linejoin="round"/>
<path d="M249.581 133.651L236.098 147.09L236.676 146.867L241.616 143.352L246.6 146.956L244.597 155.233L246.422 157.102L260.795 140.726L257.057 138.546L249.893 141.527L247.579 139.97L251.228 134.585L249.581 133.651Z" fill="#42B042" stroke="black" stroke-width="0.5" stroke-linecap="round" stroke-linejoin="round"/>
<path d="M246.422 157.102L250.249 160.707L261.418 149.76L260.795 140.726L246.422 157.102Z" fill="#039503" stroke="black" stroke-width="0.5" stroke-linecap="round" stroke-linejoin="round"/>
<path d="M234.63 148.781L220.078 165.78L221.146 166.403L226.308 161.641L230.402 164.979C230.402 164.979 227.154 172.054 227.198 172.722L228.177 173.478L244.375 157.903L242.195 156.435C242.195 156.435 236.143 159.149 235.564 159.327L231.114 155.945L235.52 149.715L234.63 148.781Z" fill="#42B042" stroke="black" stroke-width="0.5" stroke-linecap="round" stroke-linejoin="round"/>
<path d="M248.558 162.442L244.331 157.947L228.133 173.522L233.161 177.483L248.558 162.442Z" fill="#039503" stroke="black" stroke-width="0.5" stroke-linecap="round" stroke-linejoin="round"/>
<path d="M232.583 150.827C233.028 148.38 235.297 145.799 237.567 145.131C238.635 144.82 239.525 144.953 240.103 145.443L244.019 148.602L237.389 156.968L233.339 153.675L233.295 153.631C232.627 153.141 232.36 152.118 232.583 150.827Z" fill="#04C604" stroke="black" stroke-width="0.5" stroke-linecap="round" stroke-linejoin="round"/>
<path d="M233.161 149.537L239.258 154.921L241.839 151.673L235.787 146.199C234.63 147.089 233.74 148.202 233.161 149.537Z" fill="#9BE89B"/>
<path d="M243.242 154.885C245.109 152.602 245.497 149.83 244.108 148.694C242.72 147.558 240.08 148.488 238.213 150.771C236.345 153.053 235.957 155.825 237.346 156.961C238.735 158.097 241.374 157.167 243.242 154.885Z" fill="#026302" stroke="black" stroke-width="0.5" stroke-linecap="round" stroke-linejoin="round"/>
<path d="M237.21 156.879C237.833 157.458 238.768 157.68 239.88 157.324C242.15 156.657 244.419 154.12 244.864 151.628C245.131 150.249 244.775 149.181 244.019 148.647" fill="#013101"/>
<path d="M237.21 156.879C237.833 157.458 238.768 157.68 239.88 157.324C242.15 156.657 244.419 154.12 244.864 151.628C245.131 150.249 244.775 149.181 244.019 148.647" stroke="black" stroke-width="0.5" stroke-linecap="round" stroke-linejoin="round"/>
<path d="M242.243 154.067C243.379 152.679 243.621 150.998 242.784 150.313C241.947 149.628 240.348 150.199 239.212 151.588C238.076 152.976 237.833 154.657 238.67 155.342C239.507 156.027 241.107 155.456 242.243 154.067Z" fill="#013101" stroke="black" stroke-width="0.5" stroke-linecap="round" stroke-linejoin="round"/>
<path d="M235.475 159.372L242.15 156.479L244.331 157.947L228.133 173.522L227.154 172.766L230.358 165.023" fill="#36D136"/>
<path d="M235.475 159.372L242.15 156.479L244.331 157.947L228.133 173.522L227.154 172.766L230.358 165.023" stroke="black" stroke-width="0.5" stroke-linecap="round" stroke-linejoin="round"/>
<path d="M246.6 146.956L244.598 155.233L246.422 157.102L260.796 140.726L257.058 138.546L249.893 141.527" fill="#36D136"/>
<path d="M246.6 146.956L244.598 155.233L246.422 157.102L260.796 140.726L257.058 138.546L249.893 141.527" stroke="black" stroke-width="0.5" stroke-linecap="round" stroke-linejoin="round"/>
<path d="M206.995 192.479L214.693 192.746L230.046 180.865L225.507 176.459" fill="#039503"/>
<path d="M206.995 192.479L214.693 192.746L230.046 180.865L225.507 176.459" stroke="black" stroke-width="0.5" stroke-linecap="round" stroke-linejoin="round"/>
<path d="M213.759 173.167L212.824 176.237L217.408 179.842L224.038 176.282L225.507 176.46C225.507 176.46 217.274 184.781 214.471 187.407L206.995 192.48L204.325 189.765L208.063 181.177L213.759 173.167Z" fill="#42B042" stroke="black" stroke-width="0.5" stroke-linecap="round" stroke-linejoin="round"/>
<path d="M217.452 179.842L224.083 176.282L225.507 176.46L214.471 187.362L206.995 192.48" fill="#36D136"/>
<path d="M217.452 179.842L224.083 176.282L225.507 176.46L214.471 187.362L206.995 192.48" stroke="black" stroke-width="0.5" stroke-linecap="round" stroke-linejoin="round"/>
<path d="M218.965 176.637C222.881 170.941 221.547 172.944 226.397 168.093C227.777 166.714 225.596 164.533 224.217 165.957C219.144 170.986 220.345 169.25 216.295 175.169C215.895 175.925 216.162 176.86 216.874 177.26C217.631 177.616 218.52 177.349 218.965 176.637Z" fill="#039503" stroke="black" stroke-width="0.5" stroke-linecap="round" stroke-linejoin="round"/>
<path d="M253.408 152.919L248.024 159.505L245.888 163.821L225.373 186.917L215.539 198.22L219.633 204.227L237.166 201.913L243.796 195.06L266.313 170.852L268.227 157.591" fill="#026302"/>
<path d="M253.408 152.919L248.024 159.505L245.888 163.821L225.373 186.917L215.539 198.22L219.633 204.227L237.166 201.913L243.796 195.06L266.313 170.852L268.227 157.591" stroke="black" stroke-width="0.5" stroke-linecap="round" stroke-linejoin="round"/>
<path d="M264.711 139.302L246.778 159.282L248.024 159.505L253.408 155.411L259.149 159.282L257.146 168.672L259.549 170.897L278.239 147.356L274.546 145.354L266.58 149.003L263.955 147.356L267.159 140.815L264.711 139.302Z" fill="#42B042" stroke="black" stroke-width="0.5" stroke-linecap="round" stroke-linejoin="round"/>
<path d="M259.55 170.897L263.955 174.813L279.219 157.502L278.24 147.356L259.55 170.897Z" fill="#039503" stroke="black" stroke-width="0.5" stroke-linecap="round" stroke-linejoin="round"/>
<path d="M245.755 161.73L225.062 186.16L225.73 187.095L233.028 180.42L237.7 184.069C237.7 184.069 234.274 192.123 234.318 192.88L235.742 194.304L257.236 171.876L254.432 170.14C254.432 170.14 247.713 173.389 247.045 173.611L241.928 169.962L246.689 162.798L245.755 161.73Z" fill="#42B042" stroke="black" stroke-width="0.5" stroke-linecap="round" stroke-linejoin="round"/>
<path d="M262.086 176.815L257.191 171.876L235.742 194.304L241.483 198.576L262.086 176.815Z" fill="#039503" stroke="black" stroke-width="0.5" stroke-linecap="round" stroke-linejoin="round"/>
<path d="M209.265 216.599L219.099 217.533L238.145 202.492L232.85 197.686" fill="#039503"/>
<path d="M209.265 216.599L219.099 217.533L238.145 202.492L232.85 197.686" stroke="black" stroke-width="0.5" stroke-linecap="round" stroke-linejoin="round"/>
<path d="M220.567 191.856L218.342 197.285L223.638 201.201L230.98 196.974L232.894 197.686C232.894 197.686 221.813 208.455 218.743 211.481L209.309 216.598L206.417 214.329L210.377 204.539L220.567 191.856Z" fill="#42B042" stroke="black" stroke-width="0.5" stroke-linecap="round" stroke-linejoin="round"/>
<path d="M243.485 164.088C243.93 161.285 246.377 158.348 248.914 157.547C250.115 157.146 251.094 157.28 251.806 157.814L256.345 161.285L249.136 170.941L244.464 167.381L244.419 167.337C243.618 166.714 243.262 165.557 243.485 164.088Z" fill="#04C604" stroke="black" stroke-width="0.5" stroke-linecap="round" stroke-linejoin="round"/>
<path d="M244.108 162.62L251.139 168.494L253.898 164.756L246.956 158.793C245.71 159.816 244.731 161.107 244.108 162.62Z" fill="#9BE89B"/>
<path d="M255.647 168.378C257.676 165.753 258.027 162.626 256.433 161.393C254.838 160.161 251.901 161.291 249.872 163.916C247.844 166.542 247.492 169.669 249.087 170.901C250.681 172.133 253.618 171.004 255.647 168.378Z" fill="#026302" stroke="black" stroke-width="0.5" stroke-linecap="round" stroke-linejoin="round"/>
<path d="M248.914 170.764C249.581 171.387 250.694 171.609 251.94 171.164C254.476 170.319 256.924 167.382 257.369 164.578C257.636 163.021 257.191 161.819 256.345 161.241" fill="#013101"/>
<path d="M248.914 170.764C249.581 171.387 250.694 171.609 251.94 171.164C254.476 170.319 256.924 167.382 257.369 164.578C257.636 163.021 257.191 161.819 256.345 161.241" stroke="black" stroke-width="0.5" stroke-linecap="round" stroke-linejoin="round"/>
<path d="M254.52 167.507C255.752 165.912 255.963 164.011 254.99 163.259C254.018 162.508 252.231 163.192 250.999 164.786C249.767 166.381 249.556 168.283 250.528 169.034C251.501 169.786 253.288 169.102 254.52 167.507Z" fill="#013101" stroke="black" stroke-width="0.5" stroke-linecap="round" stroke-linejoin="round"/>
<path d="M247.045 173.612L254.432 170.141L257.191 171.876L235.742 194.304L234.318 192.88L237.7 184.069" fill="#36D136"/>
<path d="M247.045 173.612L254.432 170.141L257.191 171.876L235.742 194.304L234.318 192.88L237.7 184.069" stroke="black" stroke-width="0.5" stroke-linecap="round" stroke-linejoin="round"/>
<path d="M259.149 159.282L257.146 168.672L259.549 170.897L278.239 147.357L274.546 145.354L266.58 149.003" fill="#36D136"/>
<path d="M259.149 159.282L257.146 168.672L259.549 170.897L278.239 147.357L274.546 145.354L266.58 149.003" stroke="black" stroke-width="0.5" stroke-linecap="round" stroke-linejoin="round"/>
<path d="M223.638 201.202L230.981 196.974L232.85 197.686L218.699 211.481L209.265 216.599" fill="#36D136"/>
<path d="M223.638 201.202L230.981 196.974L232.85 197.686L218.699 211.481L209.265 216.599" stroke="black" stroke-width="0.5" stroke-linecap="round" stroke-linejoin="round"/>
<path d="M224.483 198.042C229.156 191.1 227.554 193.548 233.428 187.585C235.119 185.894 232.449 183.313 230.758 185.004C224.661 191.189 226.13 189.009 221.279 196.218C220.745 197.063 221.19 198.309 221.991 198.754C222.926 199.333 223.905 198.888 224.483 198.042Z" fill="#039503" stroke="black" stroke-width="0.5" stroke-linecap="round" stroke-linejoin="round"/>
<path d="M269.206 162.442L264.445 170.763L262.843 175.97L243.886 204.85L235.742 219.669L241.038 225.632L257.592 219.491L263.955 209.879L285.582 180.153L285.849 165.067" fill="#026302"/>
<path d="M269.206 162.442L264.445 170.763L262.843 175.97L243.886 204.85L235.742 219.669L241.038 225.632L257.592 219.491L263.955 209.879L285.582 180.153L285.849 165.067" stroke="black" stroke-width="0.5" stroke-linecap="round" stroke-linejoin="round"/>
<path d="M281.889 145.087L264.089 168.983L265.468 169.161L271.119 164.133L277.528 168.049L275.792 178.773L278.195 181.043L298.532 153.809L293.592 151.317L285.093 155.945L282.2 154.298L284.648 146.555L281.889 145.087Z" fill="#42B042" stroke="black" stroke-width="0.5" stroke-linecap="round" stroke-linejoin="round"/>
<path d="M278.195 181.043L283.179 185.137L299.11 162.754L298.532 153.809L278.195 181.043Z" fill="#039503" stroke="black" stroke-width="0.5" stroke-linecap="round" stroke-linejoin="round"/>
<path d="M262.398 173.656L243.174 204.85L244.687 204.939L251.673 196.796L257.28 200C257.28 200 254.877 209.612 255.055 210.457L256.924 210.546L275.97 182.956L273.033 181.532C273.033 181.532 266.269 186.338 265.602 186.694L259.55 183.535L263.51 174.679L262.398 173.656Z" fill="#42B042" stroke="black" stroke-width="0.5" stroke-linecap="round" stroke-linejoin="round"/>
<path d="M281.933 187.54L275.926 182.912L256.88 210.502L262.576 213.572L281.933 187.54Z" fill="#039503" stroke="black" stroke-width="0.5" stroke-linecap="round" stroke-linejoin="round"/>
<path d="M232.315 241.563L242.995 239.16L259.638 218.69L254.343 214.729" fill="#039503"/>
<path d="M232.315 241.563L242.995 239.16L259.638 218.69L254.343 214.729" stroke="black" stroke-width="0.5" stroke-linecap="round" stroke-linejoin="round"/>
<path d="M240.103 211.659L238.546 218.112L244.82 221.538L251.139 214.151L254.343 214.774C254.343 214.774 244.464 230.305 241.661 234.221L232.316 241.563L228.4 239.205L231.114 227.59L240.103 211.659Z" fill="#42B042" stroke="black" stroke-width="0.5" stroke-linecap="round" stroke-linejoin="round"/>
<path d="M260.351 176.682C260.395 173.478 262.531 169.785 265.157 168.405C266.358 167.782 267.471 167.738 268.272 168.227L273.656 171.298L267.426 183.357L261.864 180.242C261.819 180.242 261.819 180.198 261.775 180.198C260.885 179.575 260.306 178.373 260.351 176.682Z" fill="#04C604" stroke="black" stroke-width="0.5" stroke-linecap="round" stroke-linejoin="round"/>
<path d="M260.751 174.947L269.206 180.242L271.609 175.614L263.198 170.185C261.997 171.52 261.196 173.167 260.751 174.947Z" fill="#9BE89B"/>
<path d="M274.144 179.125C275.863 175.808 275.664 172.294 273.7 171.277C271.736 170.259 268.751 172.123 267.032 175.44C265.314 178.757 265.513 182.271 267.477 183.288C269.441 184.306 272.426 182.442 274.144 179.125Z" fill="#026302" stroke="black" stroke-width="0.5" stroke-linecap="round" stroke-linejoin="round"/>
<path d="M267.203 183.135C268.049 183.713 269.206 183.757 270.541 183.045C273.166 181.666 275.302 177.972 275.347 174.768C275.347 172.988 274.724 171.742 273.701 171.208" fill="#013101"/>
<path d="M267.203 183.135C268.049 183.713 269.206 183.757 270.541 183.045C273.166 181.666 275.302 177.972 275.347 174.768C275.347 172.988 274.724 171.742 273.701 171.208" stroke="black" stroke-width="0.5" stroke-linecap="round" stroke-linejoin="round"/>
<path d="M272.722 178.387C273.762 176.38 273.65 174.257 272.472 173.647C271.293 173.036 269.495 174.169 268.455 176.176C267.415 178.184 267.527 180.306 268.705 180.917C269.883 181.527 271.682 180.395 272.722 178.387Z" fill="#013101" stroke="black" stroke-width="0.5" stroke-linecap="round" stroke-linejoin="round"/>
<path d="M265.646 186.65L272.988 181.488L275.926 182.912L256.88 210.502L255.01 210.413L257.28 199.956" fill="#36D136"/>
<path d="M265.646 186.65L272.988 181.488L275.926 182.912L256.88 210.502L255.01 210.413L257.28 199.956" stroke="black" stroke-width="0.5" stroke-linecap="round" stroke-linejoin="round"/>
<path d="M277.528 168.049L275.792 178.773L278.195 181.043L298.532 153.809L293.592 151.317L285.093 155.945" fill="#36D136"/>
<path d="M277.528 168.049L275.792 178.773L278.195 181.043L298.532 153.809L293.592 151.317L285.093 155.945" stroke="black" stroke-width="0.5" stroke-linecap="round" stroke-linejoin="round"/>
<path d="M244.864 221.538L251.139 214.151L254.343 214.729L241.66 234.22L232.315 241.563" fill="#36D136"/>
<path d="M244.864 221.538L251.139 214.151L254.343 214.729L241.66 234.22L232.315 241.563" stroke="black" stroke-width="0.5" stroke-linecap="round" stroke-linejoin="round"/>
<path d="M245.443 217.666C249.626 209.211 248.202 212.193 253.765 204.806C255.367 202.67 252.252 200 250.65 202.091C244.865 209.745 246.155 207.12 241.839 215.886C241.349 216.91 241.972 218.289 242.907 218.734C243.93 219.268 244.909 218.645 245.443 217.666Z" fill="#039503" stroke="black" stroke-width="0.5" stroke-linecap="round" stroke-linejoin="round"/>
<path d="M309.479 185.805L303.916 200.356L303.471 216.065L307.565 235.823C307.565 235.823 300 244.189 298.977 245.079C297.953 245.969 287.051 231.818 287.051 231.818L285.36 216.599L284.781 190.433L293.014 173.923" fill="#026302"/>
<path d="M309.479 185.805L303.916 200.356L303.471 216.065L307.565 235.823C307.565 235.823 300 244.189 298.977 245.079C297.953 245.969 287.051 231.818 287.051 231.818L285.36 216.599L284.781 190.433L293.014 173.923" stroke="black" stroke-width="0.5" stroke-linecap="round" stroke-linejoin="round"/>
<path d="M293.547 231.907C291.456 223.719 292.212 226.567 291.678 218.067C291.545 215.62 287.807 216.02 287.941 218.468C288.475 227.279 287.807 224.698 289.987 233.242C290.254 234.221 291.501 234.666 292.391 234.354C293.414 233.954 293.903 232.886 293.547 231.907Z" fill="#039503" stroke="black" stroke-width="0.5" stroke-linecap="round" stroke-linejoin="round"/>
<path d="M308.277 251.397L312.015 241.251L305.296 224.875L299.6 226.344" fill="#039503"/>
<path d="M308.277 251.397L312.015 241.251L305.296 224.875L299.6 226.344" stroke="black" stroke-width="0.5" stroke-linecap="round" stroke-linejoin="round"/>
<path d="M285.315 229.681L290.477 235.066L296.395 234.754L295.55 226.789L299.599 226.255C299.599 226.255 302.67 236.089 304.717 240.272C305.874 242.675 308.277 251.397 308.277 251.397L302.803 252.065L294.927 245.612C289.72 238.448 285.315 229.681 285.315 229.681Z" fill="#42B042" stroke="black" stroke-width="0.5" stroke-linecap="round" stroke-linejoin="round"/>
<path d="M296.396 234.754L295.55 226.789L299.6 226.255L307.254 242.141L308.277 251.397L305.34 251.62" fill="#68DD68"/>
<path d="M296.396 234.754L295.55 226.789L299.6 226.255L307.254 242.141L308.277 251.397L305.34 251.62" stroke="black" stroke-width="0.5" stroke-linecap="round" stroke-linejoin="round"/>
<path d="M303.516 163.911L298.621 157.592L297.108 166.759L300.846 168.628L303.516 163.911Z" fill="#039503" stroke="black" stroke-width="0.5" stroke-linecap="round" stroke-linejoin="round"/>
<path d="M298.621 157.592L284.425 187.273L285.716 187.184L290.922 179.664L297.019 181.8C297.019 181.8 296.885 191.812 297.197 192.257L302.136 194.082L315.219 164.845L309.034 162.798L302.848 169.384L297.953 167.115L299.867 158.66L298.621 157.592Z" fill="#42B042" stroke="black" stroke-width="0.5" stroke-linecap="round" stroke-linejoin="round"/>
<path d="M302.092 194.037L307.521 196.129L319.625 172.633L315.175 164.801L302.092 194.037Z" fill="#039503" stroke="black" stroke-width="0.5" stroke-linecap="round" stroke-linejoin="round"/>
<path d="M283.535 191.99L284.425 222.028L287.006 221.939L287.095 214.24L291.189 214.685L293.815 222.784L298.799 223.318L299.244 196.841L295.951 196.93L291.59 204.139C291.59 204.139 287.229 203.827 286.828 203.783L284.826 192.524L283.535 191.99Z" fill="#42B042" stroke="black" stroke-width="0.5" stroke-linecap="round" stroke-linejoin="round"/>
<path d="M305.874 198.042L299.244 196.885L298.799 223.362L305.652 221.671L305.874 198.042Z" fill="#039503" stroke="black" stroke-width="0.5" stroke-linecap="round" stroke-linejoin="round"/>
<path d="M302.803 169.339L308.989 162.753L315.174 164.8L302.091 194.037L297.152 192.257L296.974 181.799" fill="#68DD68"/>
<path d="M302.803 169.339L308.989 162.753L315.174 164.8L302.091 194.037L297.152 192.257L296.974 181.799" stroke="black" stroke-width="0.5" stroke-linecap="round" stroke-linejoin="round"/>
<path d="M291.589 204.183L295.327 196.351L299.243 196.885L298.798 223.363L293.814 222.829L291.189 214.73" fill="#68DD68"/>
<path d="M291.589 204.183L295.327 196.351L299.243 196.885L298.798 223.363L293.814 222.829L291.189 214.73" stroke="black" stroke-width="0.5" stroke-linecap="round" stroke-linejoin="round"/>
<path d="M282.645 195.105C281.488 192.212 282.2 187.985 284.203 185.671C285.137 184.603 286.205 184.158 287.184 184.247L293.548 184.87L291.946 198.264L285.404 197.641H285.315C284.247 197.508 283.224 196.662 282.645 195.105Z" fill="#04C604" stroke="black" stroke-width="0.5" stroke-linecap="round" stroke-linejoin="round"/>
<path d="M282.422 193.37L292.613 194.794L293.191 189.632L283.001 188.074C282.333 189.765 282.155 191.59 282.422 193.37Z" fill="#9BE89B"/>
<path d="M296.94 192.227C297.496 188.533 296.114 185.263 293.854 184.923C291.594 184.582 289.311 187.301 288.755 190.996C288.199 194.69 289.581 197.96 291.841 198.3C294.101 198.64 296.384 195.921 296.94 192.227Z" fill="#026302" stroke="black" stroke-width="0.5" stroke-linecap="round" stroke-linejoin="round"/>
<path d="M291.723 198.265C292.746 198.487 293.903 198.042 294.927 196.885C296.929 194.616 297.641 190.388 296.484 187.451C295.861 185.805 294.749 184.959 293.547 184.915" fill="#013101"/>
<path d="M291.723 198.265C292.746 198.487 293.903 198.042 294.927 196.885C296.929 194.616 297.641 190.388 296.484 187.451C295.861 185.805 294.749 184.959 293.547 184.915" stroke="black" stroke-width="0.5" stroke-linecap="round" stroke-linejoin="round"/>
<path d="M295.312 191.982C295.648 189.746 294.818 187.768 293.457 187.563C292.096 187.358 290.719 189.005 290.383 191.241C290.047 193.476 290.877 195.455 292.238 195.66C293.599 195.865 294.975 194.218 295.312 191.982Z" fill="#013101" stroke="black" stroke-width="0.5" stroke-linecap="round" stroke-linejoin="round"/>
<path d="M342.275 157.547L348.149 177.483L346.814 195.862L341.251 215.753C341.251 215.753 348.371 230.527 349.662 231.684C350.952 232.841 364.97 213.75 364.97 213.75L367.64 206.542L373.024 168.272L374.404 149.938" fill="#026302"/>
<path d="M342.275 157.547L348.149 177.483L346.814 195.862L341.251 215.753C341.251 215.753 348.371 230.527 349.662 231.684C350.952 232.841 364.97 213.75 364.97 213.75L367.64 206.542L373.024 168.272L374.404 149.938" stroke="black" stroke-width="0.5" stroke-linecap="round" stroke-linejoin="round"/>
<path d="M364.035 150.739C365.103 160.796 365.192 170.942 364.347 180.999C364.124 183.891 368.574 184.114 368.841 181.221C369.687 170.764 369.553 160.217 368.485 149.804C368.352 148.603 366.928 147.846 365.815 148.069C364.436 148.336 363.857 149.493 364.035 150.739Z" fill="#039503" stroke="black" stroke-width="0.5" stroke-linecap="round" stroke-linejoin="round"/>
<path d="M336.49 238.048L335.555 225.499L343.254 205.874L350.685 208.188" fill="#42B042"/>
<path d="M336.49 238.048L335.555 225.499L343.254 205.874L350.685 208.188" stroke="black" stroke-width="0.5" stroke-linecap="round" stroke-linejoin="round"/>
<path d="M359.808 220.159L353.89 218.334L355.981 209.167L350.686 208.144C350.686 208.144 342.72 221.761 339.516 226.478C337.647 229.192 336.535 238.092 336.535 238.092L344.1 239.16L352.599 231.729L359.808 220.159Z" fill="#36D136" stroke="black" stroke-width="0.5" stroke-linecap="round" stroke-linejoin="round"/>
<path d="M344.1 239.115L353.712 232.129L364.926 214.596L359.808 220.158L357.494 219.446" fill="#68DD68"/>
<path d="M344.1 239.115L353.712 232.129L364.926 214.596L359.808 220.158L357.494 219.446" stroke="black" stroke-width="0.5" stroke-linecap="round" stroke-linejoin="round"/>
<path d="M375.517 162.62L370.177 201.869L368.085 202.492L368.753 195.417L363.279 195.506L358.785 204.717L352.11 204.851L354.023 166.714L360.342 166.937L363.902 172.41C363.902 172.41 369.509 171.832 369.999 171.787L372.446 163.466L375.517 162.62Z" fill="#36D136" stroke="black" stroke-width="0.5" stroke-linecap="round" stroke-linejoin="round"/>
<path d="M363.902 172.41C363.902 172.41 369.509 171.832 369.999 171.787L372.446 163.466L375.472 162.62L370.132 201.869L368.041 202.448L368.708 195.372L363.235 195.461" fill="#68DD68"/>
<path d="M363.902 172.41C363.902 172.41 369.509 171.832 369.999 171.787L372.446 163.466L375.472 162.62L370.132 201.869L368.041 202.448L368.708 195.372L363.235 195.461" stroke="black" stroke-width="0.5" stroke-linecap="round" stroke-linejoin="round"/>
<path d="M345.791 174.546L354.023 166.714L352.11 204.85L344.1 202.447L345.791 174.546Z" fill="#42B042" stroke="black" stroke-width="0.5" stroke-linecap="round" stroke-linejoin="round"/>
<path d="M362.923 201.157C360.609 209.3 361.366 206.452 357.583 214.062C356.515 216.242 359.942 217.755 361.01 215.619C364.926 207.743 364.258 210.279 366.617 201.824C366.884 200.845 366.038 199.822 365.104 199.644C364.08 199.51 363.101 200.178 362.923 201.157Z" fill="#039503" stroke="black" stroke-width="0.5" stroke-linecap="round" stroke-linejoin="round"/>
<path d="M344.589 142.283L343.966 147.846L342.23 157.68L346.235 163.287C346.235 163.287 356.381 156.434 365.86 156.078C375.338 155.722 376.139 157.369 376.139 157.369C376.94 150.56 376.94 143.707 376.095 136.943C375.516 132.271 374.092 126.53 373.113 124.706L361.143 121.546L344.589 142.283Z" fill="#68DD68" stroke="black" stroke-width="0.5" stroke-linecap="round" stroke-linejoin="round"/>
<path d="M369.646 138.618C370.56 137.622 370.363 135.953 369.205 134.889C368.046 133.824 366.366 133.769 365.452 134.764C364.537 135.759 364.735 137.429 365.893 138.493C367.051 139.557 368.731 139.613 369.646 138.618Z" fill="black" stroke="black" stroke-width="0.5" stroke-miterlimit="4.02" stroke-linecap="round" stroke-linejoin="round"/>
<path d="M367.349 138.723C367.964 138.054 367.832 136.931 367.054 136.216C366.276 135.501 365.146 135.464 364.531 136.134C363.916 136.803 364.048 137.926 364.826 138.641C365.604 139.356 366.733 139.393 367.349 138.723Z" fill="#36D136" stroke="black" stroke-width="0.5" stroke-linecap="round" stroke-linejoin="round"/>
<path d="M351.664 133.428L354.735 158.793L343.209 169.473L337.781 160.751L341.608 151.762L342.275 142.373L351.664 133.428Z" fill="#42B042" stroke="black" stroke-width="0.5" stroke-linecap="round" stroke-linejoin="round"/>
<path d="M354.735 78.5596L319.491 121.413L288.519 106.194L323.763 63.8301L354.735 78.5596Z" fill="black" stroke="black" stroke-width="0.5" stroke-linecap="round" stroke-linejoin="round"/>
<path d="M341.118 94.891L332.084 105.882L313.75 76.913L323.273 65.521L341.118 94.891Z" fill="#026302"/>
<path d="M323.763 67.7906L352.51 81.3186L354.735 78.5596L323.763 63.8301L288.519 106.194L291.056 107.44L323.763 67.7906Z" fill="#36D136" stroke="black" stroke-width="0.5" stroke-linecap="round" stroke-linejoin="round"/>
<path d="M323.763 63.8301V67.7906" stroke="black" stroke-width="0.5" stroke-linecap="round" stroke-linejoin="round"/>
<path d="M300.623 106.328L300.668 106.728L300.223 106.773L298.042 105.304L297.998 104.904L298.443 104.859L300.623 106.328ZM302.759 103.747L302.804 104.147L302.359 104.192L299.867 102.501L299.822 102.1L300.267 102.056L302.759 103.747ZM302.804 104.236L302.848 104.637L301.157 106.684L300.712 106.728L300.668 106.328L302.314 104.281L302.804 104.236ZM305.83 105.838L305.874 106.239L305.429 106.283L302.937 104.592L302.893 104.192L303.338 104.147L305.83 105.838Z" fill="#FFAA08"/>
<path d="M303.738 98.0951L305.34 101.077L305.117 101.344L304.539 100.943L303.115 98.1396L303.382 97.8281L303.738 98.0951ZM305.741 101.833L307.209 104.592L306.942 104.904L306.541 104.637L304.939 101.655L305.117 101.433L305.741 101.833Z" fill="#FFAA08"/>
<path d="M306.586 94.4015L306.631 94.802L304.984 96.8045L304.539 96.849L304.495 96.4485L306.141 94.446L306.586 94.4015ZM307.165 98.362L307.209 98.7625L306.764 98.807L304.584 97.3385L304.539 96.938L304.984 96.8935L307.165 98.362ZM309.301 95.781L309.345 96.1815L308.9 96.226L306.72 94.7575L306.675 94.357L307.12 94.3125L309.301 95.781ZM309.345 96.2705L309.39 96.671L307.699 98.718L307.254 98.7625L307.209 98.362L308.9 96.315L309.345 96.2705ZM309.924 100.275L309.968 100.676L309.523 100.72L307.343 99.252L307.298 98.8515L307.743 98.807L309.924 100.275ZM312.06 97.65L312.104 98.0505L311.659 98.095L309.479 96.6265L309.434 96.226L309.879 96.1815L312.06 97.65ZM312.149 98.1395L312.193 98.54L310.547 100.543L310.102 100.587L310.057 100.186L311.704 98.184L312.149 98.1395Z" fill="#FFAA08"/>
<path d="M308.455 107.128L308.499 107.44L307.164 109.042L306.808 109.086L306.764 108.775L308.099 107.173L308.455 107.128ZM308.944 110.332L308.989 110.644L308.633 110.688L306.897 109.531L306.853 109.22L307.209 109.175L308.944 110.332ZM309.256 107.351L309.3 107.662L308.944 107.707L308.588 107.44L308.544 107.128L308.9 107.084L309.256 107.351ZM310.68 108.686L310.724 108.997L309.389 110.599L309.033 110.644L308.989 110.332L310.324 108.73L310.68 108.686ZM311.169 111.845L311.214 112.157L310.858 112.201L310.502 111.934L310.457 111.623L310.813 111.578L311.169 111.845ZM312.86 109.798L312.905 110.11L312.549 110.154L310.813 108.997L310.769 108.686L311.125 108.641L312.86 109.798ZM312.905 110.199L312.949 110.51L311.614 112.112L311.258 112.157L311.214 111.845L312.549 110.243L312.905 110.199Z" fill="#FFAA08"/>
<path d="M311.081 103.969L311.125 104.281L309.79 105.883L309.434 105.927L309.39 105.616L310.725 104.014L311.081 103.969ZM311.57 107.129L311.615 107.44L311.481 107.618L309.523 106.328L309.479 106.016L309.835 105.972L311.57 107.129ZM313.795 108.642L313.84 108.953L313.484 108.998L311.526 107.663L311.659 107.485L312.015 107.44L313.795 108.642ZM313.039 105.794L313.083 106.105L312.015 107.396L311.659 107.44L311.615 107.129L312.683 105.838L313.039 105.794ZM315.575 106.951L315.62 107.262L314.285 108.864L313.929 108.909L313.884 108.597L315.219 106.995L315.575 106.951Z" fill="#FFAA08"/>
<path d="M313.661 100.854L313.706 101.166L312.371 102.768L312.015 102.812L311.97 102.501L313.305 100.899L313.661 100.854ZM314.106 104.058L314.151 104.37L314.017 104.548L312.059 103.213L312.015 102.901L312.371 102.857L314.106 104.058ZM316.331 105.527L316.376 105.838L316.02 105.883L314.062 104.592L314.195 104.414L314.551 104.37L316.331 105.527ZM315.619 102.679L315.664 102.99L314.596 104.281L314.24 104.325L314.195 104.014L315.263 102.723L315.619 102.679ZM318.111 103.88L318.156 104.192L316.821 105.794L316.465 105.838L316.42 105.527L317.755 103.925L318.111 103.88Z" fill="#FFAA08"/>
<path d="M316.154 97.8277L316.198 98.1392L314.863 99.7412L314.151 99.8302L315.798 97.8277H316.154ZM316.599 101.032L316.643 101.388L316.509 101.566L314.151 99.9637L314.819 99.8747L316.599 101.032ZM316.554 97.7832L318.512 99.0737L318.379 99.2517L318.023 99.2962L316.287 98.1392L316.243 97.8277L316.554 97.7832ZM318.824 102.5L318.913 103.123L316.554 101.521L316.688 101.343L317.044 101.299L318.824 102.5ZM320.559 100.453L320.604 100.765L320.248 100.809L318.512 99.6522L318.468 99.3407L318.601 99.1627L320.559 100.453ZM320.604 100.854L320.648 101.165L319.002 103.123L318.913 102.5L320.248 100.898L320.604 100.854Z" fill="#FFAA08"/>
<path d="M318.69 94.7575L318.735 95.069L317.4 96.671L317.044 96.7155L316.999 96.404L318.334 94.802L318.69 94.7575ZM319.18 97.917L319.224 98.2285L318.868 98.273L317.133 97.116L317.088 96.8045L317.444 96.76L319.18 97.917ZM319.491 94.9355L319.536 95.247L319.18 95.2915L318.824 95.0245L318.779 94.713L319.135 94.6685L319.491 94.9355ZM320.915 96.2705L320.96 96.582L319.625 98.184L319.269 98.2285L319.224 97.917L320.559 96.315L320.915 96.2705ZM321.36 99.43L321.405 99.7415L321.049 99.786L320.693 99.519L320.648 99.2075L321.004 99.163L321.36 99.43ZM323.051 97.383L323.096 97.6945L322.74 97.739L321.004 96.582L320.96 96.2705L321.316 96.226L323.051 97.383ZM323.14 97.7835L323.185 98.095L321.85 99.697L321.494 99.7415L321.449 99.43L322.784 97.828L323.14 97.7835Z" fill="#FFAA08"/>
<path d="M316.02 110.822L316.064 111.133L314.729 112.735L314.017 112.824L315.664 110.822H316.02ZM316.509 114.026L316.554 114.382L316.42 114.56L314.062 112.958L314.729 112.869L316.509 114.026ZM318.2 111.934L318.245 112.246L317.889 112.29L316.153 111.133L316.109 110.822L316.465 110.777L318.2 111.934ZM318.957 115.672L319.001 115.984L318.645 116.028L316.465 114.56L316.598 114.382L316.954 114.337L318.957 115.672ZM318.245 112.335L318.289 112.646L316.954 114.248L316.598 114.293L316.554 113.981L317.889 112.379L318.245 112.335Z" fill="#FFAA08"/>
<path d="M319.358 110.555L319.402 110.911L319.269 111.089L317.044 109.62L316.999 109.309L317.311 109.264L319.358 110.555ZM321.583 112.068L321.627 112.379L321.271 112.424L319.313 111.089L319.447 110.911L319.803 110.866L321.583 112.068ZM323.363 110.377L323.407 110.688L322.072 112.29L321.716 112.335L321.672 112.023L323.007 110.421L323.363 110.377Z" fill="#FFAA08"/>
<path d="M321.138 104.636L321.182 104.948L319.847 106.55L319.491 106.594L319.447 106.283L320.782 104.681L321.138 104.636ZM321.583 107.84L321.627 108.196L321.494 108.374L319.536 107.039L319.491 106.728L319.847 106.683L321.583 107.84ZM323.496 105.882L323.363 106.06L323.007 106.105L321.271 104.948L321.227 104.636L321.583 104.592L323.496 105.882ZM324.03 109.487L324.075 109.798L323.719 109.843L321.538 108.374L321.672 108.196L322.028 108.152L324.03 109.487ZM323.318 106.149L323.363 106.461L322.028 108.063L321.672 108.107L321.627 107.796L322.962 106.194L323.318 106.149ZM323.541 105.927L325.721 107.395L325.766 107.707L325.41 107.751L323.452 106.416L323.407 106.06L323.541 105.927Z" fill="#FFAA08"/>
<path d="M324.119 104.77L324.163 105.126L324.03 105.304L321.849 103.835L321.805 103.435L322.161 103.39L324.119 104.77ZM325.454 103.123L325.231 103.39L322.739 103.746L322.472 103.568L322.695 103.301L325.231 102.945L325.454 103.123ZM323.852 101.343L326.032 102.812L325.899 102.99L325.543 103.034L323.54 101.699L323.496 101.388L323.852 101.343ZM326.611 106.416L326.655 106.728L326.299 106.772L324.119 105.304L324.252 105.126L324.608 105.081L326.611 106.416ZM328.302 104.325L328.346 104.636L327.99 104.681L325.988 103.346L325.943 102.99L326.077 102.812L328.302 104.325Z" fill="#FFAA08"/>
<path d="M326.122 98.5845L326.166 98.896L325.543 99.6525L325.098 99.697L325.143 100.097L324.52 100.854L324.164 100.898L324.119 100.587L325.721 98.629L326.122 98.5845ZM327.279 100.898L327.323 101.21L326.967 101.254L325.232 100.097L325.187 99.786L325.543 99.7415L327.279 100.898ZM329.771 102.589L329.815 102.901L329.459 102.945L327.457 101.61L327.412 101.299L327.768 101.254L329.771 102.589Z" fill="#FFAA08"/>
<path d="M328.836 95.2471L328.881 95.5586L327.546 97.1606L327.19 97.2051L327.145 96.8936L328.48 95.2916L328.836 95.2471ZM329.326 98.4511L329.37 98.7626L329.237 98.9406L327.279 97.6056L327.234 97.2941L327.59 97.2496L329.326 98.4511ZM331.551 99.9641L331.595 100.276L331.239 100.32L329.281 98.9851L329.415 98.8071L329.771 98.7626L331.551 99.9641ZM330.794 97.1161L330.839 97.4276L329.771 98.7181L329.415 98.7626L329.37 98.4511L330.438 97.1606L330.794 97.1161ZM333.286 98.2731L333.331 98.5846L331.996 100.187L331.64 100.231L331.595 99.9196L332.93 98.3176L333.286 98.2731Z" fill="#FFAA08"/>
<path d="M331.328 92.2213L331.372 92.5328L330.037 94.1348L329.325 94.2238L330.972 92.2213H331.328ZM331.817 95.4253L331.862 95.7813L331.728 95.9593L329.414 94.4018L330.082 94.3128L331.817 95.4253ZM331.773 92.1768L333.731 93.5118L333.597 93.6898L333.241 93.7343L331.506 92.5773L331.461 92.2658L331.773 92.1768ZM334.042 96.9383L334.131 97.5613L331.773 95.9593L331.906 95.7813L332.262 95.7368L334.042 96.9383ZM335.733 94.8468L335.778 95.1583L335.422 95.2028L333.686 94.0458L333.642 93.6898L333.775 93.5118L335.733 94.8468ZM335.778 95.2473L335.822 95.5588L334.176 97.5168L334.087 96.8938L335.422 95.2918L335.778 95.2473Z" fill="#FFAA08"/>
<path d="M337.869 92.7102L337.914 93.0217L337.558 93.0662L337.38 92.9327L337.335 92.6212L337.691 92.5767L337.869 92.7102Z" fill="#FFAA08"/>
<path d="M340.406 89.5954L340.451 89.9069L340.095 89.9514L339.917 89.8179L339.872 89.5064L340.228 89.4619L340.406 89.5954Z" fill="#FFAA08"/>
<path d="M342.987 86.5251L343.031 86.8366L342.675 86.8811L342.497 86.7476L342.453 86.4361L342.809 86.3916L342.987 86.5251Z" fill="#FFAA08"/>
</g>
<defs>
<clipPath id="clip0">
<rect width="600" height="400" fill="white"/>
</clipPath>
</defs>
</svg>
