<svg width="600" height="400" viewBox="0 0 600 400" fill="none" xmlns="http://www.w3.org/2000/svg">
<rect width="600" height="400" fill="#F1DFDC"/>
<path d="M477.9 198.765C477.9 214.827 472.709 230.49 463.036 243.358C460.861 246.242 458.51 248.993 455.936 251.567C455.359 252.143 454.783 252.676 454.206 253.253C440.362 266.253 422.126 273.53 403.135 273.53H197.253C156.121 273.53 122.488 239.897 122.488 198.765C122.488 190.601 123.819 182.525 126.437 174.805C126.526 174.45 126.659 174.095 126.792 173.784C129.632 165.886 133.758 158.521 139.039 151.998L139.127 151.865C153.326 134.338 174.668 124.089 197.253 124H403.135C444.267 124 477.9 157.633 477.9 198.765Z" fill="#F5DEDB" stroke="black" stroke-width="0.66" stroke-miterlimit="10"/>
<g opacity="0.1">
<path opacity="0.1" d="M186.249 253.918C181.635 253.918 177.464 257.024 174.89 260.618L174.846 260.707C172.139 264.656 172.805 268.161 176.887 268.427C202.8 269.758 228.934 269.892 254.98 269.892H267.581H280.271C286.572 269.892 292.828 269.892 299.129 269.936C313.062 270.025 327.038 270.113 341.06 270.113C368.037 270.113 395.059 269.758 421.859 268.339C426.563 268.028 428.249 264.523 425.542 260.751L425.498 260.662C422.436 256.758 417.733 254.45 412.763 254.362H412.586C391.864 255.338 370.966 255.604 350.067 255.604C333.028 255.604 315.99 255.427 299.085 255.293C291.852 255.249 284.62 255.205 277.387 255.249H266.294H255.335C232.262 255.205 209.189 255.072 186.249 253.918Z" fill="#662640" stroke="#383838" stroke-width="0.66" stroke-miterlimit="10"/>
</g>
<path d="M465.254 199.653C465.077 198.898 464.899 198.188 464.722 197.434C447.461 128.526 363.866 139.308 363.866 139.308C362.491 138.731 361.87 137.178 362.402 135.847C362.757 134.96 363.6 134.339 364.576 134.205C365.464 134.072 385.963 131.233 408.725 137.578C422.214 141.349 433.618 147.605 442.714 156.169C454.028 166.863 461.616 181.15 465.21 198.632C465.343 198.943 465.343 199.298 465.254 199.653Z" fill="white"/>
<path d="M316.035 183.457L290.654 234.306C287.504 240.651 280.493 241.45 273.172 237.234C270.332 235.548 267.759 233.418 265.54 230.934C256.533 221.128 252.185 206.751 255.291 198.01C255.468 197.522 255.69 196.99 255.912 196.502L277.831 152.663L281.292 145.697C284.442 139.396 291.453 138.553 298.774 142.768C301.614 144.455 304.187 146.584 306.406 149.069C315.946 159.408 320.294 174.893 316.035 183.457Z" fill="#BD82BD" stroke="#383838" stroke-width="0.66" stroke-miterlimit="10"/>
<path d="M327.216 176.934L301.836 227.784C300.993 229.558 299.662 231.023 297.976 232.043L286.75 238.521C288.436 237.501 289.767 236.037 290.61 234.262L316.035 183.457C320.294 174.893 315.99 159.408 306.406 149.025C304.187 146.54 301.614 144.455 298.774 142.769C293.672 139.84 288.746 139.352 285.152 141.438L296.334 134.915C299.928 132.83 304.897 133.318 309.956 136.246C312.795 137.932 315.369 140.062 317.587 142.503C327.127 152.885 331.476 168.371 327.216 176.934Z" fill="#8F628F" stroke="#383838" stroke-width="0.66" stroke-miterlimit="10"/>
<path opacity="0.3" d="M294.736 157.811L273.128 237.19L255.246 197.966C255.424 197.478 255.645 196.946 255.867 196.458L277.787 152.619L294.736 157.811Z" fill="#383838"/>
<path d="M273.216 161.406L258.086 250.325L209.544 235.017L188.645 228.406L196.943 179.509L203.731 139.486L273.216 161.406Z" fill="#FFAAC1" stroke="#383838" stroke-width="0.66" stroke-miterlimit="10"/>
<path d="M273.216 161.405L285.729 160.739L270.598 249.659L258.086 250.324L273.216 161.405Z" fill="#FF9CB7" stroke="#383838" stroke-width="0.66" stroke-miterlimit="10"/>
<path d="M203.731 139.486L216.244 138.82L285.729 160.74L273.216 161.405L203.731 139.486Z" fill="#FF7B9F" stroke="#383838" stroke-width="0.66" stroke-miterlimit="10"/>
<path opacity="0.3" d="M223.61 216.913C223.61 227.828 217.62 237.856 207.991 242.959L187.092 236.392L195.345 187.406C211.141 188.116 223.61 201.117 223.61 216.913Z" fill="#383838"/>
<path d="M199.25 253.918C215.546 253.918 228.757 240.707 228.757 224.411C228.757 208.115 215.546 194.904 199.25 194.904C182.954 194.904 169.743 208.115 169.743 224.411C169.743 240.707 182.954 253.918 199.25 253.918Z" fill="#F0AAA5" stroke="#383838" stroke-width="0.66" stroke-miterlimit="10"/>
<path d="M386.984 171.699C386.673 171.477 386.407 171.299 386.096 171.122C383.39 169.569 380.949 169.436 379.174 170.456L374.915 172.941L368.348 176.757L245.973 235.771C244.242 236.791 243.133 238.965 243.133 242.027C243.133 248.194 247.481 255.738 252.85 258.843C255.645 260.441 258.13 260.574 259.905 259.42C259.861 259.465 259.816 259.465 259.772 259.509L362.535 211.899L392.974 194.195C394.704 193.174 395.813 191 395.813 187.983C395.813 182.126 391.953 175.115 386.984 171.699Z" fill="#662640" stroke="#383838" stroke-width="0.66" stroke-miterlimit="10"/>
<path d="M252.939 236.836C258.13 239.853 262.346 247.13 262.301 253.076C262.257 259.021 258.042 261.462 252.85 258.444C247.659 255.427 243.444 248.15 243.488 242.205C243.532 236.259 247.748 233.818 252.939 236.836Z" fill="#754557" stroke="#141414" stroke-width="0.66" stroke-miterlimit="10"/>
<path d="M363.467 194.55C363.467 197.168 362.535 198.987 361.027 199.875L335.114 214.916C339.285 206.442 342.213 196.636 344.033 189.004L349.623 185.765L353.262 183.679C354.77 182.792 356.856 182.925 359.163 184.256C359.429 184.389 359.651 184.567 359.917 184.744C362.092 187.673 363.467 191.311 363.467 194.55Z" fill="#370F1E"/>
<path d="M381.26 136.602L341.77 205.022L417.289 170.812L381.26 136.602Z" fill="#FFE600" stroke="#383838" stroke-width="0.66" stroke-miterlimit="10"/>
<path d="M417.289 170.812L426.43 225.743L341.77 205.022L417.289 170.812Z" fill="#BFAD00" stroke="#383838" stroke-width="0.66" stroke-miterlimit="10"/>
<path d="M363.334 224.634L363.201 260.885L331.653 242.693L331.786 206.441L363.334 224.634Z" fill="#FF5B86" stroke="#383838" stroke-width="0.66" stroke-miterlimit="10"/>
<path d="M363.334 224.634L395.192 206.131L395.104 242.382L363.201 260.885L363.334 224.634Z" fill="#BF4465" stroke="#383838" stroke-width="0.66" stroke-miterlimit="10"/>
<path d="M331.786 206.441L363.645 187.938L395.192 206.131L363.334 224.633L331.786 206.441Z" fill="#CC6984" stroke="#383838" stroke-width="0.66" stroke-miterlimit="10"/>
<path opacity="0.6" d="M302.501 293.852C356.511 293.852 400.295 291.607 400.295 288.838C400.295 286.069 356.511 283.824 302.501 283.824C248.491 283.824 204.708 286.069 204.708 288.838C204.708 291.607 248.491 293.852 302.501 293.852Z" fill="#662640" stroke="#383838" stroke-width="0.66" stroke-miterlimit="10"/>
<path d="M305.519 242.959L293.006 250.236C291.453 251.123 289.634 251.478 287.859 251.301C287.681 251.301 287.504 251.256 287.326 251.256L299.839 243.98C300.017 244.024 300.194 244.024 300.372 244.024C302.146 244.201 303.966 243.846 305.519 242.959Z" fill="#F5DEDB"/>
<path d="M270.865 197.124L283.378 189.847L283.91 189.891L271.398 197.168L270.865 197.124Z" fill="#F5DEDB"/>
<path d="M312.352 254.673L299.839 261.95C307.072 257.734 309.556 246.331 305.341 232.399C299.75 214.029 284.575 198.277 271.397 197.168L283.91 189.936C297.044 191.045 312.263 206.841 317.854 225.166C322.069 239.054 319.54 250.458 312.352 254.673Z" fill="#B8A7A4" stroke="#383838" stroke-width="0.66" stroke-miterlimit="10"/>
<path d="M271.397 197.123C284.531 198.233 299.75 214.029 305.341 232.354C310.932 250.679 304.809 264.656 291.63 263.547C291.453 263.547 291.275 263.502 291.098 263.502L287.326 251.167C287.504 251.212 287.681 251.212 287.859 251.212C296.156 251.922 300.017 243.136 296.467 231.555C292.917 219.974 283.377 210.08 275.124 209.37C274.947 209.37 274.769 209.325 274.592 209.325L270.82 196.99L271.397 197.123Z" fill="#F5DEDB" stroke="#383838" stroke-width="0.66" stroke-miterlimit="10"/>
<path opacity="0.07" d="M453.718 253.474C439.918 266.519 421.637 273.752 402.647 273.752H196.765C155.633 273.752 122 240.119 122 198.987C122 190.822 123.331 182.747 125.949 175.026C144.186 201.782 172.938 221.083 203.643 232.221C239.628 245.31 313.949 248.327 352.197 249.348C386.052 250.28 420.084 249.703 453.718 253.474Z" fill="black" stroke="black" stroke-width="0.66" stroke-miterlimit="10"/>
</svg>
