<svg id="Layer_1" data-name="Layer 1" xmlns="http://www.w3.org/2000/svg" viewBox="0 0 600 400"><defs><style>.cls-1{fill:#f3fdd8;}.cls-2{fill:#c3f53a;}.cls-3{fill:#92b82c;}.cls-4{fill:#ffaa08;}.cls-5{fill:#cff761;}.cls-6{fill:#627b1d;}.cls-7{fill:#ffbb39;}.cls-8{fill:#ffcc6b;}.cls-9{fill:#e7fbb0;}.cls-10{fill:#dbf989;}.cls-11{fill:#fff;}.cls-12{fill:#231f20;}</style></defs><title>securities copy 2</title><rect class="cls-1" x="-0.5" y="-0.5" width="600" height="401"/><path class="cls-2" d="M400.51959,189.74251a36.20992,36.20992,0,0,0-10.97619-11.88513c.46014,10.18079,7.524,22.5412,16.0697,28.22437l.00122-.01825A54.4692,54.4692,0,0,1,400.51959,189.74251Z"/><path class="cls-3" d="M412.36768,178.61861c.00085-9.98877-2.04364-19.97137-6.1045-27.65411-4.06085,7.68268-6.10534,17.66528-6.10449,27.65411-.00079,9.49921,1.84485,18.99689,5.51843,26.513a38.91581,38.91581,0,0,1,5.99726-16.5415A71.8261,71.8261,0,0,0,412.36768,178.61861Z"/><path class="cls-2" d="M422.53369,177.85738c-8.70953,5.56763-15.96985,18.14325-16.437,28.47C414.80615,200.75979,422.06653,188.18416,422.53369,177.85738Z"/><path class="cls-2" d="M347.9765,202.21822c.46015,10.18079,7.524,22.5412,16.0697,28.22437l.00122-.01819a54.46833,54.46833,0,0,1-5.09472-16.32111A36.21095,36.21095,0,0,0,347.9765,202.21822Z"/><path class="cls-3" d="M364.69629,175.32534c-4.06085,7.68268-6.10535,17.6654-6.10449,27.6543-.0008,9.49926,1.84485,18.99694,5.51843,26.51287a38.91571,38.91571,0,0,1,5.99731-16.54162,71.81952,71.81952,0,0,0,.69324-9.97125C370.80164,192.99081,368.75714,183.00808,364.69629,175.32534Z"/><path class="cls-2" d="M380.9668,202.21822c-8.70954,5.56763-15.96985,18.14325-16.437,28.47C373.23926,225.12063,380.49963,212.545,380.9668,202.21822Z"/><path class="cls-2" d="M317.3858,238.46413a36.21092,36.21092,0,0,0-10.97619-11.88507c.46014,10.18079,7.524,22.5412,16.0697,28.22437l.00122-.01819A54.46834,54.46834,0,0,1,317.3858,238.46413Z"/><path class="cls-3" d="M329.23389,227.34048c.00085-9.98883-2.04364-19.97156-6.1045-27.6543-4.06085,7.68268-6.10534,17.6654-6.10449,27.6543-.00079,9.49926,1.84485,18.99694,5.51843,26.51287a38.9156,38.9156,0,0,1,5.99732-16.54162A71.8226,71.8226,0,0,0,329.23389,227.34048Z"/><path class="cls-2" d="M339.3999,226.57906c-8.70953,5.56763-15.96985,18.14325-16.437,28.47C331.67285,249.48141,338.93274,236.90584,339.3999,226.57906Z"/><path class="cls-2" d="M264.84271,250.9399c.46015,10.18079,7.524,22.5412,16.0697,28.22437l.00123-.01819a54.46805,54.46805,0,0,1-5.09473-16.32111A36.21095,36.21095,0,0,0,264.84271,250.9399Z"/><path class="cls-3" d="M281.5625,224.047c-4.06085,7.68268-6.10535,17.6654-6.10449,27.6543-.0008,9.49926,1.84485,18.99694,5.51843,26.51287a38.91571,38.91571,0,0,1,5.99731-16.54162,71.81952,71.81952,0,0,0,.69324-9.97125C287.66785,241.71248,285.62335,231.72976,281.5625,224.047Z"/><path class="cls-2" d="M281.396,279.40993c8.71-5.56775,15.97033-18.14318,16.43707-28.47C289.12354,256.50759,281.86316,269.08309,281.396,279.40993Z"/><path class="cls-2" d="M223.27582,275.30074c.46051,10.18079,7.52411,22.5412,16.0697,28.22431l.00122-.01813a54.46846,54.46846,0,0,1-5.09473-16.32086A36.21482,36.21482,0,0,0,223.27582,275.30074Z"/><path class="cls-3" d="M239.99561,248.40786c-4.06092,7.68286-6.10535,17.66565-6.1045,27.65448-.00079,9.49927,1.84485,18.99676,5.51844,26.51269a38.91405,38.91405,0,0,1,5.99725-16.54144,71.8225,71.8225,0,0,0,.6933-9.97125C246.101,266.07357,244.05646,256.09078,239.99561,248.40786Z"/><path class="cls-2" d="M239.8291,303.77077c8.71-5.56768,15.97034-18.14325,16.43707-28.47C247.55664,280.86886,240.29633,293.44393,239.8291,303.77077Z"/><path class="cls-4" d="M181.70892,299.66164c.46051,10.18079,7.52442,22.54114,16.06971,28.22431l.00122-.01819a54.46725,54.46725,0,0,1-5.09473-16.3208A36.21485,36.21485,0,0,0,181.70892,299.66164Z"/><path class="cls-3" d="M198.42871,272.7687c-4.06091,7.68286-6.10535,17.66565-6.10449,27.65448-.00079,9.49927,1.84485,18.99676,5.51843,26.51269a38.91493,38.91493,0,0,1,5.99725-16.54138,71.82029,71.82029,0,0,0,.6933-9.97131C204.53406,290.43441,202.48956,280.45162,198.42871,272.7687Z"/><path class="cls-4" d="M198.26221,328.13161c8.71-5.56768,15.97033-18.14325,16.43707-28.47C205.98975,305.22976,198.72943,317.80483,198.26221,328.13161Z"/><path class="cls-5" d="M427.6391,225.87874l-.00354.03614a4.03716,4.03716,0,0,0-.05835.68286c-.00092,1.76306,1.16736,3.57367,3.61371,4.9881a13.53746,13.53746,0,0,0,1.74945.83569,27.30162,27.30162,0,0,0-4.93714-10.599A31.32344,31.32344,0,0,0,427.6391,225.87874Z"/><path class="cls-5" d="M452.36432,225.933a31.48826,31.48826,0,0,0-.97748-7.106,27.55511,27.55511,0,0,0-7.77118,14.59314,15.89744,15.89744,0,0,0,5.25836-1.80158c2.4104-1.394,3.55915-3.1806,3.55848-4.92944a4.05228,4.05228,0,0,0-.06434-.71759Z"/><path class="cls-5" d="M443.1427,205.06338a25.11287,25.11287,0,0,0-2.36407,2.08844,27.99887,27.99887,0,0,0-5.70325,8.22473,28.49157,28.49157,0,0,1,4.44848,6.34778,28.19062,28.19062,0,0,1,3.15607-5.149,26.1267,26.1267,0,0,1,5.66419-5.50366,38.99346,38.99346,0,0,0-4.45331-6.555l-.04737.032C443.67963,204.66207,443.44061,204.8334,443.1427,205.06338Z"/><path class="cls-5" d="M451.23694,218.27254a34.29337,34.29337,0,0,0-2.66-6.75445c-.07178.04938-.15375.10657-.2566.18085-.312.2254-.75946.56579-1.29718,1.023a27.66051,27.66051,0,0,0-9.67926,20.81024,20.78725,20.78725,0,0,0,5.74762-.03833A28.07238,28.07238,0,0,1,451.23694,218.27254Z"/><path class="cls-5" d="M439.21533,222.20852a27.93357,27.93357,0,0,0-4.72912-6.73145l-.00916-.004.00183-.00384a24.31672,24.31672,0,0,0-3.49286-3.07752,33.30956,33.30956,0,0,0-2.86755,8.75385,27.84469,27.84469,0,0,1,5.3869,11.487,18.323,18.323,0,0,0,3.34015.82916,28.27877,28.27877,0,0,1,2.48608-11.31122Z"/><path class="cls-5" d="M434.70856,214.983a27.82406,27.82406,0,0,1,8.85644-10.8493,32.75648,32.75648,0,0,0-3.564-3.59766,37.95236,37.95236,0,0,0-8.79431,11.4A24.31569,24.31569,0,0,1,434.70856,214.983Z"/><path class="cls-6" d="M394.55438,238.22835a27.82463,27.82463,0,0,1,8.85639-10.84912,32.77934,32.77934,0,0,0-3.56385-3.59778,37.95273,37.95273,0,0,0-8.79437,11.40027A24.3119,24.3119,0,0,1,394.55438,238.22835Z"/><path class="cls-6" d="M402.9884,228.309a25.11687,25.11687,0,0,0-2.36407,2.08844,28.00217,28.00217,0,0,0-5.70319,8.22449,28.48592,28.48592,0,0,1,4.44867,6.34753,28.19048,28.19048,0,0,1,3.15582-5.1485,26.13114,26.13114,0,0,1,5.66413-5.50366,38.99393,38.99393,0,0,0-4.45319-6.55505l-.04742.0321C403.52533,227.90768,403.28632,228.079,402.9884,228.309Z"/><path class="cls-6" d="M399.06152,245.45412a27.93029,27.93029,0,0,0-4.72906-6.7312l-.00971-.00427.0019-.00409a24.30723,24.30723,0,0,0-3.49274-3.07715,33.31572,33.31572,0,0,0-2.86762,8.75385,27.83557,27.83557,0,0,1,5.38733,11.48724,18.3232,18.3232,0,0,0,3.3396.82892,28.28,28.28,0,0,1,2.486-11.311Z"/><path class="cls-6" d="M412.21,249.1791a31.49058,31.49058,0,0,0-.97754-7.10639,27.55825,27.55825,0,0,0-7.77063,14.593,15.90015,15.90015,0,0,0,5.25836-1.80151c2.41-1.394,3.5586-3.1803,3.558-4.929a4.06436,4.06436,0,0,0-.06433-.71753Z"/><path class="cls-6" d="M411.08252,241.51827a34.29569,34.29569,0,0,0-2.65991-6.75458c-.07178.04938-.15369.10657-.25653.18085-.312.2254-.75946.5658-1.29718,1.023a27.6604,27.6604,0,0,0-9.67926,20.81036,20.79722,20.79722,0,0,0,5.7481-.03845A28.07458,28.07458,0,0,1,411.08252,241.51827Z"/><path class="cls-6" d="M387.4848,249.12435l-.00354.03613a4.04544,4.04544,0,0,0-.05835.6825c-.00085,1.76312,1.16773,3.574,3.6142,4.98895a13.52754,13.52754,0,0,0,1.74951.83563,27.29843,27.29843,0,0,0-4.93756-10.5993A31.32288,31.32288,0,0,0,387.4848,249.12435Z"/><path class="cls-6" d="M362.83459,251.55508a25.123,25.123,0,0,0-2.36407,2.08837,27.9993,27.9993,0,0,0-5.70325,8.22437,28.49209,28.49209,0,0,1,4.44855,6.34778,28.1907,28.1907,0,0,1,3.156-5.149,26.13018,26.13018,0,0,1,5.66412-5.50372,38.9874,38.9874,0,0,0-4.453-6.55469l-.04761.03223C363.37152,251.15377,363.13251,251.32509,362.83459,251.55508Z"/><path class="cls-6" d="M372.12433,273.18062a4.058,4.058,0,0,0-.06427-.71746l-.00385-.03846a31.49167,31.49167,0,0,0-.97747-7.10638,27.55634,27.55634,0,0,0-7.77118,14.5932,15.89865,15.89865,0,0,0,5.25836-1.80176C370.976,276.71572,372.125,274.92934,372.12433,273.18062Z"/><path class="cls-6" d="M347.331,272.37l-.00354.03613a4.03724,4.03724,0,0,0-.05835.68286c-.00091,1.76306,1.16736,3.57379,3.61371,4.98859a13.53923,13.53923,0,0,0,1.74958.83569,27.29825,27.29825,0,0,0-4.93732-10.599A31.32807,31.32807,0,0,0,347.331,272.37Z"/><path class="cls-6" d="M358.90723,268.69973a27.9333,27.9333,0,0,0-4.72913-6.73145l-.00915-.004.00183-.00384a24.31689,24.31689,0,0,0-3.49286-3.07751,33.31074,33.31074,0,0,0-2.86768,8.75433,27.83756,27.83756,0,0,1,5.38715,11.487,18.32782,18.32782,0,0,0,3.34.829,28.28054,28.28054,0,0,1,2.48621-11.31165Z"/><path class="cls-6" d="M370.92877,264.76388a34.29282,34.29282,0,0,0-2.66-6.75452c-.07178.04938-.15369.10651-.25653.18079-.312.2254-.75946.56579-1.29718,1.023a27.66089,27.66089,0,0,0-9.67926,20.8106,20.79037,20.79037,0,0,0,5.74756-.03851A28.07362,28.07362,0,0,1,370.92877,264.76388Z"/><path class="cls-6" d="M354.40045,261.4742a27.82455,27.82455,0,0,1,8.85669-10.849,32.75652,32.75652,0,0,0-3.56427-3.598,37.95253,37.95253,0,0,0-8.79431,11.4A24.31513,24.31513,0,0,1,354.40045,261.4742Z"/><path class="cls-6" d="M318.75342,291.94582a27.93166,27.93166,0,0,0-4.72925-6.73181l-.00952-.00415.00189-.004a24.30676,24.30676,0,0,0-3.49274-3.07727,33.31269,33.31269,0,0,0-2.86767,8.75428,27.83,27.83,0,0,1,5.387,11.48706,18.32246,18.32246,0,0,0,3.34.8291,28.28067,28.28067,0,0,1,2.48578-11.31092Z"/><path class="cls-6" d="M322.6803,274.80068a25.122,25.122,0,0,0-2.36408,2.08838,28.003,28.003,0,0,0-5.70318,8.22418,28.49369,28.49369,0,0,1,4.44861,6.34772,28.19026,28.19026,0,0,1,3.15588-5.14874,26.13175,26.13175,0,0,1,5.66412-5.50373,38.98876,38.98876,0,0,0-4.45294-6.55468l-.04767.03222C323.21722,274.39937,322.97821,274.5707,322.6803,274.80068Z"/><path class="cls-6" d="M314.24622,284.71963a27.82355,27.82355,0,0,1,8.85669-10.84888,32.77271,32.77271,0,0,0-3.56409-3.59808,37.95214,37.95214,0,0,0-8.79437,11.40026A24.31047,24.31047,0,0,1,314.24622,284.71963Z"/><path class="cls-6" d="M322.629,303.23128a28.08021,28.08021,0,0,1,8.14538-15.2218,34.29508,34.29508,0,0,0-2.65991-6.75458c-.07178.04938-.15368.10657-.25653.18085-.312.2254-.75946.5658-1.29718,1.023a27.661,27.661,0,0,0-9.67926,20.81079,20.79555,20.79555,0,0,0,5.7475-.03827Z"/><path class="cls-6" d="M328.41205,301.35592c2.41-1.39447,3.55865-3.18079,3.558-4.92951a4.06408,4.06408,0,0,0-.06433-.71759l-.00384-.03851a31.49117,31.49117,0,0,0-.97754-7.10632,27.56255,27.56255,0,0,0-7.77118,14.59356A15.8974,15.8974,0,0,0,328.41205,301.35592Z"/><path class="cls-6" d="M307.1767,295.61556l-.00354.03613a4.04641,4.04641,0,0,0-.05835.68262c-.00086,1.76325,1.16772,3.57446,3.61371,4.98889a13.53824,13.53824,0,0,0,1.74963.83576,27.28981,27.28981,0,0,0-4.93726-10.59918A31.31739,31.31739,0,0,0,307.1767,295.61556Z"/><path class="cls-5" d="M282.47522,326.47683a28.07014,28.07014,0,0,1,8.14557-15.22138,34.29455,34.29455,0,0,0-2.66016-6.75482c-.07171.04932-.15368.10651-.25647.18079-.312.2254-.75946.56579-1.29718,1.023a27.662,27.662,0,0,0-9.67926,20.81073,20.79259,20.79259,0,0,0,5.7475-.03833Z"/><path class="cls-5" d="M282.52606,298.04629a25.12391,25.12391,0,0,0-2.36389,2.08838,28.0039,28.0039,0,0,0-5.70312,8.22454,28.4872,28.4872,0,0,1,4.44854,6.348,28.19379,28.19379,0,0,1,3.15613-5.14917,26.13116,26.13116,0,0,1,5.66406-5.50384,38.98814,38.98814,0,0,0-4.45324-6.55487l-.04779.03235C283.063,297.645,282.824,297.81631,282.52606,298.04629Z"/><path class="cls-5" d="M288.25781,324.60152c2.41-1.3941,3.55908-3.18078,3.55841-4.92962a4.05817,4.05817,0,0,0-.06427-.71753l-.00384-.03845a31.48492,31.48492,0,0,0-.97742-7.106,27.55162,27.55162,0,0,0-7.7713,14.5932A15.8973,15.8973,0,0,0,288.25781,324.60152Z"/><path class="cls-5" d="M274.09229,307.9656a27.82535,27.82535,0,0,1,8.85644-10.84925,32.73951,32.73951,0,0,0-3.564-3.59747,37.94248,37.94248,0,0,0-8.7945,11.3999A24.30509,24.30509,0,0,1,274.09229,307.9656Z"/><path class="cls-5" d="M267.02289,318.86117l-.00354.03619a4.03748,4.03748,0,0,0-.05847.68335c-.00092,1.76324,1.16766,3.57373,3.61383,4.9881a13.53614,13.53614,0,0,0,1.74945.83569,27.29944,27.29944,0,0,0-4.93726-10.59863A31.32086,31.32086,0,0,0,267.02289,318.86117Z"/><path class="cls-5" d="M278.59912,315.19143a27.93147,27.93147,0,0,0-4.72961-6.73218l-.00867-.00378.00171-.00367a24.31789,24.31789,0,0,0-3.49292-3.07733,33.31427,33.31427,0,0,0-2.86755,8.7544,27.839,27.839,0,0,1,5.38708,11.48663,18.323,18.323,0,0,0,3.34015.82916,28.28035,28.28035,0,0,1,2.486-11.31128Z"/><path class="cls-5" d="M226.86859,342.10726l-.00354.03613a4.03985,4.03985,0,0,0-.05829.68256c-.00091,1.76312,1.16767,3.574,3.61365,4.98846a13.54141,13.54141,0,0,0,1.74951.8357,27.29237,27.29237,0,0,0-4.93707-10.599A31.3219,31.3219,0,0,0,226.86859,342.10726Z"/><path class="cls-5" d="M251.59381,342.16152a31.49021,31.49021,0,0,0-.97748-7.1059,27.561,27.561,0,0,0-7.77112,14.59308,15.89569,15.89569,0,0,0,5.25831-1.80163c2.4104-1.394,3.55914-3.18061,3.55847-4.92938a4.05341,4.05341,0,0,0-.06433-.7176Z"/><path class="cls-5" d="M238.44531,338.437a27.93822,27.93822,0,0,0-4.72949-6.73138l-.00928-.00409.00183-.00391a24.32309,24.32309,0,0,0-3.49273-3.07733,33.31535,33.31535,0,0,0-2.86762,8.75385,27.83059,27.83059,0,0,1,5.38684,11.48694,18.32176,18.32176,0,0,0,3.34015.82916,28.27988,28.27988,0,0,1,2.486-11.311Z"/><path class="cls-5" d="M233.93805,331.21145a27.82407,27.82407,0,0,1,8.85651-10.84931,32.77319,32.77319,0,0,0-3.56385-3.59778,37.94619,37.94619,0,0,0-8.79443,11.40021A24.31929,24.31929,0,0,1,233.93805,331.21145Z"/><path class="cls-5" d="M242.37219,321.29189a25.12435,25.12435,0,0,0-2.36407,2.08844,27.99943,27.99943,0,0,0-5.70325,8.22467,28.49533,28.49533,0,0,1,4.44873,6.34735,28.19173,28.19173,0,0,1,3.15582-5.1485,26.12907,26.12907,0,0,1,5.66419-5.50366,38.9928,38.9928,0,0,0-4.45325-6.555l-.04742.0321C242.90912,320.89065,242.6701,321.062,242.37219,321.29189Z"/><path class="cls-5" d="M250.46637,334.50112a34.29511,34.29511,0,0,0-2.65991-6.75452c-.07178.04938-.15375.10657-.25659.18091-.312.2254-.75946.56574-1.29718,1.023a27.6604,27.6604,0,0,0-9.67926,20.8103,20.79338,20.79338,0,0,0,5.74761-.03833A28.07747,28.07747,0,0,1,250.46637,334.50112Z"/><path class="cls-4" d="M129.27826,249.76736c10.05481,11.5498,17.12109,30.89105,18.50091,44.2749a139.77309,139.77309,0,0,1,2.2544-23.17938C144.52356,261.7582,136.939,254.16134,129.27826,249.76736Z"/><path class="cls-7" d="M148.366,291.07577a60.53755,60.53755,0,0,1,10.82568-25.01947,120.45392,120.45392,0,0,1,9.77063-34.67035C153.02905,249.63967,149.0744,272.07973,148.366,291.07577Z"/><path class="cls-8" d="M148.23242,298.47188l-.00043.01087.00092.00213a2.49026,2.49026,0,0,0,1.47949,1.99793,7.6675,7.6675,0,0,0,3.7442.89355,7.573,7.573,0,0,0,3.69916-.87939,2.43909,2.43909,0,0,0,1.45563-1.99139l-.00006-.01764.001-.00244c.0097-13.1792,7.51806-35.81427,18.75152-48.71821C162.66022,258.20064,148.22888,278.43514,148.23242,298.47188Z"/><path class="cls-4" d="M179.45966,218.44668c10.0556,11.5498,17.12225,30.89172,18.50213,44.27588a139.63339,139.63339,0,0,1,2.27277-23.27137C194.70868,230.38741,187.10052,222.82583,179.45966,218.44668Z"/><path class="cls-7" d="M219.14447,200.06606c-15.79907,18.1004-19.82208,40.31885-20.5791,59.21234a59.74949,59.74949,0,0,1,10.82257-24.66082A120.49349,120.49349,0,0,1,219.14447,200.06606Z"/><path class="cls-8" d="M198.415,267.14931l-.00043.01349.00092.0022a2.48994,2.48994,0,0,0,1.47955,1.998,7.66244,7.66244,0,0,0,3.74347.89361,7.57541,7.57541,0,0,0,3.69983-.87951,2.43926,2.43926,0,0,0,1.45563-1.9914l-.00006-.01764.001-.00244c.00971-13.1795,7.51844-35.81543,18.75238-48.71912-14.61425,8.37525-29.14587,28.38916-29.13452,48.28443Q198.41284,266.94026,198.415,267.14931Z"/><path class="cls-4" d="M229.64221,187.12728c10.0556,11.54968,17.12232,30.89172,18.5022,44.27563a139.63428,139.63428,0,0,1,2.27264-23.27111C244.89111,199.06783,237.28314,191.50625,229.64221,187.12728Z"/><path class="cls-7" d="M248.74811,227.95571a59.75256,59.75256,0,0,1,10.82245-24.6579,120.49869,120.49869,0,0,1,9.75653-34.55157C253.52893,186.84566,249.50543,209.06264,248.74811,227.95571Z"/><path class="cls-8" d="M248.595,235.41213q0,.20874.0022.41736v.01355l.001.00232a2.49013,2.49013,0,0,0,1.4795,1.99829,7.66351,7.66351,0,0,0,3.74334.89343,7.573,7.573,0,0,0,3.7-.87976,2.43956,2.43956,0,0,0,1.45562-1.99145l-.00006-.01892.001-.00251c.01019-13.1792,7.5188-35.81414,18.7525-48.7174C263.1156,195.50191,248.58362,215.51687,248.595,235.41213Z"/><path class="cls-4" d="M279.82483,155.80746c10.0556,11.54968,17.12231,30.89172,18.5022,44.27563a139.63116,139.63116,0,0,1,2.27264-23.27093C295.07379,167.74819,287.46576,160.18642,279.82483,155.80746Z"/><path class="cls-7" d="M298.93073,196.6354a59.75309,59.75309,0,0,1,10.8222-24.657,120.50157,120.50157,0,0,1,9.75684-34.552C303.71173,155.52566,299.68811,177.74245,298.93073,196.6354Z"/><path class="cls-8" d="M309.15924,204.546l-.00006-.01892.00055-.00128c.0097-13.179,7.51849-35.81506,18.75287-48.71857-14.61457,8.37482-29.14643,28.38983-29.135,48.285q0,.20874.0022.41729v.01361l.001.00232a2.49059,2.49059,0,0,0,1.479,1.9983,7.66771,7.66771,0,0,0,3.74426.89349,7.576,7.576,0,0,0,3.69958-.87933A2.44032,2.44032,0,0,0,309.15924,204.546Z"/><path class="cls-4" d="M330.00818,124.48849c10.055,11.55017,17.12146,30.89209,18.501,44.27557a139.79449,139.79449,0,0,1,2.25457-23.17993C345.25385,136.47921,337.66919,128.88235,330.00818,124.48849Z"/><path class="cls-7" d="M369.69238,106.10653c-15.93243,18.25323-19.88727,40.69287-20.59619,59.6886a60.53717,60.53717,0,0,1,10.82569-25.01764A120.46255,120.46255,0,0,1,369.69238,106.10653Z"/><path class="cls-8" d="M348.9624,173.19887l-.00012.00428.0011.00256a2.49057,2.49057,0,0,0,1.479,1.99829,7.66747,7.66747,0,0,0,3.7442.89349,7.57367,7.57367,0,0,0,3.69916-.87933,2.44,2.44,0,0,0,1.45612-1.99194l-.00006-.01758.00049-.00122c.00927-13.17835,7.5177-35.81464,18.752-48.71887-14.70362,8.43341-29.13538,28.66778-29.13184,48.704Z"/><path class="cls-1" d="M487.62891,249.73421a14.02145,14.02145,0,0,1-6.86487,1.64209,14.18,14.18,0,0,1-6.94129-1.6665c-1.93255-1.11359-2.95312-2.61249-2.9541-4.15259a3.78952,3.78952,0,0,1,.63886-2.04535,13.25849,13.25849,0,0,0-4.306,8.82086l-.00525.03547a4.39273,4.39273,0,0,0-.10517.9519c-.00073,1.8941,1.24775,3.83411,3.86695,5.34875a19.48873,19.48873,0,0,0,9.527,2.27906,19.26139,19.26139,0,0,0,9.41784-2.24439c2.5835-1.49408,3.81714-3.41223,3.81653-5.29242l-.00061-.07373.00275-.00683a13.218,13.218,0,0,0-3.36188-8.80854,3.57207,3.57207,0,0,1,.18079,1.10456C490.53973,247.15407,489.53473,248.63619,487.62891,249.73421Z"/><path class="cls-5" d="M474.03027,241.88265c-1.811,1.048-2.66235,2.38092-2.66162,3.67456-.001,1.3042.86591,2.65582,2.7041,3.71954a13.692,13.692,0,0,0,6.69129,1.59955,13.53289,13.53289,0,0,0,6.61487-1.57513c1.81079-1.04816,2.66223-2.381,2.66156-3.67462.00091-1.3042-.86585-2.65583-2.704-3.71948a13.69358,13.69358,0,0,0-6.69172-1.59968A13.53136,13.53136,0,0,0,474.03027,241.88265Z"/><path class="cls-1" d="M438.59814,278.24886a14.02058,14.02058,0,0,1-6.8645,1.642A14.17826,14.17826,0,0,1,424.792,278.224c-1.93249-1.11334-2.95312-2.61212-2.9541-4.15216a3.78929,3.78929,0,0,1,.63916-2.04584,13.25933,13.25933,0,0,0-4.30633,8.82141l-.00525.03546a4.38708,4.38708,0,0,0-.10511.95166c-.00073,1.89417,1.248,3.83429,3.86689,5.349a19.49083,19.49083,0,0,0,9.52734,2.27906,19.25943,19.25943,0,0,0,9.41748-2.24439c2.5835-1.49408,3.81714-3.41223,3.81653-5.29285l-.00061-.07379.00274-.00683a13.21821,13.21821,0,0,0-3.362-8.80847,3.57064,3.57064,0,0,1,.1809,1.105C441.509,275.66872,440.504,277.15084,438.59814,278.24886Z"/><path class="cls-9" d="M424.99951,270.3973c-1.811,1.048-2.66235,2.38092-2.66162,3.6745-.001,1.30414.86585,2.65564,2.7041,3.71912a13.6903,13.6903,0,0,0,6.69165,1.6,13.53221,13.53221,0,0,0,6.6145-1.57507c1.8108-1.04816,2.66224-2.381,2.66156-3.67462.00092-1.3042-.86584-2.65583-2.704-3.71949a13.69222,13.69222,0,0,0-6.69152-1.59967A13.53181,13.53181,0,0,0,424.99951,270.3973Z"/><path class="cls-1" d="M389.56738,306.763a14.0159,14.0159,0,0,1-6.86407,1.64234,14.18111,14.18111,0,0,1-6.94208-1.66675c-1.93249-1.11334-2.95312-2.61212-2.9541-4.1521a3.78923,3.78923,0,0,1,.639-2.04559A13.25929,13.25929,0,0,0,369.14,309.362l-.00525.03546a4.38775,4.38775,0,0,0-.1051.95172c-.00073,1.89417,1.248,3.83417,3.86688,5.34851a19.48735,19.48735,0,0,0,9.52692,2.27924,19.26016,19.26016,0,0,0,9.418-2.24463c2.5835-1.49359,3.81708-3.41174,3.81647-5.29236l-.00061-.07379.00274-.00683a13.21817,13.21817,0,0,0-3.362-8.80866,3.57065,3.57065,0,0,1,.18091,1.105C392.47821,304.18319,391.47321,305.6653,389.56738,306.763Z"/><path class="cls-9" d="M375.96875,298.912c-1.811,1.048-2.66235,2.381-2.66162,3.67456-.001,1.30414.86584,2.65558,2.7041,3.71911a13.69352,13.69352,0,0,0,6.69208,1.59974,13.52717,13.52717,0,0,0,6.61407-1.57538c1.81079-1.04785,2.66223-2.38074,2.66156-3.67432.00092-1.30426-.86584-2.65582-2.704-3.7193a13.69221,13.69221,0,0,0-6.69153-1.59961A13.53112,13.53112,0,0,0,375.96875,298.912Z"/><path class="cls-1" d="M340.53662,335.27767a14.01524,14.01524,0,0,1-6.86389,1.64233,14.18262,14.18262,0,0,1-6.94226-1.66674c-1.93256-1.11335-2.95313-2.61225-2.9541-4.15235a3.78879,3.78879,0,0,1,.63873-2.0451,13.25957,13.25957,0,0,0-4.30591,8.82086l-.00525.03546a4.38713,4.38713,0,0,0-.1051.95172c-.00073,1.89417,1.248,3.83417,3.86688,5.34845a19.49023,19.49023,0,0,0,9.52735,2.27912,19.25879,19.25879,0,0,0,9.41748-2.24445c2.58355-1.49408,3.81714-3.41174,3.81653-5.29236l-.00062-.07379.00318-.00787a13.21765,13.21765,0,0,0-3.36255-8.808,3.57138,3.57138,0,0,1,.181,1.10535C343.44745,332.69784,342.44244,334.18,340.53662,335.27767Z"/><path class="cls-9" d="M326.938,327.4266c-1.811,1.04779-2.66236,2.38067-2.66162,3.67431-.001,1.30426.8659,2.65583,2.7041,3.7193a13.69441,13.69441,0,0,0,6.69226,1.59979,13.52662,13.52662,0,0,0,6.61389-1.57537c1.81079-1.04786,2.66223-2.38074,2.66156-3.67432.00092-1.30426-.86584-2.65582-2.704-3.7193a13.69256,13.69256,0,0,0-6.692-1.59979A13.52842,13.52842,0,0,0,326.938,327.4266Z"/><path class="cls-1" d="M291.50586,363.79232a14.01524,14.01524,0,0,1-6.86389,1.64233,14.18252,14.18252,0,0,1-6.94226-1.66675c-1.93256-1.11334-2.95313-2.61224-2.9541-4.15234a3.789,3.789,0,0,1,.63867-2.045,13.25918,13.25918,0,0,0-4.30585,8.82074l-.00525.03546a4.38706,4.38706,0,0,0-.1051.95172c-.00073,1.89417,1.248,3.83417,3.86688,5.34845a19.49019,19.49019,0,0,0,9.52741,2.27911,19.26146,19.26146,0,0,0,9.4179-2.24438c2.58307-1.49414,3.81665-3.4118,3.816-5.29242l-.00061-.07379.00318-.00788a13.21766,13.21766,0,0,0-3.36261-8.80834,3.5704,3.5704,0,0,1,.18109,1.10571C294.41669,361.21248,293.41168,362.6946,291.50586,363.79232Z"/><path class="cls-5" d="M277.90723,355.94124c-1.811,1.0478-2.66236,2.38068-2.66162,3.67432-.001,1.30426.8659,2.65582,2.7041,3.7193a13.69441,13.69441,0,0,0,6.69226,1.59979,13.52652,13.52652,0,0,0,6.61389-1.57538c1.81079-1.04785,2.66223-2.38073,2.66156-3.67431.00091-1.30426-.86585-2.65582-2.704-3.7193a13.69257,13.69257,0,0,0-6.692-1.59979A13.52849,13.52849,0,0,0,277.90723,355.94124Z"/><path class="cls-1" d="M89.96484,200.39663c-3.57666-2.81885-7.26416-5.72608-8.38964-10.37988-2.67041,8.75878.375,16.93066,4.98584,20.66943a9.21909,9.21909,0,0,0,8.80517,1.86v-7.23394A33.34822,33.34822,0,0,0,89.96484,200.39663Z"/><path class="cls-1" d="M89.96484,233.46694c-3.57666-2.81885-7.26416-5.72656-8.38964-10.37939-2.67041,8.7583.375,16.93066,4.98584,20.66943a9.21876,9.21876,0,0,0,8.80517,1.85956v-7.234A33.34822,33.34822,0,0,0,89.96484,233.46694Z"/><path class="cls-1" d="M96.085,169.90554v95.73425l.00049.01172c.00049.08643.0957.19385.24658.28174a1.89943,1.89943,0,0,0,1.68848.00342c.14941-.08643.2417-.19336.24072-.27735V223.1144a.36019.36019,0,0,1,.5249-.31982,9.3027,9.3027,0,0,0,10.86475-1.52149c4.19775-3.707,7.27832-11.53662,4.585-20.32812-1.12451,4.65527-4.811,7.564-8.38672,10.38476-2.8584,2.25489-5.55762,4.38477-6.90185,7.29346a.35964.35964,0,0,1-.686-.15088V189.45473a.3597.3597,0,0,1,.48682-.33642,9.61459,9.61459,0,0,0,10.46289-2.50293c3.73291-3.70557,6.21875-10.90967,3.75049-18.98438-1.12842,4.63575-4.83008,7.33985-8.42041,9.96289a28.275,28.275,0,0,0-5.63819,4.89991.35955.35955,0,0,1-.6416-.22266V169.90346c-.36761.026-.73425.05616-1.1084.05616C96.79236,169.95962,96.43939,169.92965,96.085,169.90554Z"/><path class="cls-10" d="M112.06787,154.32583a14.915,14.915,0,1,0-14.915,14.915A14.932,14.932,0,0,0,112.06787,154.32583Zm-25.56885,0a10.65381,10.65381,0,1,1,10.65381,10.65381A10.66622,10.66622,0,0,1,86.499,154.32583Z"/><path class="cls-4" d="M107.0874,154.32583a9.93457,9.93457,0,1,0-9.93457,9.93457A9.94613,9.94613,0,0,0,107.0874,154.32583Zm-14.77441,0a4.83985,4.83985,0,1,1,4.83984,4.84033A4.84574,4.84574,0,0,1,92.313,154.32583Z"/><circle class="cls-11" cx="97.15283" cy="154.32583" r="4.12109"/><path class="cls-2" d="M159.05029,159.12124c-3.57617-2.81934-7.26416-5.72657-8.38916-10.37989-2.6709,8.75879.37451,16.93067,4.98584,20.66993a9.22036,9.22036,0,0,0,8.80469,1.8601v-7.2348A33.35116,33.35116,0,0,0,159.05029,159.12124Z"/><path class="cls-2" d="M159.05029,192.19155c-3.57666-2.81934-7.26416-5.72656-8.38916-10.37988-2.6709,8.75879.37451,16.93164,4.98584,20.67041a9.22107,9.22107,0,0,0,8.80469,1.85956V197.1072A33.34658,33.34658,0,0,0,159.05029,192.19155Z"/><path class="cls-2" d="M165.17041,128.63015v95.73376l.00049.01123c.001.08789.09326.19336.24658.28174a1.89159,1.89159,0,0,0,1.68848.00488c.14941-.08642.2417-.19335.24072-.2788V181.83852a.35974.35974,0,0,1,.5249-.31933,9.30356,9.30356,0,0,0,10.86524-1.52149c4.19775-3.70752,7.27832-11.53711,4.58447-20.32812-1.12451,4.65478-4.81152,7.56347-8.38672,10.38476-2.8584,2.2544-5.55762,4.38428-6.90186,7.29346a.35963.35963,0,0,1-.686-.15088V148.17885a.36022.36022,0,0,1,.48682-.33642,9.6142,9.6142,0,0,0,10.46289-2.50293c3.73291-3.70557,6.21875-10.90918,3.75049-18.98389-1.12842,4.63526-4.83008,7.33985-8.42042,9.96289a28.24426,28.24426,0,0,0-5.63818,4.89991.35955.35955,0,0,1-.6416-.22315V128.62807c-.36762.026-.73425.05616-1.1084.05616C165.87781,128.68423,165.52484,128.65426,165.17041,128.63015Z"/><path class="cls-10" d="M181.15332,113.05a14.915,14.915,0,1,0-14.915,14.915A14.93159,14.93159,0,0,0,181.15332,113.05Zm-25.56885,0a10.65381,10.65381,0,1,1,10.65381,10.65381A10.66611,10.66611,0,0,1,155.58447,113.05Z"/><path class="cls-10" d="M176.17334,113.05a9.93482,9.93482,0,1,0-9.93506,9.93506A9.94571,9.94571,0,0,0,176.17334,113.05Zm-14.7749,0a4.84009,4.84009,0,1,1,4.83984,4.84033A4.84563,4.84563,0,0,1,161.39844,113.05Z"/><path class="cls-11" d="M170.35986,113.05a4.12134,4.12134,0,1,0-4.12158,4.12158A4.126,4.126,0,0,0,170.35986,113.05Z"/><path class="cls-2" d="M228.13623,117.84585c-3.57666-2.81934-7.26465-5.72657-8.39014-10.38037-2.67041,8.75878.375,16.93115,4.98584,20.67041a9.22207,9.22207,0,0,0,8.80518,1.85992v-7.23492A33.35765,33.35765,0,0,0,228.13623,117.84585Z"/><path class="cls-2" d="M228.13623,150.91616c-3.57666-2.81982-7.26465-5.72656-8.39014-10.37988-2.67041,8.7583.375,16.93066,4.98584,20.66992a9.2231,9.2231,0,0,0,8.80518,1.85986v-7.235A33.35961,33.35961,0,0,0,228.13623,150.91616Z"/><path class="cls-2" d="M234.25635,87.35427v95.74548c.00195.08838.09375.19336.24707.28174a1.89524,1.89524,0,0,0,1.688.00391c.14892-.08643.2417-.19287.24072-.27832l.00049-42.54395a.35929.35929,0,0,1,.5249-.31933,9.30617,9.30617,0,0,0,10.86475-1.52149c4.19775-3.70752,7.27832-11.5376,4.58447-20.32861-1.12451,4.65527-4.811,7.564-8.38672,10.38476-2.85791,2.25489-5.55713,4.38428-6.90137,7.29346a.35963.35963,0,0,1-.686-.15088V106.90346a.3595.3595,0,0,1,.48633-.33642,9.61487,9.61487,0,0,0,10.46289-2.50293c3.73291-3.70606,6.21875-10.90967,3.75048-18.98438-1.12841,4.63575-4.83007,7.33985-8.42041,9.96289a28.27551,28.27551,0,0,0-5.63818,4.89991.35955.35955,0,0,1-.6416-.22266V87.35219c-.36762.026-.73425.05616-1.1084.05616C234.96344,87.40835,234.6106,87.37838,234.25635,87.35427Z"/><path class="cls-1" d="M250.23877,71.775a14.9148,14.9148,0,1,0-14.915,14.91455A14.932,14.932,0,0,0,250.23877,71.775Zm-25.56836,0a10.65357,10.65357,0,1,1,10.65332,10.65332A10.66548,10.66548,0,0,1,224.67041,71.775Z"/><path class="cls-5" d="M245.25879,71.775a9.93482,9.93482,0,1,0-9.93506,9.93408A9.94654,9.94654,0,0,0,245.25879,71.775Zm-14.7749,0a4.84009,4.84009,0,1,1,4.83984,4.83984A4.84574,4.84574,0,0,1,230.48389,71.775Z"/><path class="cls-11" d="M239.44482,71.775a4.12085,4.12085,0,1,0-4.12109,4.1206A4.12608,4.12608,0,0,0,239.44482,71.775Z"/><path class="cls-1" d="M297.22168,76.57046c-3.57666-2.81934-7.26465-5.72657-8.39014-10.37989-2.67041,8.75879.375,16.93067,4.98584,20.66993a9.22276,9.22276,0,0,0,8.80518,1.85961V81.48568A33.37261,33.37261,0,0,0,297.22168,76.57046Z"/><path class="cls-2" d="M297.22168,109.64077c-3.57666-2.81983-7.26465-5.72656-8.39014-10.37988-2.67041,8.75878.375,16.93115,4.98584,20.66992a9.221,9.221,0,0,0,8.80518,1.86v-7.235A33.35807,33.35807,0,0,0,297.22168,109.64077Z"/><path class="cls-2" d="M303.3418,46.07937v95.74548c.001.08594.0957.19385.24707.28125a1.89367,1.89367,0,0,0,1.688.00391c.14941-.08643.24169-.19287.24072-.27735l.00049-42.54492a.35946.35946,0,0,1,.5249-.31933,9.30377,9.30377,0,0,0,10.86474-1.52149c4.19776-3.707,7.27833-11.5376,4.585-20.32812-1.12452,4.65478-4.81153,7.56347-8.38721,10.38476-2.85791,2.2544-5.55713,4.38379-6.90137,7.293a.35963.35963,0,0,1-.686-.15088V65.62807a.35965.35965,0,0,1,.48632-.33642,9.61508,9.61508,0,0,0,10.4629-2.50293c3.73291-3.70557,6.21875-10.90967,3.751-18.98389-1.1289,4.63526-4.83056,7.33936-8.4209,9.96289a28.27162,28.27162,0,0,0-5.63818,4.8999.35941.35941,0,0,1-.64111-.22314l-.00043-12.36719c-.36749.02594-.734.05615-1.108.05615C304.04919,46.13344,303.69623,46.10348,303.3418,46.07937Z"/><path class="cls-1" d="M319.32471,30.49917a14.915,14.915,0,1,0-14.915,14.915A14.932,14.932,0,0,0,319.32471,30.49917Zm-25.56885,0A10.65357,10.65357,0,1,1,304.40967,41.153,10.6659,10.6659,0,0,1,293.75586,30.49917Z"/><path class="cls-5" d="M314.34424,30.49917a9.93482,9.93482,0,1,0-9.93457,9.93506A9.94571,9.94571,0,0,0,314.34424,30.49917Zm-14.7749,0a4.84009,4.84009,0,1,1,4.84033,4.84033A4.84583,4.84583,0,0,1,299.56934,30.49917Z"/><path class="cls-11" d="M308.53027,30.49917a4.12085,4.12085,0,1,0-4.1206,4.12109A4.12555,4.12555,0,0,0,308.53027,30.49917Z"/><polygon class="cls-9" points="145.719 225.148 145.719 215.233 135.794 222.631 135.794 232.546 145.719 225.148"/><polygon class="cls-5" points="125.101 225.148 135.025 232.546 135.025 222.631 125.101 215.232 125.101 225.148"/><polygon class="cls-5" points="145.719 214.336 145.719 204.421 135.794 211.819 135.794 221.734 145.719 214.336"/><polygon class="cls-9" points="125.101 214.336 135.025 221.734 135.025 211.819 125.101 204.42 125.101 214.336"/><polygon class="cls-9" points="145.719 193.485 135.794 200.884 135.794 210.922 145.719 203.524 145.719 193.485"/><polygon class="cls-5" points="125.101 203.524 135.025 210.922 135.025 200.884 125.101 193.485 125.101 203.524"/><polygon class="cls-9" points="282.142 141.04 282.142 131.125 272.217 138.523 272.217 148.438 282.142 141.04"/><polygon class="cls-5" points="261.524 131.125 261.524 141.04 271.448 148.438 271.448 138.523 261.524 131.125"/><polygon class="cls-5" points="282.142 130.228 282.142 120.313 272.217 127.711 272.217 137.626 282.142 130.228"/><polygon class="cls-9" points="261.524 120.313 261.524 130.228 271.448 137.626 271.448 127.711 261.524 120.313"/><polygon class="cls-9" points="282.142 109.378 272.217 116.776 272.217 126.814 282.142 119.416 282.142 109.378"/><polygon class="cls-5" points="261.524 109.378 261.524 119.416 271.448 126.814 271.448 116.776 261.524 109.378"/><polygon class="cls-5" points="213.93 182.952 213.93 173.036 204.005 180.435 204.005 190.35 213.93 182.952"/><polygon class="cls-9" points="193.313 173.036 193.313 182.952 203.237 190.35 203.237 180.434 193.313 173.036"/><polygon class="cls-9" points="213.93 172.14 213.93 162.224 204.005 169.623 204.005 179.538 213.93 172.14"/><polygon class="cls-5" points="193.313 162.224 193.313 172.14 203.237 179.537 203.237 169.622 193.313 162.224"/><polygon class="cls-5" points="213.93 161.327 213.93 151.289 204.005 158.688 204.005 168.726 213.93 161.327"/><polygon class="cls-9" points="193.313 151.289 193.313 161.327 203.237 168.725 203.237 158.687 193.313 151.289"/><path class="cls-12" d="M405.57446,206.65584c-.00165.05109-.00909.10389-.01043.15485a.24982.24982,0,0,0,.12493.22284l.25544-.00323c.03174-.01948.06244-.04352.09417-.06318.03174.01966.06244.0437.09418.06318h.001a.24289.24289,0,0,0,.25146.00317l.00293.00006.00116-.00116a.25146.25146,0,0,0,.04511-.04565.2408.2408,0,0,0,.0473-.04914l.001-.0011c.06976-.12823.1275-.26934.1961-.39886,8.87183-5.88129,16.11042-18.65924,16.38746-29.16351a.25.25,0,0,0-.12494-.22284l-.25544.00323a35.158,35.158,0,0,0-10.40069,10.4906,72.66526,72.66526,0,0,0,.5824-9.02649c-.00086-10.24029-2.1225-20.48083-6.38489-28.31756a.25.25,0,0,0-.43921,0c-4.26239,7.83667-6.384,18.07727-6.38489,28.31756a72.40793,72.40793,0,0,0,.69788,9.89606,35.77047,35.77047,0,0,0-10.9654-11.36017l-.25543-.00323a.24983.24983,0,0,0-.12494.22284C389.28912,187.948,396.6217,200.82833,405.57446,206.65584Zm16.95923-28.79846c-.46716,10.32678-7.72754,22.90241-16.437,28.47C406.56384,196.00063,413.82416,183.425,422.53369,177.85738Zm-22.375.76123c-.00085-9.98883,2.04364-19.97143,6.10449-27.65411,4.06086,7.68274,6.10535,17.66534,6.1045,27.65411a71.8261,71.8261,0,0,1-.6933,9.9715,38.91581,38.91581,0,0,0-5.99726,16.5415C402.00354,197.6155,400.1579,188.11782,400.15869,178.61861Zm.3609,11.1239a54.4692,54.4692,0,0,0,5.09473,16.321l-.00122.01825c-8.54566-5.68317-15.60956-18.04358-16.0697-28.22437A36.20992,36.20992,0,0,1,400.51959,189.74251Z"/><path class="cls-12" d="M370.71844,212.00588a72.6575,72.6575,0,0,0,.58234-9.02624c-.00085-10.24036-2.1225-20.481-6.38489-28.31775a.25.25,0,0,0-.43921,0c-4.26239,7.83667-6.384,18.07733-6.38488,28.31775a72.40346,72.40346,0,0,0,.69781,9.89581,35.77018,35.77018,0,0,0-10.96533-11.36011l-.25543-.00323a.24979.24979,0,0,0-.12494.22284c.27832,10.57391,7.6109,23.45422,16.56366,29.28173-.00165.05109-.0091.10389-.01044.15485a.24981.24981,0,0,0,.12494.22284l.25543-.00324c.03174-.01947.06244-.04351.09418-.06317.03174.01966.06244.0437.09418.06317h.0011a.24275.24275,0,0,0,.2514.00318l.00293.00006.00116-.00116a.25173.25173,0,0,0,.0451-.04565.24085.24085,0,0,0,.04731-.04914l.001-.0011c.06977-.12823.12751-.26934.19611-.39886,8.87183-5.88129,16.11041-18.65924,16.38745-29.16351a.24991.24991,0,0,0-.12494-.22284l-.25543.00323A35.15709,35.15709,0,0,0,370.71844,212.00588Zm-6.67224,18.43671c-8.54565-5.68317-15.60955-18.04358-16.0697-28.22437a36.21095,36.21095,0,0,1,10.9762,11.88507,54.46833,54.46833,0,0,0,5.09472,16.32111Zm.064-.95008c-3.67358-7.51593-5.51923-17.01361-5.51843-26.51287-.00086-9.9889,2.04364-19.97162,6.10449-27.6543,4.06085,7.68274,6.10535,17.66547,6.10449,27.6543a71.81952,71.81952,0,0,1-.69324,9.97125A38.91571,38.91571,0,0,0,364.11023,229.49251Zm16.85657-27.27429c-.46717,10.32678-7.72754,22.90241-16.437,28.47C364.997,220.36147,372.25726,207.78585,380.9668,202.21822Z"/><path class="cls-12" d="M322.44067,255.37752c-.00164.05109-.00909.10389-.01043.15485a.24981.24981,0,0,0,.12494.22284l.25543-.00324c.03174-.01947.06244-.04351.09418-.06317.03173.01966.06243.0437.09417.06317h.0011a.24275.24275,0,0,0,.2514.00318l.00293.00006.00116-.00116a.25146.25146,0,0,0,.04511-.04565.2408.2408,0,0,0,.0473-.04914l.001-.0011c.06976-.12823.1275-.26928.1961-.3988,8.87226-5.88129,16.11042-18.6593,16.38746-29.16357a.25.25,0,0,0-.12494-.22284l-.25543.00323a35.157,35.157,0,0,0-10.40064,10.49054,72.66135,72.66135,0,0,0,.58234-9.02624c-.00086-10.24036-2.1225-20.481-6.38489-28.31775a.25.25,0,0,0-.43921,0c-4.26239,7.83667-6.384,18.07733-6.38489,28.31775a72.40505,72.40505,0,0,0,.69782,9.89581,35.77018,35.77018,0,0,0-10.96533-11.36011l-.25544-.00323a.24981.24981,0,0,0-.12494.22284C306.15533,236.6697,313.48792,249.55,322.44067,255.37752Zm16.95923-28.79846c-.46716,10.32678-7.72705,22.90235-16.437,28.47C323.43005,244.72231,330.69037,232.14669,339.3999,226.57906Zm-22.375.76142c-.00085-9.9889,2.04364-19.97162,6.10449-27.6543,4.06086,7.68274,6.10535,17.66547,6.1045,27.6543a71.8226,71.8226,0,0,1-.69324,9.97125,38.9156,38.9156,0,0,0-5.99732,16.54162C318.86975,246.33742,317.02411,236.83974,317.0249,227.34048Zm.3609,11.12365a54.46834,54.46834,0,0,0,5.09473,16.32111l-.00122.01819c-8.54566-5.68317-15.60956-18.04358-16.0697-28.22437A36.21092,36.21092,0,0,1,317.3858,238.46413Z"/><path class="cls-12" d="M297.98529,250.237a35.15694,35.15694,0,0,0-10.40063,10.49054,72.65942,72.65942,0,0,0,.58233-9.02624c-.00085-10.24036-2.1225-20.481-6.38489-28.31775a.25.25,0,0,0-.4392,0c-4.26239,7.83667-6.384,18.07733-6.38489,28.31775a72.40346,72.40346,0,0,0,.69781,9.89581A35.77018,35.77018,0,0,0,264.69049,250.237l-.25543-.00323a.24979.24979,0,0,0-.12494.22284c.27832,10.57391,7.6109,23.45422,16.56366,29.28173-.00165.05109-.00909.10389-.01044.15485a.24982.24982,0,0,0,.12494.22284l.25543-.00324c.03174-.01947.06244-.04351.09418-.06317.03174.01966.06244.0437.09418.06317h.0011a.24275.24275,0,0,0,.2514.00318l.00293.00006.00116-.00116a.25141.25141,0,0,0,.0451-.04565.24085.24085,0,0,0,.04731-.04914l.001-.0011c.06977-.12823.12751-.26928.19611-.3988,8.87225-5.88129,16.1109-18.6593,16.38745-29.16357a.24991.24991,0,0,0-.12494-.22284Zm-17.07288,28.92725c-8.54565-5.68317-15.60955-18.04358-16.0697-28.22437a36.21095,36.21095,0,0,1,10.9762,11.88507,54.46805,54.46805,0,0,0,5.09473,16.32111Zm.064-.95008c-3.67358-7.51593-5.51923-17.01361-5.51843-26.51287-.00086-9.9889,2.04364-19.97162,6.10449-27.6543,4.06085,7.68274,6.10535,17.66546,6.10449,27.6543a71.81952,71.81952,0,0,1-.69324,9.97125A38.91571,38.91571,0,0,0,280.97644,278.21419Zm.41956,1.19574c.46716-10.32684,7.72754-22.90234,16.43707-28.47C297.36633,261.26675,290.106,273.84218,281.396,279.40993Z"/><path class="cls-12" d="M256.4184,274.59786a35.1607,35.1607,0,0,0-10.40064,10.49078,72.66207,72.66207,0,0,0,.58234-9.0263c-.00086-10.2403-2.1225-20.481-6.38489-28.31793a.25.25,0,0,0-.43921,0c-4.26239,7.83691-6.384,18.07757-6.38489,28.31793a72.40427,72.40427,0,0,0,.69782,9.89581,35.77471,35.77471,0,0,0-10.96533-11.36029l-.25544-.00323a.24981.24981,0,0,0-.12493.22284c.2788,10.57391,7.6109,23.45422,16.56365,29.28173-.00164.05109-.00909.10389-.01043.15485a.2497.2497,0,0,0,.12494.22284l.25543-.00324c.03174-.01947.06244-.04351.09418-.06317.03173.01966.06244.0437.09417.06317h.0011a.24252.24252,0,0,0,.25147.00318l.00287.00006.00116-.00116a.25173.25173,0,0,0,.0451-.04565.2408.2408,0,0,0,.0473-.04914l.001-.0011c.06976-.12823.1275-.26928.19611-.3988,8.87225-5.88123,16.1109-18.6593,16.38745-29.16357a.24993.24993,0,0,0-.12494-.22284Zm-17.07288,28.92719c-8.54559-5.68311-15.60919-18.04352-16.0697-28.22431A36.21482,36.21482,0,0,1,234.252,287.18606a54.46846,54.46846,0,0,0,5.09473,16.32086Zm.064-.95c-3.67359-7.51593-5.51923-17.01342-5.51844-26.51269-.00085-9.98883,2.04358-19.97162,6.1045-27.65448,4.06085,7.68292,6.10534,17.66571,6.10449,27.65448a71.8225,71.8225,0,0,1-.6933,9.97125A38.91405,38.91405,0,0,0,239.40955,302.575Zm.41955,1.19574c.46723-10.32684,7.72754-22.90191,16.43707-28.47C255.79944,285.62752,248.53912,298.20309,239.8291,303.77077Z"/><path class="cls-12" d="M214.8515,298.95876a35.16006,35.16006,0,0,0-10.40069,10.49079,72.66227,72.66227,0,0,0,.58239-9.02637c-.00085-10.2403-2.12249-20.481-6.38488-28.31793a.25.25,0,0,0-.43921,0c-4.26239,7.83691-6.384,18.07757-6.38489,28.31793a72.40355,72.40355,0,0,0,.69781,9.89587,35.77449,35.77449,0,0,0-10.96533-11.36029l-.25543-.00329a.24982.24982,0,0,0-.12494.2229c.27881,10.57391,7.61127,23.45416,16.56366,29.28167-.00165.05109-.00909.10389-.01044.15485a.2497.2497,0,0,0,.12494.22284l.25543-.00324c.03174-.01947.06244-.04351.09418-.06317.03174.01966.06244.0437.09418.06317h.0011a.2425.2425,0,0,0,.25146.00318l.00287.00006.00116-.00116a.25178.25178,0,0,0,.04511-.04565.24107.24107,0,0,0,.0473-.04914l.001-.0011c.06976-.12823.1275-.26928.1961-.3988,8.87225-5.88123,16.1109-18.65924,16.38745-29.16357a.24991.24991,0,0,0-.12494-.22284ZM197.77863,327.886c-8.54529-5.68317-15.6092-18.04352-16.06971-28.22431a36.21485,36.21485,0,0,1,10.9762,11.88532,54.46725,54.46725,0,0,0,5.09473,16.3208Zm.064-.95008c-3.67358-7.51593-5.51922-17.01342-5.51843-26.51269-.00086-9.98883,2.04358-19.97162,6.10449-27.65448,4.06085,7.68292,6.10535,17.66571,6.10449,27.65448a71.82029,71.82029,0,0,1-.6933,9.97131A38.91493,38.91493,0,0,0,197.84265,326.93587Zm.41956,1.19574c.46722-10.32678,7.72754-22.90185,16.43707-28.47C214.23254,309.98836,206.97223,322.56393,198.26221,328.13161Z"/><path class="cls-12" d="M452.8642,225.92171c-.36719-15.98266-12.47974-25.71838-12.70056-25.89892l.00006-.00006-.00342-.00293-.01-.00141c-.01471-.01129-.024-.028-.04138-.036l-.10791.01508-.10791-.01508c-.01734.008-.02668.02466-.04139.036l-.01.00141-.00341.00293.00006.00006c-.21527.17651-12.30548,9.89087-12.6991,25.84381h.00043a4.54218,4.54218,0,0,0-.06244.73114c.00091,1.99835,1.32288,3.95691,3.86371,5.42114a18.68048,18.68048,0,0,0,9.14294,2.19415,18.4651,18.4651,0,0,0,9.04016-2.16143c2.50556-1.44391,3.8078-3.38013,3.80848-5.36249a4.56568,4.56568,0,0,0-.06873-.7674Zm-13.34034-4.19738a28.49157,28.49157,0,0,0-4.44848-6.34778,27.99887,27.99887,0,0,1,5.70325-8.22473,25.11287,25.11287,0,0,1,2.36407-2.08844c.29791-.23.53693-.40131.70074-.51465l.04737-.032a38.99346,38.99346,0,0,1,4.45331,6.555,26.1267,26.1267,0,0,0-5.66419,5.50366A28.19062,28.19062,0,0,0,439.52386,221.72433Zm.47712-21.1883a32.75648,32.75648,0,0,1,3.564,3.59766,27.82406,27.82406,0,0,0-8.85644,10.8493,24.31569,24.31569,0,0,0-3.50189-3.047A37.95236,37.95236,0,0,1,440.001,200.536Zm-9.015,11.85565a24.31672,24.31672,0,0,1,3.49286,3.07752l-.00183.00384.00916.004a27.93357,27.93357,0,0,1,4.72912,6.73145l.11627-.058a28.27877,28.27877,0,0,0-2.48608,11.31122,18.323,18.323,0,0,1-3.34015-.82916,27.84469,27.84469,0,0,0-5.3869-11.487A33.30956,33.30956,0,0,1,430.986,212.39168Zm.2049,19.19416c-2.44635-1.41443-3.61463-3.225-3.61371-4.9881a4.03716,4.03716,0,0,1,.05835-.68286l.00354-.03614a31.32344,31.32344,0,0,1,.36413-4.05621,27.30162,27.30162,0,0,1,4.93714,10.599A13.53746,13.53746,0,0,1,431.19092,231.58584Zm6.153,1.94635a27.66051,27.66051,0,0,1,9.67926-20.81024c.53772-.45722.98517-.79761,1.29718-1.023.10285-.07428.18482-.13147.2566-.18085a34.29337,34.29337,0,0,1,2.66,6.75445,28.07238,28.07238,0,0,0-8.14539,15.22132,20.78725,20.78725,0,0,1-5.74762.03833Zm11.53009-1.91364a15.89744,15.89744,0,0,1-5.25836,1.80158,27.55511,27.55511,0,0,1,7.77118-14.59314,31.48826,31.48826,0,0,1,.97748,7.106l.00384.03852a4.05228,4.05228,0,0,1,.06434.71759C452.43317,228.438,451.28442,230.22457,448.874,231.61855Z"/><path class="cls-12" d="M412.7099,249.16781c-.36786-16.01856-12.53632-25.76428-12.70331-25.9021l-.00336.00415-.009-.00781.00293-.00391-.0039-.00293-.00776-.00067c-.01135-.00769-.0177-.02063-.03045-.02649l-.10309.0144-.12054-.01086c-.01508.00757-.02289.02258-.03583.03271l-.00775.0011-.00049.00043-.00012-.00012c-.167.13782-12.30744,9.861-12.70234,25.84649h.00043a4.52969,4.52969,0,0,0-.06238.73078c.00086,1.99853,1.32318,3.95721,3.86414,5.422a18.68021,18.68021,0,0,0,9.142,2.19372,18.47007,18.47007,0,0,0,9.04113-2.1615c2.50519-1.44391,3.80732-3.37982,3.80793-5.36206a4.55843,4.55843,0,0,0-.06867-.76733Zm-13.34009-4.19837a28.48592,28.48592,0,0,0-4.44867-6.34753,28.00217,28.00217,0,0,1,5.70319-8.22449,25.11687,25.11687,0,0,1,2.36407-2.08844c.29792-.23.53693-.4013.70075-.51465l.04742-.0321a38.99393,38.99393,0,0,1,4.45319,6.55505,26.13114,26.13114,0,0,0-5.66413,5.50366A28.19048,28.19048,0,0,0,399.36981,244.96944Zm.47711-21.188a32.77934,32.77934,0,0,1,3.56385,3.59778,27.82463,27.82463,0,0,0-8.85639,10.84912,24.3119,24.3119,0,0,0-3.50183-3.04663A37.95273,37.95273,0,0,1,399.84692,223.78145Zm-9.015,11.856a24.30723,24.30723,0,0,1,3.49274,3.07715l-.0019.00409.00971.00427a27.93029,27.93029,0,0,1,4.72906,6.7312l.11567-.05774a28.28,28.28,0,0,0-2.486,11.311,18.3232,18.3232,0,0,1-3.3396-.82892,27.83557,27.83557,0,0,0-5.38733-11.48724A33.31572,33.31572,0,0,1,390.83191,235.63741Zm.2052,19.19452c-2.44647-1.41492-3.615-3.22583-3.6142-4.98895a4.04544,4.04544,0,0,1,.05835-.6825l.00354-.03613a31.32288,31.32288,0,0,1,.36426-4.05609,27.29843,27.29843,0,0,1,4.93756,10.5993A13.52754,13.52754,0,0,1,391.03711,254.83193Zm6.15253,1.946a27.6604,27.6604,0,0,1,9.67926-20.81036c.53772-.45721.98516-.79761,1.29718-1.023.10284-.07428.18475-.13147.25653-.18085a34.29569,34.29569,0,0,1,2.65991,6.75458,28.07458,28.07458,0,0,0-8.14478,15.22119,20.79722,20.79722,0,0,1-5.7481.03845Zm11.53057-1.91375a15.90015,15.90015,0,0,1-5.25836,1.80151,27.55825,27.55825,0,0,1,7.77063-14.593,31.49058,31.49058,0,0,1,.97754,7.10639l.00385.03851a4.06436,4.06436,0,0,1,.06433.71753C412.27881,251.68386,411.13019,253.47011,408.72021,254.86416Z"/><path class="cls-12" d="M372.62433,273.18062a4.56336,4.56336,0,0,0-.06867-.76721h.00043c-.368-16.01867-12.53595-25.764-12.7041-25.90234l-.00293.00366-.01276-.01184.0019-.00262-.00342-.00245-.00421-.0003c-.00769-.00513-.01154-.01422-.01984-.01849l-.11786.00854-.11786-.00854c-.0083.00427-.01214.01336-.01983.01849l-.00422.0003-.00341.00245.00189.00262-.01306.01215-.00293-.00373c-.167.13782-12.30793,9.861-12.70233,25.8465h.00042a4.54218,4.54218,0,0,0-.06244.73114c.00092,1.99835,1.32288,3.95691,3.86371,5.42163a18.67971,18.67971,0,0,0,9.14252,2.19391,18.46627,18.46627,0,0,0,9.04059-2.16168C371.32111,277.09884,372.62366,275.16292,372.62433,273.18062Zm-13.40851-4.965a28.49209,28.49209,0,0,0-4.44855-6.34778,27.9993,27.9993,0,0,1,5.70325-8.22437,25.123,25.123,0,0,1,2.36407-2.08837c.29792-.23.53693-.40131.70075-.51465l.04761-.03223a38.9874,38.9874,0,0,1,4.453,6.55469,26.13018,26.13018,0,0,0-5.66412,5.50372A28.1907,28.1907,0,0,0,359.21582,268.2156Zm.47705-21.18836a32.75652,32.75652,0,0,1,3.56427,3.598,27.82455,27.82455,0,0,0-8.85669,10.849,24.31513,24.31513,0,0,0-3.50189-3.047A37.95253,37.95253,0,0,1,359.69287,247.02724Zm-9.015,11.85566a24.31689,24.31689,0,0,1,3.49286,3.07751l-.00183.00384.00915.004a27.9333,27.9333,0,0,1,4.72913,6.73145l.11639-.05811a28.28054,28.28054,0,0,0-2.48621,11.31165,18.32782,18.32782,0,0,1-3.34-.829,27.83756,27.83756,0,0,0-5.38715-11.487A33.31074,33.31074,0,0,1,350.67792,258.8829Zm.20489,19.19464c-2.44635-1.4148-3.61462-3.22553-3.61371-4.98859a4.03724,4.03724,0,0,1,.05835-.68286l.00354-.03613a31.32807,31.32807,0,0,1,.36408-4.05573,27.29825,27.29825,0,0,1,4.93732,10.599A13.53923,13.53923,0,0,1,350.88281,278.07754Zm6.153,1.94622a27.66089,27.66089,0,0,1,9.67926-20.8106c.53772-.45722.98517-.79761,1.29718-1.023.10284-.07428.18475-.13141.25653-.18079a34.29282,34.29282,0,0,1,2.66,6.75452,28.07362,28.07362,0,0,0-8.14538,15.22137,20.79037,20.79037,0,0,1-5.74756.03851Zm6.27173-.11224a27.55634,27.55634,0,0,1,7.77118-14.5932,31.49167,31.49167,0,0,1,.97747,7.10638l.00385.03846a4.058,4.058,0,0,1,.06427.71746c.00067,1.74872-1.14832,3.5351-3.55841,4.92914A15.89865,15.89865,0,0,1,363.30756,279.91152Z"/><path class="cls-12" d="M328.66211,301.7889c2.50519-1.44433,3.80731-3.38025,3.80792-5.36249a4.55955,4.55955,0,0,0-.06866-.76733h.00042c-.36785-16.01862-12.53631-25.76434-12.7033-25.90216l-.00354.00445-.00879-.00763.00293-.0039-.00391-.00293-.00775-.00067c-.01135-.00769-.0177-.02063-.03046-.02649l-.10309.0144-.12054-.01086c-.01508.00757-.02289.02258-.03583.03271l-.00775.0011-.0003.00025-.00031-.00043c-.167.13782-12.30743,9.861-12.70233,25.84656h.00043a4.52966,4.52966,0,0,0-.06238.73083c.00085,1.99854,1.32306,3.95758,3.86365,5.42188a18.68132,18.68132,0,0,0,9.143,2.19421A18.468,18.468,0,0,0,328.66211,301.7889Zm3.24365-6.08008a4.06408,4.06408,0,0,1,.06433.71759c.00061,1.74872-1.148,3.535-3.558,4.92951a15.8974,15.8974,0,0,1-5.25885,1.80163,27.56255,27.56255,0,0,1,7.77118-14.59356,31.49117,31.49117,0,0,1,.97754,7.10632ZM319.06165,291.461a28.49369,28.49369,0,0,0-4.44861-6.34772,28.003,28.003,0,0,1,5.70318-8.22418,25.122,25.122,0,0,1,2.36408-2.08838c.29791-.23.53692-.40131.70074-.51465l.04767-.03222a38.98876,38.98876,0,0,1,4.45294,6.55468,26.13175,26.13175,0,0,0-5.66412,5.50373A28.19026,28.19026,0,0,0,319.06165,291.461Zm.47717-21.18829a32.77271,32.77271,0,0,1,3.56409,3.59808,27.82355,27.82355,0,0,0-8.85669,10.84888,24.31047,24.31047,0,0,0-3.50177-3.0467A37.95214,37.95214,0,0,1,319.53882,270.27267Zm-9.015,11.856a24.30676,24.30676,0,0,1,3.49274,3.07727l-.00189.004.00952.00415a27.93166,27.93166,0,0,1,4.72925,6.73181l.11548-.05768a28.28067,28.28067,0,0,0-2.48578,11.31092,18.32246,18.32246,0,0,1-3.34-.8291,27.83,27.83,0,0,0-5.387-11.48706A33.31269,33.31269,0,0,1,310.5238,282.12862Zm.20472,19.19458c-2.446-1.41443-3.61457-3.22564-3.61371-4.98889a4.04641,4.04641,0,0,1,.05835-.68262l.00354-.03613a31.31739,31.31739,0,0,1,.36419-4.05578,27.28981,27.28981,0,0,1,4.93726,10.59918A13.53824,13.53824,0,0,1,310.72852,301.3232Zm11.885-14.70575a27.63734,27.63734,0,0,1,3.94726-4.15869c.53772-.45721.98517-.79761,1.29718-1.023.10285-.07428.18475-.13147.25653-.18085a34.29508,34.29508,0,0,1,2.65991,6.75458,28.08021,28.08021,0,0,0-8.14538,15.2218,20.79555,20.79555,0,0,1-5.7475.03827A27.49357,27.49357,0,0,1,322.61353,286.61745Z"/><path class="cls-12" d="M288.50781,325.03451c2.50525-1.44391,3.80774-3.38019,3.80841-5.36261a4.57022,4.57022,0,0,0-.06866-.76722h.00043c-.36731-15.97924-12.47358-25.71386-12.70057-25.899l.00007-.00006-.00342-.00293-.00031-.00006-.00024-.00019-.00012.00013-.00934-.00129c-.01471-.01129-.024-.028-.04138-.036l-.10791.01508-.10791-.01508c-.01734.008-.02668.02466-.04139.036l-.01.00141-.00341.00293v.00006c-.22156.181-12.30536,9.8938-12.699,25.84338h.00043a4.53913,4.53913,0,0,0-.06256.73163c.00091,1.9986,1.32318,3.957,3.86383,5.42108a18.68128,18.68128,0,0,0,9.14294,2.19422A18.4659,18.4659,0,0,0,288.50781,325.03451Zm3.24414-6.08014a4.05817,4.05817,0,0,1,.06427.71753c.00067,1.74884-1.14837,3.53552-3.55841,4.92962a15.8973,15.8973,0,0,1-5.25842,1.80158,27.55162,27.55162,0,0,1,7.7713-14.5932,31.48492,31.48492,0,0,1,.97742,7.106Zm-12.84436-4.2472a28.4872,28.4872,0,0,0-4.44854-6.348,28.0039,28.0039,0,0,1,5.70312-8.22454,25.12391,25.12391,0,0,1,2.36389-2.08838c.29791-.23.53693-.40125.70069-.51465l.04779-.03235a38.98814,38.98814,0,0,1,4.45324,6.55487,26.13116,26.13116,0,0,0-5.66406,5.50384A28.19379,28.19379,0,0,0,278.90759,314.70717Zm.47718-21.18829a32.73951,32.73951,0,0,1,3.564,3.59747,27.82535,27.82535,0,0,0-8.85644,10.84925,24.30509,24.30509,0,0,0-3.502-3.04682A37.94248,37.94248,0,0,1,279.38477,293.51888Zm-9.01514,11.85559a24.31789,24.31789,0,0,1,3.49292,3.07733l-.00171.00367.00867.00378a27.93147,27.93147,0,0,1,4.72961,6.73218l.11621-.05805a28.28035,28.28035,0,0,0-2.486,11.31128,18.323,18.323,0,0,1-3.34015-.82916,27.839,27.839,0,0,0-5.38708-11.48663A33.31427,33.31427,0,0,1,270.36963,305.37447Zm.20508,19.19434c-2.44617-1.41437-3.61475-3.22486-3.61383-4.9881a4.03748,4.03748,0,0,1,.05847-.68335l.00354-.03619a31.32086,31.32086,0,0,1,.364-4.0553,27.29944,27.29944,0,0,1,4.93726,10.59863A13.53614,13.53614,0,0,1,270.57471,324.56881Zm11.885-14.70557a27.64207,27.64207,0,0,1,3.94726-4.15881c.53772-.45722.98517-.79761,1.29718-1.023.10279-.07428.18476-.13147.25647-.18079a34.29455,34.29455,0,0,1,2.66016,6.75482,28.07014,28.07014,0,0,0-8.14557,15.22138,20.79259,20.79259,0,0,1-5.7475.03833A27.49373,27.49373,0,0,1,282.45972,309.86324Z"/><path class="cls-12" d="M252.09369,342.15029c-.36786-16.01813-12.53632-25.76379-12.70331-25.90167l-.00012.00012-.00049-.00043-.00775-.0011c-.01294-.01013-.02075-.02514-.03583-.03271l-.12067.01086-.103-.01434c-.01276.00586-.019.01868-.0304.02637l-.00781.00073-.00391.00293.003.004-.00867.0075-.00336-.00421c-.16785.13806-12.30762,9.86109-12.7027,25.84687h.00043a4.53687,4.53687,0,0,0-.06238.73077c.00086,1.99853,1.32312,3.95715,3.86365,5.42145a18.68133,18.68133,0,0,0,9.14294,2.19421,18.46564,18.46564,0,0,0,9.04017-2.1615c2.50555-1.44391,3.8078-3.38013,3.80847-5.36242a4.5598,4.5598,0,0,0-.06867-.7674Zm-13.34009-4.19794a28.49533,28.49533,0,0,0-4.44873-6.34735,27.99943,27.99943,0,0,1,5.70325-8.22467,25.12435,25.12435,0,0,1,2.36407-2.08844c.29791-.22992.53693-.40124.70075-.51465l.04742-.0321a38.9928,38.9928,0,0,1,4.45325,6.555,26.12907,26.12907,0,0,0-5.66419,5.50366A28.19173,28.19173,0,0,0,238.7536,337.95235Zm.47711-21.188a32.77319,32.77319,0,0,1,3.56385,3.59778,27.82407,27.82407,0,0,0-8.85651,10.84931,24.31929,24.31929,0,0,0-3.50177-3.04688A37.94619,37.94619,0,0,1,239.23071,316.76436Zm-9.01507,11.856a24.32309,24.32309,0,0,1,3.49273,3.07733l-.00183.00391.00928.00409a27.93822,27.93822,0,0,1,4.72949,6.73138l.11566-.05774a28.27988,28.27988,0,0,0-2.486,11.311,18.32176,18.32176,0,0,1-3.34015-.82916,27.83059,27.83059,0,0,0-5.38684-11.48694A33.31535,33.31535,0,0,1,230.21564,328.62032Zm.20477,19.19409c-2.446-1.41449-3.61456-3.22534-3.61365-4.98846a4.03985,4.03985,0,0,1,.05829-.68256l.00354-.03613a31.3219,31.3219,0,0,1,.36426-4.05615,27.29237,27.29237,0,0,1,4.93707,10.599A13.54141,13.54141,0,0,1,230.42041,347.81441Zm6.153,1.94635a27.6604,27.6604,0,0,1,9.67926-20.8103c.53772-.45721.98516-.79755,1.29718-1.023.10284-.07434.18481-.13153.25659-.18091a34.29511,34.29511,0,0,1,2.65991,6.75452,28.07747,28.07747,0,0,0-8.14533,15.22131,20.79338,20.79338,0,0,1-5.74761.03833Zm11.53009-1.91369a15.89569,15.89569,0,0,1-5.25831,1.80163,27.561,27.561,0,0,1,7.77112-14.59308,31.49021,31.49021,0,0,1,.97748,7.1059l.00385.03857a4.05341,4.05341,0,0,1,.06433.7176C251.66266,344.66646,250.51392,346.45309,248.10352,347.84707Z"/><path class="cls-12" d="M178.41772,248.61434c-6.61132,3.4856-13.22967,9.37122-18.62023,16.61139a120.528,120.528,0,0,1,10.27343-35.11536.25.25,0,0,0-.41192-.27282c-11.15876,12.24243-16.7508,26.45929-19.48047,40.30114a65.29753,65.29753,0,0,0-14.65515-16.704.35894.35894,0,0,0,.22125-.33148V233.47994l10.54834-7.86261a.361.361,0,0,0,.14453-.28857V192.76919a.35969.35969,0,0,0-.57422-.28858l-10.45361,7.793-10.45313-7.793a.35969.35969,0,0,0-.57422.28858v32.55957a.35775.35775,0,0,0,.14454.28759l10.49853,7.82679v19.603a46.825,46.825,0,0,0-6.801-4.43182.25.25,0,0,0-.2995.39148c11.66436,12.52722,19.61395,36.09442,19.60492,49.48212l.001.00225-.00012.01539a2.92769,2.92769,0,0,0,1.70569,2.42443,8.0598,8.0598,0,0,0,3.94916.94635c.04553,0,.09051-.00689.136-.00756.04523.00067.08985.0075.13507.0075a8.0601,8.0601,0,0,0,3.94916-.94629,2.92774,2.92774,0,0,0,1.70563-2.42443l-.00006-.01532.001-.00232c-.009-13.3877,7.94056-36.955,19.60492-49.48212a.25.25,0,0,0-.2995-.39148ZM168.96234,231.386a120.45392,120.45392,0,0,0-9.77063,34.67035A60.53755,60.53755,0,0,0,148.366,291.07577C149.0744,272.07973,153.02905,249.63967,168.96234,231.386Zm-23.24359-17.04987-9.9248,7.39832v-9.91571l9.9248-7.39783Zm0,10.812-9.9248,7.39832V222.6307l9.9248-7.3974Zm0-21.624-9.9248,7.39783V200.88381l9.9248-7.39831ZM125.10107,193.4855l9.92432,7.39831V210.9219l-9.92432-7.39783Zm9.92432,18.33313v9.91577l-9.92432-7.39832v-9.91571Zm-9.92432,13.32946v-9.91571l9.92432,7.39826v9.91577Zm4.17719,24.61927c7.6607,4.394,15.2453,11.99084,20.75531,21.09552a139.77309,139.77309,0,0,0-2.2544,23.17938C146.39935,280.65841,139.33307,261.31716,129.27826,249.76736Zm29.33411,48.71814-.001.00244.00006.01764a2.43909,2.43909,0,0,1-1.45563,1.99139,7.573,7.573,0,0,1-3.69916.87939,7.6675,7.6675,0,0,1-3.7442-.89355,2.49026,2.49026,0,0,1-1.47949-1.99793l-.00092-.00213.00043-.01087c-.00354-20.03674,14.4278-40.27124,29.13147-48.70459C166.13043,262.67123,158.62207,285.3063,158.61237,298.4855Z"/><path class="cls-12" d="M178.09149,217.36379a.24951.24951,0,0,0,.0155.32221c11.66486,12.52722,19.61445,36.09442,19.60541,49.48211l.001.00226-.00012.01538a2.92787,2.92787,0,0,0,1.70569,2.42444,8.06039,8.06039,0,0,0,3.94964.94641c.04517,0,.08978-.00683.13495-.00751.04517.00068.08984.00751.135.00751a8.06258,8.06258,0,0,0,3.94983-.94641,2.92788,2.92788,0,0,0,1.70563-2.42444l-.00006-.01532.001-.00232c-.009-13.38769,7.94055-36.955,19.60492-49.48211a.25.25,0,0,0-.2995-.39148c-6.57586,3.4671-13.2,9.30859-18.604,16.49621a120.5445,120.5445,0,0,1,10.25671-35.00018.25.25,0,0,0-.41192-.27283c-11.13379,12.21533-16.72535,26.39643-19.46161,40.20929-5.85828-9.43652-13.94788-17.20154-21.973-21.43249A.24948.24948,0,0,0,178.09149,217.36379Zm49.45587,1.08276c-11.23394,12.90369-18.74267,35.53962-18.75238,48.71912l-.001.00244.00006.01764a2.43926,2.43926,0,0,1-1.45563,1.9914,7.57541,7.57541,0,0,1-3.69983.87951,7.66244,7.66244,0,0,1-3.74347-.89361,2.48994,2.48994,0,0,1-1.47955-1.998l-.00092-.0022.00043-.01349q-.00221-.2091-.0022-.41833C198.40149,246.83571,212.93311,226.8218,227.54736,218.44655Zm-8.40289-18.38049a120.49349,120.49349,0,0,0-9.75653,34.55152,59.74949,59.74949,0,0,0-10.82257,24.66082C199.32239,240.38491,203.3454,218.16646,219.14447,200.06606Zm-18.90991,39.38513a139.63339,139.63339,0,0,0-2.27277,23.27137c-1.37988-13.38416-8.44653-32.72608-18.50213-44.27588C187.10052,222.82583,194.70868,230.38741,200.23456,239.45119Z"/><path class="cls-12" d="M279.098,186.04446a.24947.24947,0,0,0-.315-.06928c-6.57587,3.46686-13.19995,9.30829-18.604,16.49585a120.54654,120.54654,0,0,1,10.25671-35.00031.25.25,0,0,0-.41193-.27282c-11.13391,12.21545-16.7254,26.39654-19.46167,40.20959-5.85821-9.43658-13.94781-17.2016-21.973-21.43231a.25.25,0,0,0-.2995.39148c11.66486,12.52722,19.61444,36.09442,19.60541,49.48163l.00049.0011-.00012.01648a2.92835,2.92835,0,0,0,1.70562,2.42443,8.06021,8.06021,0,0,0,3.95008.94678c.04516,0,.08972-.00683.13488-.00751.04517.00068.08985.00751.135.00751a8.06229,8.06229,0,0,0,3.95-.94671,2.92806,2.92806,0,0,0,1.70556-2.4245v-.0152l.001-.00238c-.009-13.38721,7.94055-36.95441,19.60492-49.48163A.24949.24949,0,0,0,279.098,186.04446Zm-9.77087-17.29822a120.49869,120.49869,0,0,0-9.75653,34.55157,59.75256,59.75256,0,0,0-10.82245,24.6579C249.50543,209.06264,253.52893,186.84566,269.32709,168.74624Zm-39.68488,18.381c7.64093,4.379,15.2489,11.94055,20.77484,21.00452a139.63428,139.63428,0,0,0-2.27264,23.27111C246.76453,218.019,239.69781,198.677,229.64221,187.12728Zm29.33539,48.71716-.001.00251.00006.01892a2.43956,2.43956,0,0,1-1.45562,1.99145,7.573,7.573,0,0,1-3.7.87976,7.66351,7.66351,0,0,1-3.74334-.89343,2.49013,2.49013,0,0,1-1.4795-1.99829l-.001-.00232v-.01355q-.00221-.20865-.0022-.41736c-.01135-19.89526,14.52063-39.91022,29.13513-48.28509C266.4964,200.0303,258.98779,222.66524,258.9776,235.84444Z"/><path class="cls-12" d="M309.65918,204.546v-.01629h-.00006l.00055-.00129c-.009-13.3872,7.94055-36.9544,19.60541-49.48162a.25.25,0,0,0-.2995-.39148c-6.57593,3.46692-13.20014,9.30841-18.60419,16.49609a120.55123,120.55123,0,0,1,10.2569-35.00055.25.25,0,0,0-.41193-.27283c-11.13391,12.21552-16.72553,26.39667-19.46173,40.20978-5.85822-9.43671-13.94775-17.20178-21.9729-21.43249a.25.25,0,0,0-.2995.39148c11.66485,12.52722,19.61444,36.09442,19.60541,49.48162l.00048.0011-.00012.01648a2.92875,2.92875,0,0,0,1.70563,2.42493,8.06177,8.06177,0,0,0,3.94952.94635c.04548,0,.09046-.0069.13593-.00757.04517.00067.08978.00751.135.00751a8.06267,8.06267,0,0,0,3.94952-.94623A2.92856,2.92856,0,0,0,309.65918,204.546Zm9.85059-67.11969a120.50157,120.50157,0,0,0-9.75684,34.552,59.75309,59.75309,0,0,0-10.8222,24.657C299.68811,177.74245,303.71173,155.52566,319.50977,137.42635Zm-39.68494,18.38111c7.64093,4.379,15.249,11.94073,20.77484,21.0047a139.63116,139.63116,0,0,0-2.27264,23.27093C296.94714,186.69918,289.88043,167.35714,279.82483,155.80746Zm24.1792,51.60986a7.66771,7.66771,0,0,1-3.74426-.89349,2.49059,2.49059,0,0,1-1.479-1.9983l-.001-.00232v-.01361q-.0023-.20855-.0022-.41729c-.01142-19.89521,14.52044-39.91022,29.135-48.285-11.23438,12.90351-18.74317,35.53955-18.75287,48.71857l-.00055.00128.00006.01892a2.44032,2.44032,0,0,1-1.45563,1.992A7.576,7.576,0,0,1,304.004,207.41732Z"/><path class="cls-12" d="M348.25977,173.20864l.001.00226-.00012.01532a2.92873,2.92873,0,0,0,1.70563,2.42492,8.06152,8.06152,0,0,0,3.94952.94635c.04547,0,.09039-.00689.13587-.00756.04516.00067.08978.0075.13494.0075a8.06083,8.06083,0,0,0,3.94916-.94622,2.92845,2.92845,0,0,0,1.70612-2.425l-.00006-.01642.00049-.00116c-.009-13.38721,7.94055-36.95441,19.6054-49.48163a.25.25,0,0,0-.2995-.39148c-6.61139,3.48566-13.22986,9.37134-18.6206,16.61151a120.53812,120.53812,0,0,1,10.27331-35.116.25.25,0,0,0-.41192-.27283c-11.15857,12.24249-16.75049,26.45959-19.48017,40.30163-5.84027-9.47747-13.90289-17.27966-21.95446-21.52435a.25.25,0,0,0-.2995.39148C340.31921,136.25423,348.2688,159.82143,348.25977,173.20864Zm29.83447-48.72009c-11.23425,12.90423-18.74268,35.54052-18.752,48.71887l-.00049.00122.00006.01758a2.44,2.44,0,0,1-1.45612,1.99194,7.57367,7.57367,0,0,1-3.69916.87933,7.66747,7.66747,0,0,1-3.7442-.89349,2.49057,2.49057,0,0,1-1.479-1.99829l-.0011-.00256.00012-.00428v-.00634C348.95886,153.15633,363.39062,132.922,378.09424,124.48855Zm-8.40186-18.382a120.46255,120.46255,0,0,0-9.7705,34.671,60.53717,60.53717,0,0,0-10.82569,25.01764C349.80511,146.7994,353.76,124.35976,369.69238,106.10653Zm-18.92859,39.4776a139.79449,139.79449,0,0,0-2.25457,23.17993c-1.37958-13.38348-8.44605-32.7254-18.501-44.27557C337.66919,128.88235,345.25385,136.47921,350.76379,145.58413Z"/><path class="cls-12" d="M494.22168,253.33413a13.75544,13.75544,0,0,0-5.07593-10.682,7.582,7.582,0,0,0-1.55932-1.1781,10.849,10.849,0,0,0-1.56165-.73486,13.75954,13.75954,0,0,0-19.32013,11.54144,4.88217,4.88217,0,0,0-.11352,1.03949c.00073,2.1283,1.40277,4.21722,4.11688,5.7818a19.97682,19.97682,0,0,0,9.777,2.346,19.74953,19.74953,0,0,0,9.66784-2.31134c2.6789-1.544,4.06592-3.61206,4.06653-5.72547l-.00055-.07006Zm-6.88525-11.42706c1.83819,1.06365,2.70495,2.41528,2.704,3.71948.00067,1.29358-.85077,2.62646-2.66156,3.67462a13.53289,13.53289,0,0,1-6.61487,1.57513,13.692,13.692,0,0,1-6.69129-1.59955c-1.83819-1.06372-2.70507-2.41534-2.7041-3.71954-.00073-1.29364.85065-2.62659,2.66162-3.67456a13.53136,13.53136,0,0,1,6.61444-1.57526A13.69358,13.69358,0,0,1,487.33643,241.90707Zm6.38293,11.504c.00061,1.88019-1.233,3.79834-3.81653,5.29242a19.26139,19.26139,0,0,1-9.41784,2.24439,19.48873,19.48873,0,0,1-9.527-2.27906c-2.6192-1.51464-3.86768-3.45465-3.86695-5.34875a4.39273,4.39273,0,0,1,.10517-.9519l.00525-.03547a13.25849,13.25849,0,0,1,4.306-8.82086,3.78952,3.78952,0,0,0-.63886,2.04535c.001,1.5401,1.02155,3.039,2.9541,4.15259a14.18,14.18,0,0,0,6.94129,1.6665,14.02145,14.02145,0,0,0,6.86487-1.64209c1.90582-1.098,2.91082-2.58014,2.9115-4.10766a3.57207,3.57207,0,0,0-.18079-1.10456,13.218,13.218,0,0,1,3.36188,8.80854l-.00275.00683Z"/><path class="cls-12" d="M440.11365,271.16549a7.58019,7.58019,0,0,0-1.558-1.17682,10.85249,10.85249,0,0,0-1.55951-.73425,13.75921,13.75921,0,0,0-19.32226,11.54089,4.88779,4.88779,0,0,0-.11353,1.03918c.00074,2.12842,1.40314,4.21741,4.11689,5.782a19.97888,19.97888,0,0,0,9.77734,2.346,19.74741,19.74741,0,0,0,9.66748-2.31134c2.67889-1.544,4.06592-3.61206,4.06653-5.7259l-.00055-.07012.00287-.0069A13.75557,13.75557,0,0,0,440.11365,271.16549Zm-1.808-.74378c1.8382,1.06366,2.705,2.41529,2.704,3.71949.00068,1.29358-.85076,2.62646-2.66156,3.67462a13.53221,13.53221,0,0,1-6.6145,1.57507,13.6903,13.6903,0,0,1-6.69165-1.6c-1.83825-1.06348-2.70508-2.415-2.7041-3.71912-.00073-1.29358.85065-2.62653,2.66162-3.6745a13.53181,13.53181,0,0,1,6.61463-1.57526A13.69222,13.69222,0,0,1,438.30566,270.42171Zm6.38294,11.5036c.00061,1.88062-1.233,3.79877-3.81653,5.29285a19.25943,19.25943,0,0,1-9.41748,2.24439,19.49083,19.49083,0,0,1-9.52734-2.27906c-2.6189-1.51471-3.86762-3.45483-3.86689-5.349a4.38708,4.38708,0,0,1,.10511-.95166l.00525-.03546a13.25933,13.25933,0,0,1,4.30633-8.82141,3.78929,3.78929,0,0,0-.63916,2.04584c.001,1.54,1.02161,3.03882,2.9541,4.15216a14.17826,14.17826,0,0,0,6.94165,1.66693,14.02058,14.02058,0,0,0,6.8645-1.642c1.90583-1.098,2.91083-2.58014,2.9115-4.10766a3.57064,3.57064,0,0,0-.1809-1.105,13.21821,13.21821,0,0,1,3.362,8.80847l-.00274.00683Z"/><path class="cls-12" d="M391.08264,299.67977a7.57876,7.57876,0,0,0-1.55774-1.17645,10.85035,10.85035,0,0,0-1.55908-.73413A13.75935,13.75935,0,0,0,368.64313,309.31a4.88876,4.88876,0,0,0-.11353,1.03924c.00073,2.12842,1.40314,4.21735,4.11688,5.7815a19.97548,19.97548,0,0,0,9.77692,2.34625,19.7483,19.7483,0,0,0,9.66791-2.31158c2.67883-1.54352,4.06592-3.61158,4.06653-5.72541l-.00055-.07013.00287-.00689A13.75554,13.75554,0,0,0,391.08264,299.67977Zm-1.80774-.74341c1.8382,1.06348,2.705,2.415,2.704,3.7193.00067,1.29358-.85077,2.62647-2.66156,3.67432a13.52717,13.52717,0,0,1-6.61407,1.57538,13.69352,13.69352,0,0,1-6.69208-1.59974c-1.83826-1.06353-2.70508-2.415-2.7041-3.71911-.00073-1.29358.85065-2.62653,2.66162-3.67456a13.53112,13.53112,0,0,1,6.61462-1.5752A13.69221,13.69221,0,0,1,389.2749,298.93636Zm6.38294,11.5036c.00061,1.88062-1.233,3.79877-3.81647,5.29236a19.26016,19.26016,0,0,1-9.418,2.24463,19.48735,19.48735,0,0,1-9.52692-2.27924c-2.61889-1.51434-3.86761-3.45434-3.86688-5.34851a4.38775,4.38775,0,0,1,.1051-.95172l.00525-.03546a13.25929,13.25929,0,0,1,4.30622-8.8211,3.78923,3.78923,0,0,0-.639,2.04559c.001,1.54,1.02161,3.03876,2.9541,4.1521a14.18111,14.18111,0,0,0,6.94208,1.66675,14.0159,14.0159,0,0,0,6.86407-1.64234c1.90583-1.09772,2.91083-2.57983,2.9115-4.10736a3.57065,3.57065,0,0,0-.18091-1.105,13.21817,13.21817,0,0,1,3.362,8.80866l-.00274.00683Z"/><path class="cls-12" d="M342.05127,328.19381a7.58152,7.58152,0,0,0-1.55713-1.17584,10.855,10.855,0,0,0-1.559-.73413,13.7594,13.7594,0,0,0-19.32275,11.54077,4.88876,4.88876,0,0,0-.11353,1.03924c.00073,2.12842,1.40314,4.21735,4.11688,5.7815a19.97892,19.97892,0,0,0,9.77735,2.34607,19.74739,19.74739,0,0,0,9.66748-2.31141c2.67883-1.544,4.06591-3.61157,4.06653-5.7254l-.00055-.069.00335-.00805A13.75524,13.75524,0,0,0,342.05127,328.19381Zm-1.80713-.7428c1.8382,1.06348,2.705,2.415,2.704,3.7193.00067,1.29358-.85077,2.62646-2.66156,3.67432a13.52662,13.52662,0,0,1-6.61389,1.57537,13.69441,13.69441,0,0,1-6.69226-1.59979c-1.8382-1.06347-2.70508-2.415-2.7041-3.7193-.00074-1.29364.85064-2.62652,2.66162-3.67431a13.52842,13.52842,0,0,1,6.6142-1.57538A13.69256,13.69256,0,0,1,340.24414,327.451Zm6.38294,11.5036c.00061,1.88062-1.233,3.79828-3.81653,5.29236a19.25879,19.25879,0,0,1-9.41748,2.24445,19.49023,19.49023,0,0,1-9.52735-2.27912c-2.61889-1.51428-3.86761-3.45428-3.86688-5.34845a4.38713,4.38713,0,0,1,.1051-.95172l.00525-.03546a13.25957,13.25957,0,0,1,4.30591-8.82086,3.78879,3.78879,0,0,0-.63873,2.0451c.001,1.5401,1.02154,3.039,2.9541,4.15235a14.18262,14.18262,0,0,0,6.94226,1.66674,14.01524,14.01524,0,0,0,6.86389-1.64233c1.90582-1.09772,2.91083-2.57983,2.9115-4.10736a3.57138,3.57138,0,0,0-.181-1.10535,13.21765,13.21765,0,0,1,3.36255,8.808l-.00318.00787Z"/><path class="cls-12" d="M293.01953,356.70748a7.58267,7.58267,0,0,0-1.55615-1.17487,10.85162,10.85162,0,0,0-1.55786-.73376,13.75972,13.75972,0,0,0-19.32392,11.5404,4.88891,4.88891,0,0,0-.11352,1.03925c.00073,2.12842,1.40314,4.21735,4.11688,5.78149a19.97877,19.97877,0,0,0,9.77741,2.34607,19.74938,19.74938,0,0,0,9.6679-2.3114c2.67835-1.544,4.06543-3.61157,4.066-5.7254l-.00055-.069.00336-.00806A13.75534,13.75534,0,0,0,293.01953,356.70748Zm-1.80615-.74182c1.83819,1.06348,2.705,2.415,2.704,3.7193.00067,1.29358-.85077,2.62646-2.66156,3.67431a13.52652,13.52652,0,0,1-6.61389,1.57538,13.69441,13.69441,0,0,1-6.69226-1.59979c-1.8382-1.06348-2.70508-2.415-2.7041-3.7193-.00074-1.29364.85064-2.62652,2.66162-3.67432a13.52849,13.52849,0,0,1,6.61419-1.57537A13.69257,13.69257,0,0,1,291.21338,355.96566Zm6.38293,11.5036c.00061,1.88062-1.233,3.79828-3.816,5.29242a19.26146,19.26146,0,0,1-9.4179,2.24438A19.49019,19.49019,0,0,1,274.835,372.727c-2.6189-1.51428-3.86761-3.45428-3.86688-5.34845a4.38706,4.38706,0,0,1,.1051-.95172l.00525-.03546a13.25918,13.25918,0,0,1,4.30585-8.82074,3.789,3.789,0,0,0-.63867,2.045c.001,1.5401,1.02154,3.039,2.9541,4.15234a14.18252,14.18252,0,0,0,6.94226,1.66675,14.01524,14.01524,0,0,0,6.86389-1.64233c1.90582-1.09772,2.91083-2.57984,2.9115-4.10736a3.5704,3.5704,0,0,0-.18109-1.10571,13.21766,13.21766,0,0,1,3.36261,8.80834l-.00318.00788Z"/><path class="cls-12" d="M114.08838,199.151a.35988.35988,0,0,0-.31494.314c-.62989,5.19336-4.56446,8.29834-8.36963,11.30029-2.50977,1.98-4.8999,3.86572-6.42334,6.29443V189.96206a10.32515,10.32515,0,0,0,10.73633-2.83692c4.09765-4.06689,6.76172-12.15429,3.477-21.0542a.35969.35969,0,0,0-.69434.08106c-.62988,5.19678-4.57129,8.07666-8.38281,10.86182a34.36837,34.36837,0,0,0-5.13623,4.28173L98.98,169.84341a15.62737,15.62737,0,1,0-3.61383.00622v34.36658a38.6342,38.6342,0,0,0-4.956-4.384c-3.80713-3.001-7.74317-6.104-8.37256-11.29687a.35965.35965,0,0,0-.69434-.08154c-3.52978,9.564-.2749,18.70508,4.76465,22.7915a10.29823,10.29823,0,0,0,6.52588,2.46045,9.74031,9.74031,0,0,0,2.73242-.40558V237.2867a38.63079,38.63079,0,0,0-4.956-4.38421c-3.80713-3.001-7.74317-6.10352-8.37256-11.29737a.36036.36036,0,0,0-.31543-.31347.36942.36942,0,0,0-.37891.23291c-3.52978,9.564-.2749,18.70459,4.76465,22.791a10.29823,10.29823,0,0,0,6.52588,2.46045,9.74257,9.74257,0,0,0,2.73242-.40539v19.28283l.00049.022a1.08718,1.08718,0,0,0,.606.88037,2.46778,2.46778,0,0,0,1.20947.29345,2.43851,2.43851,0,0,0,1.19824-.29052,1.06449,1.06449,0,0,0,.6001-.90381V223.68862a9.9873,9.9873,0,0,0,11.14648-1.876c4.5835-4.04785,7.89649-12.793,4.34082-22.42871A.366.366,0,0,0,114.08838,199.151ZM95.36621,245.61654A9.21876,9.21876,0,0,1,86.561,243.757c-4.61084-3.73877-7.65625-11.91113-4.98584-20.66943,1.12548,4.65283,4.813,7.56054,8.38964,10.37939a33.34822,33.34822,0,0,1,5.40137,4.91559Zm0-33.07038a9.21909,9.21909,0,0,1-8.80517-1.86c-4.61084-3.73877-7.65625-11.91065-4.98584-20.66943,1.12548,4.6538,4.813,7.561,8.38964,10.37988a33.34822,33.34822,0,0,1,5.40137,4.91559ZM82.23779,154.32583a14.915,14.915,0,1,1,14.915,14.915A14.93233,14.93233,0,0,1,82.23779,154.32583Zm27.41309,66.94726a9.3027,9.3027,0,0,1-10.86475,1.52149.36019.36019,0,0,0-.5249.31982v42.54492c.001.084-.09131.19092-.24072.27735a1.89943,1.89943,0,0,1-1.68848-.00342c-.15088-.08789-.24609-.19531-.24658-.28174l-.00049-.01172V169.90554c.35443.02411.7074.05408,1.06787.05408.37415,0,.74079-.03016,1.1084-.05616v12.36768a.35955.35955,0,0,0,.6416.22266,28.275,28.275,0,0,1,5.63819-4.89991c3.59033-2.623,7.292-5.32714,8.42041-9.96289,2.46826,8.07471-.01758,15.27881-3.75049,18.98438a9.61459,9.61459,0,0,1-10.46289,2.50293.3597.3597,0,0,0-.48682.33642v29.01758a.35964.35964,0,0,0,.686.15088c1.34423-2.90869,4.04345-5.03857,6.90185-7.29346,3.57568-2.8208,7.26221-5.72949,8.38672-10.38476C116.9292,209.73647,113.84863,217.56606,109.65088,221.27309Z"/><path class="cls-12" d="M107.80664,154.32583a10.65381,10.65381,0,1,0-10.65381,10.65381A10.6659,10.6659,0,0,0,107.80664,154.32583Zm-20.58838,0a9.93457,9.93457,0,1,1,9.93457,9.93457A9.94613,9.94613,0,0,1,87.21826,154.32583Z"/><path class="cls-12" d="M101.99268,154.32583a4.83985,4.83985,0,1,0-4.83985,4.84033A4.84542,4.84542,0,0,0,101.99268,154.32583Zm-8.96094,0a4.1211,4.1211,0,1,1,4.12109,4.12109A4.12566,4.12566,0,0,1,93.03174,154.32583Z"/><path class="cls-12" d="M159.49561,191.6271c-3.80665-3.001-7.74268-6.104-8.37256-11.29688a.35893.35893,0,0,0-.31494-.314.36306.36306,0,0,0-.3794.23242c-3.52978,9.564-.2749,18.70508,4.76514,22.792a10.296,10.296,0,0,0,6.52539,2.46045,9.7437,9.7437,0,0,0,2.73242-.40533v19.28228l.00049.02246a1.07249,1.07249,0,0,0,.606.87891,2.62191,2.62191,0,0,0,2.40771.0044,1.06459,1.06459,0,0,0,.6001-.9043v-41.9668a9.98549,9.98549,0,0,0,11.147-1.87646c4.583-4.04786,7.896-12.793,4.34033-22.42823a.35963.35963,0,0,0-.69433.08155c-.62989,5.19384-4.56446,8.29785-8.37012,11.30029-2.50928,1.97949-4.89941,3.86523-6.42285,6.29395V148.68618a10.324,10.324,0,0,0,10.73681-2.83643c4.09717-4.06738,6.76123-12.15478,3.47657-21.05468a.35965.35965,0,0,0-.69434.08154c-.62988,5.19678-4.57129,8.07666-8.38281,10.86181a34.36417,34.36417,0,0,0-5.13623,4.28174V128.568a15.62729,15.62729,0,1,0-3.61426.00629V162.941a38.63086,38.63086,0,0,0-4.95605-4.38422c-3.80665-3.001-7.74268-6.10449-8.37256-11.29736a.3594.3594,0,0,0-.31494-.314.36785.36785,0,0,0-.3794.23242c-3.52978,9.56445-.2749,18.70556,4.76514,22.792a10.29558,10.29558,0,0,0,6.52539,2.46094,9.74135,9.74135,0,0,0,2.73242-.40546v23.98584A38.62921,38.62921,0,0,0,159.49561,191.6271ZM151.32324,113.05a14.915,14.915,0,1,1,14.915,14.915A14.93159,14.93159,0,0,1,151.32324,113.05Zm14.915,15.63428c.37415,0,.74078-.03016,1.1084-.05616v12.36719a.35955.35955,0,0,0,.6416.22315,28.24426,28.24426,0,0,1,5.63818-4.89991c3.59034-2.623,7.292-5.32763,8.42042-9.96289,2.46826,8.07471-.01758,15.27832-3.75049,18.98389a9.6142,9.6142,0,0,1-10.46289,2.50293.36022.36022,0,0,0-.48682.33642v29.01807a.35963.35963,0,0,0,.686.15088c1.34424-2.90918,4.04346-5.03906,6.90186-7.29346,3.5752-2.82129,7.26221-5.73,8.38672-10.38476,2.69385,8.791-.38672,16.6206-4.58447,20.32812a9.30356,9.30356,0,0,1-10.86524,1.52149.35974.35974,0,0,0-.5249.31933V224.383c.001.08545-.09131.19238-.24072.2788a1.89159,1.89159,0,0,1-1.68848-.00488c-.15332-.08838-.2456-.19385-.24658-.28174l-.00049-.01123V128.63015C165.52484,128.65426,165.87781,128.68423,166.23828,128.68423Zm-10.59131,40.727c-4.61133-3.73926-7.65674-11.91114-4.98584-20.66993,1.125,4.65332,4.813,7.56055,8.38916,10.37989a33.35116,33.35116,0,0,1,5.40137,4.91534v7.2348A9.22036,9.22036,0,0,1,155.647,169.41128Zm8.80469,34.93036a9.22107,9.22107,0,0,1-8.80469-1.85956c-4.61133-3.73877-7.65674-11.91162-4.98584-20.67041,1.125,4.65332,4.8125,7.56054,8.38916,10.37988a33.34658,33.34658,0,0,1,5.40137,4.91565Z"/><path class="cls-12" d="M176.89209,113.05a10.65381,10.65381,0,1,0-10.65381,10.65381A10.66579,10.66579,0,0,0,176.89209,113.05Zm-20.58838,0a9.93482,9.93482,0,1,1,9.93457,9.93506A9.94529,9.94529,0,0,1,156.30371,113.05Z"/><path class="cls-12" d="M171.07861,113.05a4.84009,4.84009,0,1,0-4.84033,4.84033A4.84574,4.84574,0,0,0,171.07861,113.05Zm-8.96142,0a4.12134,4.12134,0,1,1,4.12109,4.12158A4.12555,4.12555,0,0,1,162.11719,113.05Z"/><path class="cls-12" d="M228.58105,150.35122c-3.80664-3.001-7.74316-6.104-8.37255-11.29688a.3594.3594,0,0,0-.31495-.314.36481.36481,0,0,0-.37939.23242c-3.52978,9.56445-.2749,18.70508,4.76514,22.7915a10.29445,10.29445,0,0,0,6.52539,2.46143,9.74135,9.74135,0,0,0,2.73242-.40546v19.28778a1.08144,1.08144,0,0,0,.60693.896,2.62287,2.62287,0,0,0,2.40723.00391,1.06594,1.06594,0,0,0,.6001-.9043V141.13735a9.98493,9.98493,0,0,0,11.147-1.876c4.583-4.04785,7.89648-12.79345,4.34033-22.42871a.35995.35995,0,0,0-.69482.08155c-.6294,5.19336-4.564,8.29736-8.36914,11.2998-2.50928,1.98-4.89942,3.86524-6.42334,6.29443V107.41079a10.32737,10.32737,0,0,0,10.73681-2.83692c4.09766-4.06689,6.76172-12.15429,3.47657-21.0542a.35969.35969,0,0,0-.69434.08106c-.62988,5.19678-4.57129,8.07666-8.38281,10.86182a34.39312,34.39312,0,0,0-5.13623,4.28173V87.29207a15.62754,15.62754,0,1,0-3.61426.00623v34.36682a38.62852,38.62852,0,0,0-4.95606-4.38373c-3.80664-3.001-7.74316-6.10449-8.37255-11.29736a.35964.35964,0,0,0-.69434-.08154c-3.52978,9.564-.2749,18.70459,4.76514,22.7915a10.29383,10.29383,0,0,0,6.52539,2.46094,9.7436,9.7436,0,0,0,2.73242-.40527v23.98553A38.61569,38.61569,0,0,0,228.58105,150.35122ZM220.40918,71.775A14.9148,14.9148,0,1,1,235.32373,86.6896,14.93159,14.93159,0,0,1,220.40918,71.775Zm14.91455,15.6333c.37415,0,.74078-.03015,1.1084-.05616V99.71987a.35955.35955,0,0,0,.6416.22266,28.27551,28.27551,0,0,1,5.63818-4.89991c3.59034-2.623,7.292-5.32714,8.42041-9.96289,2.46827,8.07471-.01757,15.27832-3.75048,18.98438A9.61487,9.61487,0,0,1,236.919,106.567a.3595.3595,0,0,0-.48633.33642V135.921a.35963.35963,0,0,0,.686.15088c1.34424-2.90918,4.04346-5.03857,6.90137-7.29346,3.57568-2.8208,7.26221-5.72949,8.38672-10.38476,2.69385,8.791-.38672,16.62109-4.58447,20.32861a9.30617,9.30617,0,0,1-10.86475,1.52149.35929.35929,0,0,0-.5249.31933l-.00049,42.54395c.001.08545-.0918.19189-.24072.27832a1.89524,1.89524,0,0,1-1.688-.00391c-.15332-.08838-.24512-.19336-.24707-.28174V87.35427C234.6106,87.37838,234.96344,87.40835,235.32373,87.40835Zm-10.5918,40.72754c-4.61084-3.73926-7.65625-11.91163-4.98584-20.67041,1.12549,4.6538,4.81348,7.561,8.39014,10.38037a33.35765,33.35765,0,0,1,5.40088,4.915v7.23492A9.22207,9.22207,0,0,1,224.73193,128.13589Zm8.80518,34.93017a9.2231,9.2231,0,0,1-8.80518-1.85986c-4.61084-3.73926-7.65625-11.91162-4.98584-20.66992,1.12549,4.65332,4.81348,7.56006,8.39014,10.37988a33.35961,33.35961,0,0,1,5.40088,4.91486Z"/><path class="cls-12" d="M245.97754,71.775a10.65357,10.65357,0,1,0-10.65381,10.65332A10.6659,10.6659,0,0,0,245.97754,71.775Zm-20.58838,0a9.93482,9.93482,0,1,1,9.93457,9.93408A9.94613,9.94613,0,0,1,225.38916,71.775Z"/><path class="cls-12" d="M240.16406,71.775a4.84009,4.84009,0,1,0-4.84033,4.83984A4.84584,4.84584,0,0,0,240.16406,71.775Zm-8.96094,0a4.12085,4.12085,0,1,1,4.12061,4.1206A4.126,4.126,0,0,1,231.20312,71.775Z"/><path class="cls-12" d="M297.6665,109.07583c-3.80664-3.00049-7.74316-6.104-8.37255-11.29688a.3594.3594,0,0,0-.315-.314.364.364,0,0,0-.37939.23242c-3.52979,9.56445-.27441,18.70557,4.76514,22.792a10.29758,10.29758,0,0,0,6.52539,2.46094,9.74417,9.74417,0,0,0,2.73242-.40546v19.28241l.001.02149a1.08681,1.08681,0,0,0,.606.88037,2.46409,2.46409,0,0,0,1.20947.29394,2.43673,2.43673,0,0,0,1.19776-.29052,1.064,1.064,0,0,0,.6001-.9043V99.862a9.98317,9.98317,0,0,0,11.14648-1.876c4.5835-4.04785,7.897-12.793,4.34082-22.42871a.36433.36433,0,0,0-.37891-.23242.3599.3599,0,0,0-.31542.314c-.6294,5.19335-4.564,8.29785-8.36963,11.2998-2.50977,1.98-4.89942,3.86523-6.42334,6.29443V66.1354a10.32713,10.32713,0,0,0,10.73681-2.83692c4.09766-4.06689,6.76172-12.15429,3.477-21.0542a.35963.35963,0,0,0-.69433.08155c-.62989,5.19677-4.57129,8.07666-8.38281,10.86133a34.34581,34.34581,0,0,0-5.13672,4.28222l-.00043-11.45209a15.62784,15.62784,0,1,0-3.61383.00611V80.38973A38.62852,38.62852,0,0,0,297.6665,76.006c-3.80664-3.001-7.74316-6.10449-8.37255-11.29736a.35942.35942,0,0,0-.315-.314.36761.36761,0,0,0-.37939.23243c-3.52979,9.564-.27441,18.70507,4.76514,22.792a10.297,10.297,0,0,0,6.52539,2.46045,9.74626,9.74626,0,0,0,2.73242-.4054v23.98609A38.6323,38.6323,0,0,0,297.6665,109.07583Zm-8.17187-78.57666a14.915,14.915,0,1,1,14.915,14.915A14.932,14.932,0,0,1,289.49463,30.49917Zm14.915,15.63427c.374,0,.74048-.03021,1.108-.05615l.00043,12.36719a.35941.35941,0,0,0,.64111.22314,28.27162,28.27162,0,0,1,5.63818-4.8999c3.59034-2.62353,7.292-5.32763,8.4209-9.96289,2.46778,8.07422-.01806,15.27832-3.751,18.98389a9.61508,9.61508,0,0,1-10.4629,2.50293.35965.35965,0,0,0-.48632.33642V94.64565a.35963.35963,0,0,0,.686.15088c1.34424-2.90918,4.04346-5.03857,6.90137-7.293,3.57568-2.82129,7.26269-5.73,8.38721-10.38476,2.69336,8.79052-.38721,16.62109-4.585,20.32812A9.30377,9.30377,0,0,1,306.043,98.96841a.35946.35946,0,0,0-.5249.31933l-.00049,42.54492c.001.08448-.09131.19092-.24072.27735a1.89367,1.89367,0,0,1-1.688-.00391c-.15137-.0874-.2461-.19531-.24707-.28125V46.07937C303.69623,46.10348,304.04919,46.13344,304.40967,46.13344ZM293.81738,86.8605c-4.61084-3.73926-7.65625-11.91114-4.98584-20.66993,1.12549,4.65332,4.81348,7.56055,8.39014,10.37989a33.37261,33.37261,0,0,1,5.40088,4.91522v7.23443A9.22276,9.22276,0,0,1,293.81738,86.8605Zm8.80518,34.93035a9.221,9.221,0,0,1-8.80518-1.86c-4.61084-3.73877-7.65625-11.91114-4.98584-20.66992,1.12549,4.65332,4.81348,7.56,8.39014,10.37988a33.35807,33.35807,0,0,1,5.40088,4.915Z"/><path class="cls-12" d="M315.063,30.49917A10.65357,10.65357,0,1,0,304.40967,41.153,10.66548,10.66548,0,0,0,315.063,30.49917Zm-20.58838,0a9.93482,9.93482,0,1,1,9.93506,9.93506A9.94613,9.94613,0,0,1,294.47461,30.49917Z"/><path class="cls-12" d="M309.24951,30.49917a4.84009,4.84009,0,1,0-4.83984,4.84033A4.84542,4.84542,0,0,0,309.24951,30.49917Zm-8.96094,0a4.12085,4.12085,0,1,1,4.1211,4.12109A4.12567,4.12567,0,0,1,300.28857,30.49917Z"/><path class="cls-12" d="M271.44824,149.33523v17.23034a.35962.35962,0,0,0,.71924,0V149.372l10.54834-7.8631a.36005.36005,0,0,0,.14453-.28808V108.66128a.35969.35969,0,0,0-.57422-.28858l-10.45361,7.79248-10.45313-7.79248a.35968.35968,0,0,0-.57421.28858v32.55957a.36005.36005,0,0,0,.14453.28808Zm0-.89673-9.92431-7.39832V131.125l9.92431,7.39783Zm10.69336-18.21033-9.9248,7.39832v-9.91571l9.9248-7.39783Zm0,10.812-9.9248,7.39832v-9.91571l9.9248-7.39783Zm0-21.624-9.9248,7.39783V116.7759l9.9248-7.39831Zm-20.61767-10.03857,9.92431,7.39831V126.814l-9.92431-7.39783Zm9.92431,18.33319v9.91571l-9.92431-7.39832V120.313Z"/><path class="cls-12" d="M203.23682,191.24642V207.758a.35962.35962,0,0,0,.71923,0V191.28353l10.54834-7.863a.36029.36029,0,0,0,.14454-.28857V150.57241a.35934.35934,0,0,0-.57422-.28809l-10.11866,7.54316v-.00263a.35714.35714,0,0,0-.71319-.03l-10.07489-7.5105a.3596.3596,0,0,0-.57471.28809V183.132a.36028.36028,0,0,0,.14453.28857Zm10.69336-8.29462-9.92481,7.39832v-9.91541l9.92481-7.39862Zm0-20.72772v9.91571l-9.92481,7.39783V169.6227Zm0-.89679-9.92481,7.39832V158.68752l9.92481-7.39831Zm-10.69336,29.02246-9.92432-7.398v-9.91534l9.92432,7.398Zm-9.92432-39.06054,9.92432,7.398v10.03808l-9.92432-7.398Zm9.92432,18.33319v9.91485l-9.92432-7.39746v-9.91534Z"/></svg>