<?xml version="1.0" encoding="UTF-8"?>
<!DOCTYPE svg PUBLIC "-//W3C//DTD SVG 1.1//EN" "http://www.w3.org/Graphics/SVG/1.1/DTD/svg11.dtd">
<svg xmlns="http://www.w3.org/2000/svg" version="1.1" width="510px" height="490px" style="shape-rendering:geometricPrecision; text-rendering:geometricPrecision; image-rendering:optimizeQuality; fill-rule:evenodd; clip-rule:evenodd" xmlns:xlink="http://www.w3.org/1999/xlink">
<g><path style="opacity:0.78" fill="#257241" d="M 263.5,11.5 C 257.19,10.5409 250.857,10.5409 244.5,11.5C 247.55,10.0648 250.883,9.39809 254.5,9.5C 257.814,9.34252 260.814,10.0092 263.5,11.5 Z"/></g>
<g><path style="opacity:1" fill="#2d9b4a" d="M 263.5,11.5 C 271.124,12.4774 277.457,15.8108 282.5,21.5C 279.478,21.196 276.478,20.696 273.5,20C 272.359,19.2588 272.359,18.4255 273.5,17.5C 269.928,14.933 265.928,13.2664 261.5,12.5C 260.5,12.6667 259.5,12.8333 258.5,13C 259.833,14 259.833,15 258.5,16C 256.5,16.6667 254.5,16.6667 252.5,16C 252.043,15.586 251.709,15.086 251.5,14.5C 256.844,13.1307 256.677,12.464 251,12.5C 247.954,12.5603 245.454,13.727 243.5,16C 240.833,16.3333 238.167,16.6667 235.5,17C 237.271,17.5354 237.604,18.3687 236.5,19.5C 235.264,18.7542 233.93,18.4208 232.5,18.5C 232.833,17.8333 233.167,17.1667 233.5,16.5C 235.48,14.5486 237.813,13.0486 240.5,12C 241.793,11.51 243.127,11.3433 244.5,11.5C 250.857,10.5409 257.19,10.5409 263.5,11.5 Z"/></g>
<g><path style="opacity:1" fill="#27a744" d="M 282.5,21.5 C 281.425,25.938 283.092,27.938 287.5,27.5C 287.338,29.5273 287.505,31.5273 288,33.5C 289.049,32.4829 290.216,32.3162 291.5,33C 292.33,34.7467 293.33,36.4134 294.5,38C 294.095,38.9454 293.428,39.6121 292.5,40C 296.536,40.5138 299.203,42.6805 300.5,46.5C 301.357,47.4252 302.357,48.0919 303.5,48.5C 303.092,51.5993 304.259,53.9326 307,55.5C 308.7,59.7236 310.2,64.0569 311.5,68.5C 313.533,71.2744 315.533,73.9411 317.5,76.5C 317.5,76.8333 317.5,77.1667 317.5,77.5C 319.421,83.2973 320.588,89.2973 321,95.5C 321.667,94.1667 322.333,94.1667 323,95.5C 324.998,104.038 327.498,112.372 330.5,120.5C 329.708,128.515 330.875,136.181 334,143.5C 334.497,145.81 334.663,148.143 334.5,150.5C 281.167,150.5 227.833,150.5 174.5,150.5C 177.227,137.702 179.227,124.702 180.5,111.5C 182.16,102.196 184.827,93.1957 188.5,84.5C 191.787,79.1917 194.62,73.525 197,67.5C 197.49,66.2068 197.657,64.8734 197.5,63.5C 198.5,63.5 199.5,63.5 200.5,63.5C 200.059,58.8023 201.726,55.1356 205.5,52.5C 206.086,52.7093 206.586,53.0426 207,53.5C 206.478,51.1201 206.645,48.7868 207.5,46.5C 207.5,45.8333 207.5,45.1667 207.5,44.5C 210.323,43.0077 211.99,40.6743 212.5,37.5C 212.738,35.5956 213.738,34.2623 215.5,33.5C 220.522,27.814 226.189,22.814 232.5,18.5C 233.93,18.4208 235.264,18.7542 236.5,19.5C 237.604,18.3687 237.271,17.5354 235.5,17C 238.167,16.6667 240.833,16.3333 243.5,16C 245.454,13.727 247.954,12.5603 251,12.5C 256.677,12.464 256.844,13.1307 251.5,14.5C 251.709,15.086 252.043,15.586 252.5,16C 254.5,16.6667 256.5,16.6667 258.5,16C 259.833,15 259.833,14 258.5,13C 259.5,12.8333 260.5,12.6667 261.5,12.5C 265.928,13.2664 269.928,14.933 273.5,17.5C 272.359,18.4255 272.359,19.2588 273.5,20C 276.478,20.696 279.478,21.196 282.5,21.5 Z"/></g>
<g><path style="opacity:0.008" fill="#18262e" d="M 188.5,21.5 C 188.167,20.8333 187.833,20.1667 187.5,19.5C 187.81,18.2617 188.31,18.2617 189,19.5C 189.692,20.4368 189.525,21.1034 188.5,21.5 Z"/></g>
<g><path style="opacity:0.939" fill="#2a7145" d="M 329.5,21.5 C 327.537,22.1684 325.537,22.5017 323.5,22.5C 325.67,25.9832 327.337,29.6499 328.5,33.5C 325.769,29.0587 322.769,24.7254 319.5,20.5C 319.808,19.6919 320.308,19.0253 321,18.5C 323.727,19.7979 326.56,20.7979 329.5,21.5 Z"/></g>
<g><path style="opacity:0.796" fill="#297547" d="M 233.5,16.5 C 233.167,17.1667 232.833,17.8333 232.5,18.5C 226.189,22.814 220.522,27.814 215.5,33.5C 219.719,26.0379 225.719,20.3712 233.5,16.5 Z"/></g>
<g><path style="opacity:0.906" fill="#298648" d="M 187.5,19.5 C 187.833,20.1667 188.167,20.8333 188.5,21.5C 184.571,27.0329 180.904,32.6996 177.5,38.5C 177.727,35.4233 178.727,32.5899 180.5,30C 179.67,28.5349 179.504,27.0349 180,25.5C 180.71,26.9733 181.876,27.6399 183.5,27.5C 183.66,25.8008 183.494,24.1341 183,22.5C 175.188,25.3569 167.355,28.0236 159.5,30.5C 168.08,25.3348 177.413,21.6682 187.5,19.5 Z"/></g>
<g><path style="opacity:0.816" fill="#297546" d="M 345.5,28.5 C 355.885,32.1922 365.552,37.1922 374.5,43.5C 372.94,43.4809 371.44,43.1476 370,42.5C 362.764,37.3016 355.264,33.4682 347.5,31C 346.619,30.2917 345.953,29.4584 345.5,28.5 Z"/></g>
<g><path style="opacity:1" fill="#2d944a" d="M 282.5,21.5 C 291.373,29.0398 298.373,38.0398 303.5,48.5C 302.357,48.0919 301.357,47.4252 300.5,46.5C 299.203,42.6805 296.536,40.5138 292.5,40C 293.428,39.6121 294.095,38.9454 294.5,38C 293.33,36.4134 292.33,34.7467 291.5,33C 290.216,32.3162 289.049,32.4829 288,33.5C 287.505,31.5273 287.338,29.5273 287.5,27.5C 283.092,27.938 281.425,25.938 282.5,21.5 Z"/></g>
<g><path style="opacity:1" fill="#27a744" d="M 345.5,28.5 C 345.953,29.4584 346.619,30.2917 347.5,31C 355.264,33.4682 362.764,37.3016 370,42.5C 371.44,43.1476 372.94,43.4809 374.5,43.5C 384.307,48.3909 392.974,54.7242 400.5,62.5C 401.301,64.0418 401.634,65.7085 401.5,67.5C 403.308,67.4914 404.975,67.9914 406.5,69C 408.839,70.9893 410.173,73.4893 410.5,76.5C 411.833,76.5 413.167,76.5 414.5,76.5C 414.5,77.5 414.5,78.5 414.5,79.5C 415.873,79.3433 417.207,79.51 418.5,80C 419.789,81.8022 421.456,82.9688 423.5,83.5C 423.092,86.5993 424.259,88.9326 427,90.5C 427.483,91.448 427.649,92.448 427.5,93.5C 428.822,93.33 429.989,93.6634 431,94.5C 433.007,97.04 433.673,99.7067 433,102.5C 433.423,101.044 434.256,100.544 435.5,101C 437.422,102.42 438.755,104.253 439.5,106.5C 441.36,107.26 443.027,108.26 444.5,109.5C 452.359,120.051 459.026,131.384 464.5,143.5C 464.833,146.167 465.167,148.833 465.5,151.5C 433.165,151.667 400.832,151.5 368.5,151C 368.026,149.271 367.026,148.105 365.5,147.5C 365.443,146.391 365.11,145.391 364.5,144.5C 365.124,144.083 365.457,143.416 365.5,142.5C 364.079,130.929 361.912,119.596 359,108.5C 358.502,105.183 358.335,101.85 358.5,98.5C 357.5,98.5 356.5,98.5 355.5,98.5C 354.92,94.8581 354.42,91.1914 354,87.5C 352.961,86.2899 351.794,85.2899 350.5,84.5C 349.833,84.5 349.5,84.1667 349.5,83.5C 351.34,79.0265 350.34,75.3598 346.5,72.5C 345.507,67.8482 344.507,63.1815 343.5,58.5C 342.914,58.2907 342.414,57.9574 342,57.5C 341.259,54.438 341.425,51.438 342.5,48.5C 341.855,47.354 341.022,46.354 340,45.5C 338.817,46.731 337.651,46.731 336.5,45.5C 335.215,42.9795 334.548,40.3128 334.5,37.5C 333.5,37.5 332.5,37.5 331.5,37.5C 331.596,34.0441 332.596,30.8774 334.5,28C 332.059,27.964 330.059,27.1307 328.5,25.5C 329.333,25.1667 330.167,24.8333 331,24.5C 335.601,26.6919 340.435,28.0252 345.5,28.5 Z"/></g>
<g><path style="opacity:0.882" fill="#277446" d="M 177.5,38.5 C 176.193,41.7799 174.527,44.7799 172.5,47.5C 172.529,43.498 174.195,40.498 177.5,38.5 Z"/></g>
<g><path style="opacity:0.388" fill="#25643f" d="M 212.5,37.5 C 211.99,40.6743 210.323,43.0077 207.5,44.5C 208.786,41.883 210.453,39.5496 212.5,37.5 Z"/></g>
<g><path style="opacity:1" fill="#27a744" d="M 177.5,38.5 C 174.195,40.498 172.529,43.498 172.5,47.5C 170.548,53.0295 168.215,58.3629 165.5,63.5C 160.784,69.6032 158.117,76.6032 157.5,84.5C 151.356,96.969 148.023,110.302 147.5,124.5C 147.5,125.5 147.5,126.5 147.5,127.5C 145.905,129.111 144.739,131.111 144,133.5C 143.501,137.152 143.335,140.818 143.5,144.5C 139.171,144.793 137.838,146.793 139.5,150.5C 107.5,150.5 75.5,150.5 43.5,150.5C 45.3678,146.437 47.5345,142.437 50,138.5C 51.6585,135.023 52.8251,131.357 53.5,127.5C 55.5273,127.662 57.5273,127.495 59.5,127C 58.4506,123.854 58.6173,120.688 60,117.5C 61,116.833 62,116.167 63,115.5C 63.9386,112.4 65.1052,109.4 66.5,106.5C 67.1237,104.246 68.457,102.579 70.5,101.5C 74.2153,98.3933 77.2153,94.7267 79.5,90.5C 83.5658,87.4372 86.8991,83.7706 89.5,79.5C 94.1053,76.5643 98.1053,72.8976 101.5,68.5C 103.193,65.8103 105.527,63.8103 108.5,62.5C 112.207,60.3115 115.54,57.6448 118.5,54.5C 120.981,54.3234 122.814,55.3234 124,57.5C 123.805,55.8739 123.805,54.2072 124,52.5C 133.438,45.2951 143.605,39.2951 154.5,34.5C 156.258,35.446 157.925,35.446 159.5,34.5C 158.193,33.135 158.193,31.8016 159.5,30.5C 167.355,28.0236 175.188,25.3569 183,22.5C 183.494,24.1341 183.66,25.8008 183.5,27.5C 181.876,27.6399 180.71,26.9733 180,25.5C 179.504,27.0349 179.67,28.5349 180.5,30C 178.727,32.5899 177.727,35.4233 177.5,38.5 Z"/></g>
<g><path style="opacity:1" fill="#2b8c48" d="M 159.5,30.5 C 158.193,31.8016 158.193,33.135 159.5,34.5C 157.925,35.446 156.258,35.446 154.5,34.5C 143.605,39.2951 133.438,45.2951 124,52.5C 123.805,54.2072 123.805,55.8739 124,57.5C 122.814,55.3234 120.981,54.3234 118.5,54.5C 130.724,44.2149 144.39,36.2149 159.5,30.5 Z"/></g>
<g><path style="opacity:0.071" fill="#1f4135" d="M 207.5,44.5 C 207.5,45.1667 207.5,45.8333 207.5,46.5C 206.833,46.8333 206.167,47.1667 205.5,47.5C 205.427,45.9731 206.094,44.9731 207.5,44.5 Z"/></g>
<g><path style="opacity:1" fill="#2b9347" d="M 329.5,21.5 C 334.921,23.8409 340.254,26.1743 345.5,28.5C 340.435,28.0252 335.601,26.6919 331,24.5C 330.167,24.8333 329.333,25.1667 328.5,25.5C 330.059,27.1307 332.059,27.964 334.5,28C 332.596,30.8774 331.596,34.0441 331.5,37.5C 332.5,37.5 333.5,37.5 334.5,37.5C 334.548,40.3128 335.215,42.9795 336.5,45.5C 337.651,46.731 338.817,46.731 340,45.5C 341.022,46.354 341.855,47.354 342.5,48.5C 341.425,51.438 341.259,54.438 342,57.5C 342.414,57.9574 342.914,58.2907 343.5,58.5C 344.507,63.1815 345.507,67.8482 346.5,72.5C 340.794,59.4184 334.794,46.4184 328.5,33.5C 327.337,29.6499 325.67,25.9832 323.5,22.5C 325.537,22.5017 327.537,22.1684 329.5,21.5 Z"/></g>
<g><path style="opacity:0.325" fill="#297b43" d="M 118.5,54.5 C 115.54,57.6448 112.207,60.3115 108.5,62.5C 111.095,58.8743 114.428,56.2076 118.5,54.5 Z"/></g>
<g><path style="opacity:0.714" fill="#2c7f46" d="M 303.5,48.5 C 309.155,57.143 313.822,66.4764 317.5,76.5C 315.533,73.9411 313.533,71.2744 311.5,68.5C 310.2,64.0569 308.7,59.7236 307,55.5C 304.259,53.9326 303.092,51.5993 303.5,48.5 Z"/></g>
<g><path style="opacity:0.986" fill="#2c8849" d="M 207.5,46.5 C 206.645,48.7868 206.478,51.1201 207,53.5C 206.586,53.0426 206.086,52.7093 205.5,52.5C 201.726,55.1356 200.059,58.8023 200.5,63.5C 199.5,63.5 198.5,63.5 197.5,63.5C 199.229,57.6139 201.895,52.2806 205.5,47.5C 206.167,47.1667 206.833,46.8333 207.5,46.5 Z"/></g>
<g><path style="opacity:0.627" fill="#2a7c45" d="M 165.5,63.5 C 163.584,70.8703 160.917,77.8703 157.5,84.5C 158.117,76.6032 160.784,69.6032 165.5,63.5 Z"/></g>
<g><path style="opacity:0.694" fill="#2a784c" d="M 197.5,63.5 C 197.657,64.8734 197.49,66.2068 197,67.5C 194.62,73.525 191.787,79.1917 188.5,84.5C 190.713,77.0835 193.713,70.0835 197.5,63.5 Z"/></g>
<g><path style="opacity:0.808" fill="#29844a" d="M 346.5,72.5 C 350.34,75.3598 351.34,79.0265 349.5,83.5C 348.653,79.7774 347.653,76.1108 346.5,72.5 Z"/></g>
<g><path style="opacity:1" fill="#2e8f4a" d="M 400.5,62.5 C 409.123,68.4564 416.79,75.4564 423.5,83.5C 421.456,82.9688 419.789,81.8022 418.5,80C 417.207,79.51 415.873,79.3433 414.5,79.5C 414.5,78.5 414.5,77.5 414.5,76.5C 413.167,76.5 411.833,76.5 410.5,76.5C 410.173,73.4893 408.839,70.9893 406.5,69C 404.975,67.9914 403.308,67.4914 401.5,67.5C 401.634,65.7085 401.301,64.0418 400.5,62.5 Z"/></g>
<g><path style="opacity:0.784" fill="#307c4d" d="M 101.5,68.5 C 98.1053,72.8976 94.1053,76.5643 89.5,79.5C 92.8947,75.1024 96.8947,71.4357 101.5,68.5 Z"/></g>
<g><path style="opacity:0.365" fill="#2a6843" d="M 89.5,79.5 C 86.8991,83.7706 83.5658,87.4372 79.5,90.5C 82.1009,86.2294 85.4342,82.5628 89.5,79.5 Z"/></g>
<g><path style="opacity:0.659" fill="#297447" d="M 79.5,90.5 C 77.2153,94.7267 74.2153,98.3933 70.5,101.5C 72.7847,97.2733 75.7847,93.6067 79.5,90.5 Z"/></g>
<g><path style="opacity:1" fill="#2b8647" d="M 317.5,77.5 C 323.712,91.1894 328.045,105.523 330.5,120.5C 327.498,112.372 324.998,104.038 323,95.5C 322.333,94.1667 321.667,94.1667 321,95.5C 320.588,89.2973 319.421,83.2973 317.5,77.5 Z"/></g>
<g><path style="opacity:0.929" fill="#2a7d45" d="M 157.5,84.5 C 154.279,97.9653 150.945,111.299 147.5,124.5C 148.023,110.302 151.356,96.969 157.5,84.5 Z"/></g>
<g><path style="opacity:0.998" fill="#2c8c49" d="M 423.5,83.5 C 431.457,91.4257 438.457,100.092 444.5,109.5C 443.027,108.26 441.36,107.26 439.5,106.5C 438.755,104.253 437.422,102.42 435.5,101C 434.256,100.544 433.423,101.044 433,102.5C 433.673,99.7067 433.007,97.04 431,94.5C 429.989,93.6634 428.822,93.33 427.5,93.5C 427.649,92.448 427.483,91.448 427,90.5C 424.259,88.9326 423.092,86.5993 423.5,83.5 Z"/></g>
<g><path style="opacity:1" fill="#2a8447" d="M 350.5,84.5 C 351.794,85.2899 352.961,86.2899 354,87.5C 354.42,91.1914 354.92,94.8581 355.5,98.5C 356.5,98.5 357.5,98.5 358.5,98.5C 358.335,101.85 358.502,105.183 359,108.5C 361.912,119.596 364.079,130.929 365.5,142.5C 365.457,143.416 365.124,144.083 364.5,144.5C 361.233,124.161 356.566,104.161 350.5,84.5 Z"/></g>
<g><path style="opacity:0.992" fill="#297644" d="M 147.5,127.5 C 146.346,133.302 145.013,138.968 143.5,144.5C 143.335,140.818 143.501,137.152 144,133.5C 144.739,131.111 145.905,129.111 147.5,127.5 Z"/></g>
<g><path style="opacity:0.999" fill="#30994d" d="M 66.5,106.5 C 65.1052,109.4 63.9386,112.4 63,115.5C 62,116.167 61,116.833 60,117.5C 58.6173,120.688 58.4506,123.854 59.5,127C 57.5273,127.495 55.5273,127.662 53.5,127.5C 52.8251,131.357 51.6585,135.023 50,138.5C 47.5345,142.437 45.3678,146.437 43.5,150.5C 75.5,150.5 107.5,150.5 139.5,150.5C 137.838,146.793 139.171,144.793 143.5,144.5C 143.5,146.167 143.5,147.833 143.5,149.5C 110.056,151.482 76.389,152.149 42.5,151.5C 42.5,150.5 42.5,149.5 42.5,148.5C 48.4476,133.265 56.4476,119.265 66.5,106.5 Z"/></g>
<g><path style="opacity:1" fill="#31984c" d="M 180.5,111.5 C 179.227,124.702 177.227,137.702 174.5,150.5C 227.833,150.5 281.167,150.5 334.5,150.5C 334.663,148.143 334.497,145.81 334,143.5C 330.875,136.181 329.708,128.515 330.5,120.5C 333.083,128.186 334.75,136.186 335.5,144.5C 335.5,146.833 335.5,149.167 335.5,151.5C 281.5,151.5 227.5,151.5 173.5,151.5C 173.5,149.167 173.5,146.833 173.5,144.5C 174.881,133.185 177.214,122.185 180.5,111.5 Z"/></g>
<g><path style="opacity:0.252" fill="#3d8859" d="M 42.5,148.5 C 42.5,149.5 42.5,150.5 42.5,151.5C 76.389,152.149 110.056,151.482 143.5,149.5C 143.5,150.5 143.5,151.5 143.5,152.5C 109.16,152.833 74.8269,152.5 40.5,151.5C 40.9424,150.261 41.6091,149.261 42.5,148.5 Z"/></g>
<g><path style="opacity:0.255" fill="#3b8757" d="M 173.5,144.5 C 173.5,146.833 173.5,149.167 173.5,151.5C 227.5,151.5 281.5,151.5 335.5,151.5C 335.5,149.167 335.5,146.833 335.5,144.5C 336.531,146.961 337.198,149.627 337.5,152.5C 282.167,152.5 226.833,152.5 171.5,152.5C 171.802,149.627 172.469,146.961 173.5,144.5 Z"/></g>
<g><path style="opacity:0.255" fill="#3c8858" d="M 464.5,143.5 C 465.787,146.075 467.121,148.741 468.5,151.5C 434.173,152.5 399.84,152.833 365.5,152.5C 365.5,150.833 365.5,149.167 365.5,147.5C 367.026,148.105 368.026,149.271 368.5,151C 400.832,151.5 433.165,151.667 465.5,151.5C 465.167,148.833 464.833,146.167 464.5,143.5 Z"/></g>
<g><path style="opacity:0.027" fill="#3f6e4d" d="M 31.5,181.5 C 66.9961,180.502 102.663,180.168 138.5,180.5C 138.823,187.022 138.49,193.355 137.5,199.5C 137.5,193.5 137.5,187.5 137.5,181.5C 102.167,181.5 66.8333,181.5 31.5,181.5 Z"/></g>
<g><path style="opacity:0.031" fill="#3e7c5c" d="M 167.5,181.5 C 224.998,180.501 282.664,180.168 340.5,180.5C 340.217,181.289 339.717,181.956 339,182.5C 281.905,181.502 224.738,181.169 167.5,181.5 Z"/></g>
<g><path style="opacity:0.031" fill="#3d7b5b" d="M 465.5,180.5 C 434.338,181.498 403.004,181.832 371.5,181.5C 371.5,187.5 371.5,193.5 371.5,199.5C 370.51,193.355 370.177,187.022 370.5,180.5C 402.167,180.5 433.833,180.5 465.5,180.5 Z"/></g>
<g><path style="opacity:0.992" fill="#2f9a4e" d="M 31.5,181.5 C 66.8333,181.5 102.167,181.5 137.5,181.5C 137.5,187.5 137.5,193.5 137.5,199.5C 136.683,201.969 136.183,204.635 136,207.5C 135.333,228.5 135.333,249.5 136,270.5C 136.183,273.365 136.683,276.031 137.5,278.5C 137.5,279.833 137.5,281.167 137.5,282.5C 137.5,285.5 137.5,288.5 137.5,291.5C 136.673,287.637 135.839,283.637 135,279.5C 133.986,247.072 134.486,214.738 136.5,182.5C 101.833,182.5 67.1667,182.5 32.5,182.5C 29.7401,196.017 27.2401,209.684 25,223.5C 24.8309,236.34 24.3309,249.007 23.5,261.5C 21.4443,234.292 24.1109,207.625 31.5,181.5 Z"/></g>
<g><path style="opacity:0.996" fill="#30954d" d="M 340.5,180.5 C 341.167,180.5 341.5,180.833 341.5,181.5C 341.521,190.182 341.854,198.848 342.5,207.5C 340.533,199.903 339.866,191.903 340.5,183.5C 283.196,182.512 225.863,182.179 168.5,182.5C 167.009,216.302 166.009,249.969 165.5,283.5C 164.476,258.842 164.309,234.175 165,209.5C 165.51,199.985 166.344,190.652 167.5,181.5C 224.738,181.169 281.905,181.502 339,182.5C 339.717,181.956 340.217,181.289 340.5,180.5 Z"/></g>
<g><path style="opacity:1" fill="#319e4f" d="M 465.5,180.5 C 468.167,180.5 470.833,180.5 473.5,180.5C 474.209,181.404 475.209,181.737 476.5,181.5C 476.5,182.833 476.5,184.167 476.5,185.5C 475.596,184.791 475.263,183.791 475.5,182.5C 441.167,182.5 406.833,182.5 372.5,182.5C 374.524,214.738 375.024,247.071 374,279.5C 373.722,280.416 373.222,281.082 372.5,281.5C 372.5,276.833 372.5,272.167 372.5,267.5C 372.5,266.5 372.5,265.5 372.5,264.5C 373.663,244.337 373.829,224.004 373,203.5C 372.79,201.942 372.29,200.609 371.5,199.5C 371.5,193.5 371.5,187.5 371.5,181.5C 403.004,181.832 434.338,181.498 465.5,180.5 Z"/></g>
<g><path style="opacity:1" fill="#27a744" d="M 476.5,185.5 C 477.751,190.844 479.251,196.178 481,201.5C 481.855,207.862 482.855,214.196 484,220.5C 484.24,236.677 484.407,252.677 484.5,268.5C 484.5,269.167 484.167,269.5 483.5,269.5C 481.776,274.908 480.776,280.575 480.5,286.5C 480.5,286.833 480.5,287.167 480.5,287.5C 479.232,289.905 478.565,292.572 478.5,295.5C 476.903,297.604 474.737,298.938 472,299.5C 470.14,299.306 468.307,298.972 466.5,298.5C 434.844,299.214 403.177,299.88 371.5,300.5C 371.476,294.143 371.81,287.81 372.5,281.5C 373.222,281.082 373.722,280.416 374,279.5C 375.024,247.071 374.524,214.738 372.5,182.5C 406.833,182.5 441.167,182.5 475.5,182.5C 475.263,183.791 475.596,184.791 476.5,185.5 Z"/></g>
<g><path style="opacity:1" fill="#27a744" d="M 137.5,291.5 C 137.425,294.206 137.092,296.873 136.5,299.5C 133.482,299.704 130.482,300.037 127.5,300.5C 96.0044,299.502 64.3377,299.168 32.5,299.5C 32.3813,294.996 31.0479,290.996 28.5,287.5C 28.5,287.167 28.5,286.833 28.5,286.5C 28.7792,279.073 28.1125,271.74 26.5,264.5C 25.8165,264.137 25.1499,263.804 24.5,263.5C 23.6618,263.158 23.3284,262.492 23.5,261.5C 24.3309,249.007 24.8309,236.34 25,223.5C 27.2401,209.684 29.7401,196.017 32.5,182.5C 67.1667,182.5 101.833,182.5 136.5,182.5C 134.486,214.738 133.986,247.072 135,279.5C 135.839,283.637 136.673,287.637 137.5,291.5 Z"/></g>
<g><path style="opacity:1" fill="#27a744" d="M 342.5,207.5 C 342.263,208.791 342.596,209.791 343.5,210.5C 343.596,230.843 343.263,251.176 342.5,271.5C 341.691,273.292 341.191,275.292 341,277.5C 340.5,284.826 340.334,292.159 340.5,299.5C 283.833,299.5 227.167,299.5 170.5,299.5C 169.414,299.38 168.747,298.713 168.5,297.5C 167.973,293.669 167.306,290.002 166.5,286.5C 165.596,285.791 165.263,284.791 165.5,283.5C 166.009,249.969 167.009,216.302 168.5,182.5C 225.863,182.179 283.196,182.512 340.5,183.5C 339.866,191.903 340.533,199.903 342.5,207.5 Z"/></g>
<g><path style="opacity:0.776" fill="#257041" d="M 341.5,181.5 C 342.947,190.963 343.613,200.63 343.5,210.5C 342.596,209.791 342.263,208.791 342.5,207.5C 341.854,198.848 341.521,190.182 341.5,181.5 Z"/></g>
<g><path style="opacity:0.851" fill="#2a7e49" d="M 473.5,180.5 C 475.144,180.286 476.644,180.62 478,181.5C 485.347,210.092 487.514,239.092 484.5,268.5C 484.407,252.677 484.24,236.677 484,220.5C 482.855,214.196 481.855,207.862 481,201.5C 479.251,196.178 477.751,190.844 476.5,185.5C 476.5,184.167 476.5,182.833 476.5,181.5C 475.209,181.737 474.209,181.404 473.5,180.5 Z"/></g>
<g><path style="opacity:0.471" fill="#297246" d="M 371.5,199.5 C 372.29,200.609 372.79,201.942 373,203.5C 373.829,224.004 373.663,244.337 372.5,264.5C 372.682,242.822 372.349,221.155 371.5,199.5 Z"/></g>
<g><path style="opacity:0.304" fill="#266d44" d="M 137.5,199.5 C 136.213,225.836 136.213,252.17 137.5,278.5C 136.683,276.031 136.183,273.365 136,270.5C 135.333,249.5 135.333,228.5 136,207.5C 136.183,204.635 136.683,201.969 137.5,199.5 Z"/></g>
<g><path style="opacity:0.999" fill="#2b8944" d="M 24.5,263.5 C 25.1499,263.804 25.8165,264.137 26.5,264.5C 28.1125,271.74 28.7792,279.073 28.5,286.5C 26.1161,279.145 24.7828,271.478 24.5,263.5 Z"/></g>
<g><path style="opacity:0.584" fill="#2c7949" d="M 343.5,210.5 C 344.662,230.329 344.829,250.329 344,270.5C 343.649,280.692 342.816,290.692 341.5,300.5C 341.422,290.815 341.755,281.148 342.5,271.5C 343.263,251.176 343.596,230.843 343.5,210.5 Z"/></g>
<g><path style="opacity:0.28" fill="#246c40" d="M 483.5,269.5 C 483.875,275.532 482.875,281.198 480.5,286.5C 480.776,280.575 481.776,274.908 483.5,269.5 Z"/></g>
<g><path style="opacity:0.129" fill="#276e45" d="M 372.5,267.5 C 372.5,272.167 372.5,276.833 372.5,281.5C 371.81,287.81 371.476,294.143 371.5,300.5C 370.39,289.475 370.723,278.475 372.5,267.5 Z"/></g>
<g><path style="opacity:0.259" fill="#205537" d="M 480.5,287.5 C 480.706,290.495 480.04,293.162 478.5,295.5C 478.565,292.572 479.232,289.905 480.5,287.5 Z"/></g>
<g><path style="opacity:0.938" fill="#368e48" d="M 28.5,287.5 C 31.0479,290.996 32.3813,294.996 32.5,299.5C 64.3377,299.168 96.0044,299.502 127.5,300.5C 124.287,300.19 121.287,300.523 118.5,301.5C 89.8314,301.667 61.1647,301.5 32.5,301C 32,300.5 31.5,300 31,299.5C 29.8518,295.547 29.0184,291.547 28.5,287.5 Z"/></g>
<g><path style="opacity:0.937" fill="#2d794b" d="M 137.5,282.5 C 138.817,288.346 138.817,294.346 137.5,300.5C 131.227,301.46 124.893,301.793 118.5,301.5C 121.287,300.523 124.287,300.19 127.5,300.5C 130.482,300.037 133.482,299.704 136.5,299.5C 137.092,296.873 137.425,294.206 137.5,291.5C 137.5,288.5 137.5,285.5 137.5,282.5 Z"/></g>
<g><path style="opacity:0.937" fill="#359c4c" d="M 342.5,271.5 C 341.755,281.148 341.422,290.815 341.5,300.5C 334.254,301.464 326.92,301.797 319.5,301.5C 269.833,300.833 220.167,300.167 170.5,299.5C 227.167,299.5 283.833,299.5 340.5,299.5C 340.334,292.159 340.5,284.826 341,277.5C 341.191,275.292 341.691,273.292 342.5,271.5 Z"/></g>
<g><path style="opacity:0.937" fill="#30844d" d="M 478.5,295.5 C 478.859,297.766 478.192,299.599 476.5,301C 441.331,301.831 406.331,301.664 371.5,300.5C 403.177,299.88 434.844,299.214 466.5,298.5C 468.307,298.972 470.14,299.306 472,299.5C 474.737,298.938 476.903,297.604 478.5,295.5 Z"/></g>
<g><path style="opacity:0.016" fill="#367748" d="M 166.5,286.5 C 167.306,290.002 167.973,293.669 168.5,297.5C 168.747,298.713 169.414,299.38 170.5,299.5C 220.167,300.167 269.833,300.833 319.5,301.5C 268.47,301.82 217.47,301.486 166.5,300.5C 166.5,295.833 166.5,291.167 166.5,286.5 Z"/></g>
<g><path style="opacity:0.304" fill="#144f2f" d="M 136.5,329.5 C 138.833,329.5 141.167,329.5 143.5,329.5C 143.5,330.833 143.5,332.167 143.5,333.5C 142.596,332.791 142.263,331.791 142.5,330.5C 140.265,330.795 138.265,330.461 136.5,329.5 Z"/></g>
<g><path style="opacity:0.3" fill="#277345" d="M 204.5,329.5 C 248.833,329.5 293.167,329.5 337.5,329.5C 336.474,336.02 335.141,342.353 333.5,348.5C 333.966,342.509 334.299,336.509 334.5,330.5C 331.167,330.5 327.833,330.5 324.5,330.5C 284.33,330.832 244.33,330.499 204.5,329.5 Z"/></g>
<g><path style="opacity:0.98" fill="#2e824c" d="M 379.5,330.5 C 379.5,330.167 379.5,329.833 379.5,329.5C 409.174,329.167 438.841,329.5 468.5,330.5C 465.24,338.664 461.24,346.331 456.5,353.5C 455.96,350.313 456.96,347.813 459.5,346C 459.96,344.699 460.294,343.366 460.5,342C 459.748,339.846 459.581,337.68 460,335.5C 460.483,336.448 460.649,337.448 460.5,338.5C 461.5,338.5 462.5,338.5 463.5,338.5C 463.786,336.723 464.453,335.056 465.5,333.5C 465.392,332.558 465.059,331.725 464.5,331C 436.147,331.431 407.814,331.265 379.5,330.5 Z"/></g>
<g><path style="opacity:1" fill="#319e4e" d="M 173.5,329.5 C 183.833,329.5 194.167,329.5 204.5,329.5C 244.33,330.499 284.33,330.832 324.5,330.5C 285.112,332.034 245.612,333.034 206,333.5C 204.581,332.54 203.081,331.707 201.5,331C 192.833,330.333 184.167,330.333 175.5,331C 174.22,336.276 174.72,341.443 177,346.5C 178.229,344.053 179.729,343.887 181.5,346C 179.724,347.671 179.39,349.504 180.5,351.5C 179.104,352.852 178.437,354.519 178.5,356.5C 179.556,359.669 179.556,362.669 178.5,365.5C 176.516,356.229 174.849,346.896 173.5,337.5C 173.5,334.833 173.5,332.167 173.5,329.5 Z"/></g>
<g><path style="opacity:1" fill="#27a644" d="M 53.5,329.5 C 81.1667,329.5 108.833,329.5 136.5,329.5C 138.265,330.461 140.265,330.795 142.5,330.5C 142.263,331.791 142.596,332.791 143.5,333.5C 144.871,339.432 145.871,345.432 146.5,351.5C 146.4,358.242 147.733,364.575 150.5,370.5C 150.41,373.152 151.076,375.485 152.5,377.5C 156.967,391.569 161.634,405.569 166.5,419.5C 166.45,424.045 168.117,427.711 171.5,430.5C 170.883,434.495 172.049,437.828 175,440.5C 175.771,443.19 176.604,445.856 177.5,448.5C 179.297,450.449 181.297,452.116 183.5,453.5C 184.338,453.842 184.672,454.508 184.5,455.5C 184.5,456.833 184.5,458.167 184.5,459.5C 182.801,459.66 181.134,459.494 179.5,459C 175.924,456.571 172.257,454.404 168.5,452.5C 169.981,451.52 171.315,450.353 172.5,449C 169.89,448.776 167.39,449.276 165,450.5C 162.595,449.726 160.095,449.226 157.5,449C 153.861,446.017 149.861,443.684 145.5,442C 148.482,441.502 151.482,441.335 154.5,441.5C 154.351,442.552 154.517,443.552 155,444.5C 156.987,445.218 158.821,446.218 160.5,447.5C 160.766,442.097 160.766,436.764 160.5,431.5C 159.77,432.934 158.77,434.1 157.5,435C 152.916,436.363 148.249,437.197 143.5,437.5C 143.5,438.5 143.5,439.5 143.5,440.5C 142.127,440.657 140.793,440.49 139.5,440C 138.187,437.674 136.187,436.341 133.5,436C 133.056,434.467 132.723,432.967 132.5,431.5C 129.891,430.77 127.224,430.27 124.5,430C 125.672,429.581 126.672,428.915 127.5,428C 125.793,427.805 124.126,427.805 122.5,428C 121.391,426.187 122.058,425.354 124.5,425.5C 124.5,424.5 124.5,423.5 124.5,422.5C 121.692,422.693 119.025,423.36 116.5,424.5C 116.519,422.94 116.852,421.44 117.5,420C 116.521,416.691 115.521,416.691 114.5,420C 113.207,420.49 111.873,420.657 110.5,420.5C 111.167,418.167 111.833,415.833 112.5,413.5C 111.167,413.5 109.833,413.5 108.5,413.5C 108.5,412.167 108.5,410.833 108.5,409.5C 106.092,410.061 103.759,410.561 101.5,411C 100.167,409.667 100.167,408.333 101.5,407C 100.146,405.706 98.8123,405.54 97.5,406.5C 95.7863,404.65 93.7863,403.316 91.5,402.5C 90.1943,401.032 88.6943,399.699 87,398.5C 86.5172,397.552 86.3505,396.552 86.5,395.5C 85.325,395.719 84.325,395.386 83.5,394.5C 82.0868,391.968 80.4201,389.634 78.5,387.5C 77.3112,386.571 75.9778,386.238 74.5,386.5C 72.4453,384.445 70.7787,382.112 69.5,379.5C 67.1233,374.053 63.79,369.386 59.5,365.5C 58.3263,364.486 57.6596,363.153 57.5,361.5C 56.2817,356.983 53.9484,353.316 50.5,350.5C 50.5,350.167 50.5,349.833 50.5,349.5C 49.4546,344.07 47.2879,339.07 44,334.5C 43.51,333.207 43.3433,331.873 43.5,330.5C 47.0419,330.813 50.3752,330.479 53.5,329.5 Z"/></g>
<g><path style="opacity:1" fill="#27a744" d="M 324.5,330.5 C 327.833,330.5 331.167,330.5 334.5,330.5C 334.299,336.509 333.966,342.509 333.5,348.5C 332.929,353.925 331.929,359.258 330.5,364.5C 329.288,365.23 328.288,366.23 327.5,367.5C 325.683,374.021 324.349,380.688 323.5,387.5C 322.168,389.132 320.835,390.799 319.5,392.5C 317.91,398.131 316.577,403.798 315.5,409.5C 314.571,408.064 313.405,406.731 312,405.5C 310.529,406.381 309.696,407.714 309.5,409.5C 310.656,411.771 311.156,414.105 311,416.5C 309.989,417.337 308.822,417.67 307.5,417.5C 307.665,420.518 307.498,423.518 307,426.5C 305.209,427.912 304.042,429.745 303.5,432C 302.004,432.507 300.837,432.007 300,430.5C 301.421,435.369 300.088,439.369 296,442.5C 295.055,442.095 294.388,441.428 294,440.5C 294.083,443.119 294.25,445.786 294.5,448.5C 294.167,448.5 293.833,448.5 293.5,448.5C 291.413,449.585 290.08,451.251 289.5,453.5C 288.974,455.23 287.974,456.564 286.5,457.5C 285.85,457.196 285.183,456.863 284.5,456.5C 281.636,460.94 277.636,463.94 272.5,465.5C 271.227,466.257 271.227,466.923 272.5,467.5C 272.158,468.338 271.492,468.672 270.5,468.5C 262.595,469.937 254.595,470.437 246.5,470C 240.998,467.933 235.665,465.766 230.5,463.5C 224.395,459.64 219.395,454.64 215.5,448.5C 214.934,444.643 212.934,441.977 209.5,440.5C 207.521,436.221 205.854,431.888 204.5,427.5C 203.5,427.5 202.5,427.5 201.5,427.5C 200.89,426.609 200.557,425.609 200.5,424.5C 197.974,416.517 194.974,408.683 191.5,401C 191.164,399.97 190.497,399.47 189.5,399.5C 187.576,388.934 184.909,378.601 181.5,368.5C 180.817,368.137 180.15,367.804 179.5,367.5C 179.167,366.833 178.833,366.167 178.5,365.5C 179.556,362.669 179.556,359.669 178.5,356.5C 178.437,354.519 179.104,352.852 180.5,351.5C 179.39,349.504 179.724,347.671 181.5,346C 179.729,343.887 178.229,344.053 177,346.5C 174.72,341.443 174.22,336.276 175.5,331C 184.167,330.333 192.833,330.333 201.5,331C 203.081,331.707 204.581,332.54 206,333.5C 245.612,333.034 285.112,332.034 324.5,330.5 Z"/></g>
<g><path style="opacity:1" fill="#27a744" d="M 379.5,330.5 C 407.814,331.265 436.147,331.431 464.5,331C 465.059,331.725 465.392,332.558 465.5,333.5C 464.453,335.056 463.786,336.723 463.5,338.5C 462.5,338.5 461.5,338.5 460.5,338.5C 460.649,337.448 460.483,336.448 460,335.5C 459.581,337.68 459.748,339.846 460.5,342C 460.294,343.366 459.96,344.699 459.5,346C 456.96,347.813 455.96,350.313 456.5,353.5C 454.466,354.548 453.133,356.214 452.5,358.5C 451.311,359.429 449.978,359.762 448.5,359.5C 448.736,364.924 446.736,369.258 442.5,372.5C 441.754,373.736 441.421,375.07 441.5,376.5C 441.5,376.833 441.5,377.167 441.5,377.5C 438.646,378.973 436.312,381.14 434.5,384C 432.687,383.954 431.021,384.12 429.5,384.5C 430.853,385.524 431.52,386.857 431.5,388.5C 430.127,388.343 428.793,388.51 427.5,389C 428.711,390.113 428.711,391.28 427.5,392.5C 425.795,394.303 423.962,394.969 422,394.5C 421.725,397.412 420.891,400.079 419.5,402.5C 417.606,403.048 415.94,404.048 414.5,405.5C 413.833,405.167 413.167,404.833 412.5,404.5C 411.928,406.917 410.928,409.084 409.5,411C 407.413,410.782 405.413,410.949 403.5,411.5C 404.853,412.524 405.52,413.857 405.5,415.5C 402.358,415.799 400.191,417.466 399,420.5C 397.187,419.391 396.354,420.058 396.5,422.5C 394.833,422.5 393.167,422.5 391.5,422.5C 391.232,424.099 391.566,425.432 392.5,426.5C 390.469,428.522 388.135,430.189 385.5,431.5C 382.136,430.789 379.803,431.956 378.5,435C 375.56,435.804 372.893,437.137 370.5,439C 369.748,439.671 369.414,440.504 369.5,441.5C 365.685,444.578 361.351,446.911 356.5,448.5C 354.712,448.215 353.045,448.548 351.5,449.5C 347.891,451.335 344.558,453.335 341.5,455.5C 341.167,455.5 340.833,455.5 340.5,455.5C 337.781,455.397 335.115,455.731 332.5,456.5C 330.42,455.421 329.087,453.755 328.5,451.5C 334.829,440.946 340.162,429.78 344.5,418C 344.43,417.235 344.097,416.735 343.5,416.5C 344.263,414.632 345.263,412.965 346.5,411.5C 350.382,407.736 352.549,403.069 353,397.5C 353.743,399.645 354.576,399.811 355.5,398C 354.355,395.801 354.355,393.635 355.5,391.5C 357.928,394.018 359.595,397.018 360.5,400.5C 361.72,400.113 362.387,399.28 362.5,398C 360.813,396.147 359.813,393.981 359.5,391.5C 362.317,383.203 365.317,375.036 368.5,367C 368.21,363.514 366.543,362.348 363.5,363.5C 362.417,362.635 362.251,361.635 363,360.5C 363.718,361.451 364.551,361.617 365.5,361C 364.859,358.422 364.525,355.755 364.5,353C 365.739,345.521 366.739,338.021 367.5,330.5C 371.5,330.5 375.5,330.5 379.5,330.5 Z"/></g>
<g><path style="opacity:0.243" fill="#244e38" d="M 173.5,329.5 C 173.5,332.167 173.5,334.833 173.5,337.5C 172.657,335.513 171.99,333.346 171.5,331C 171.836,329.97 172.503,329.47 173.5,329.5 Z"/></g>
<g><path style="opacity:0.678" fill="#2d7b47" d="M 53.5,329.5 C 50.3752,330.479 47.0419,330.813 43.5,330.5C 43.3433,331.873 43.51,333.207 44,334.5C 47.2879,339.07 49.4546,344.07 50.5,349.5C 46.809,343.487 43.4756,337.153 40.5,330.5C 44.7828,329.508 49.1161,329.174 53.5,329.5 Z"/></g>
<g><path style="opacity:0.616" fill="#29744c" d="M 50.5,350.5 C 53.9484,353.316 56.2817,356.983 57.5,361.5C 54.8059,358.124 52.4726,354.457 50.5,350.5 Z"/></g>
<g><path style="opacity:0.541" fill="#27774c" d="M 363.5,349.5 C 364.034,354.36 363.034,358.694 360.5,362.5C 360.74,357.88 361.74,353.547 363.5,349.5 Z"/></g>
<g><path style="opacity:0.263" fill="#287d46" d="M 146.5,351.5 C 148.324,357.614 149.657,363.947 150.5,370.5C 147.733,364.575 146.4,358.242 146.5,351.5 Z"/></g>
<g><path style="opacity:1" fill="#2a9f48" d="M 379.5,329.5 C 379.5,329.833 379.5,330.167 379.5,330.5C 375.5,330.5 371.5,330.5 367.5,330.5C 366.739,338.021 365.739,345.521 364.5,353C 364.525,355.755 364.859,358.422 365.5,361C 364.551,361.617 363.718,361.451 363,360.5C 362.251,361.635 362.417,362.635 363.5,363.5C 366.543,362.348 368.21,363.514 368.5,367C 365.317,375.036 362.317,383.203 359.5,391.5C 359.813,393.981 360.813,396.147 362.5,398C 362.387,399.28 361.72,400.113 360.5,400.5C 359.595,397.018 357.928,394.018 355.5,391.5C 354.355,393.635 354.355,395.801 355.5,398C 354.576,399.811 353.743,399.645 353,397.5C 352.549,403.069 350.382,407.736 346.5,411.5C 348.268,403.969 350.602,396.636 353.5,389.5C 355.461,387.68 355.794,385.68 354.5,383.5C 356.672,376.466 358.672,369.466 360.5,362.5C 363.034,358.694 364.034,354.36 363.5,349.5C 364.036,342.819 364.703,336.152 365.5,329.5C 370.167,329.5 374.833,329.5 379.5,329.5 Z"/></g>
<g><path style="opacity:0.769" fill="#2c8049" d="M 456.5,353.5 C 452.673,361.982 447.673,369.648 441.5,376.5C 441.421,375.07 441.754,373.736 442.5,372.5C 446.736,369.258 448.736,364.924 448.5,359.5C 449.978,359.762 451.311,359.429 452.5,358.5C 453.133,356.214 454.466,354.548 456.5,353.5 Z"/></g>
<g><path style="opacity:0.02" fill="#29663c" d="M 59.5,365.5 C 63.79,369.386 67.1233,374.053 69.5,379.5C 65.6882,375.223 62.3548,370.557 59.5,365.5 Z"/></g>
<g><path style="opacity:0.325" fill="#2a6f4e" d="M 150.5,370.5 C 151.924,372.515 152.59,374.848 152.5,377.5C 151.076,375.485 150.41,373.152 150.5,370.5 Z"/></g>
<g><path style="opacity:0.882" fill="#277d48" d="M 330.5,364.5 C 328.782,372.484 326.449,380.151 323.5,387.5C 324.349,380.688 325.683,374.021 327.5,367.5C 328.288,366.23 329.288,365.23 330.5,364.5 Z"/></g>
<g><path style="opacity:0.184" fill="#2a7d46" d="M 179.5,367.5 C 180.15,367.804 180.817,368.137 181.5,368.5C 184.909,378.601 187.576,388.934 189.5,399.5C 185.253,389.197 181.92,378.53 179.5,367.5 Z"/></g>
<g><path style="opacity:0.263" fill="#266944" d="M 354.5,383.5 C 355.794,385.68 355.461,387.68 353.5,389.5C 353.517,387.435 353.85,385.435 354.5,383.5 Z"/></g>
<g><path style="opacity:0.992" fill="#2d7e4a" d="M 74.5,386.5 C 75.9778,386.238 77.3112,386.571 78.5,387.5C 80.4201,389.634 82.0868,391.968 83.5,394.5C 84.325,395.386 85.325,395.719 86.5,395.5C 86.3505,396.552 86.5172,397.552 87,398.5C 88.6943,399.699 90.1943,401.032 91.5,402.5C 94.5703,405.564 97.2369,408.897 99.5,412.5C 90.466,404.467 82.1326,395.8 74.5,386.5 Z"/></g>
<g><path style="opacity:1" fill="#2a8148" d="M 441.5,377.5 C 434.882,386.452 427.549,394.785 419.5,402.5C 420.891,400.079 421.725,397.412 422,394.5C 423.962,394.969 425.795,394.303 427.5,392.5C 428.711,391.28 428.711,390.113 427.5,389C 428.793,388.51 430.127,388.343 431.5,388.5C 431.52,386.857 430.853,385.524 429.5,384.5C 431.021,384.12 432.687,383.954 434.5,384C 436.312,381.14 438.646,378.973 441.5,377.5 Z"/></g>
<g><path style="opacity:0.965" fill="#2a8044" d="M 323.5,387.5 C 321.802,395.268 319.135,402.602 315.5,409.5C 316.577,403.798 317.91,398.131 319.5,392.5C 320.835,390.799 322.168,389.132 323.5,387.5 Z"/></g>
<g><path style="opacity:1" fill="#298c46" d="M 315.5,409.5 C 310.311,423.549 303.311,436.549 294.5,448.5C 294.25,445.786 294.083,443.119 294,440.5C 294.388,441.428 295.055,442.095 296,442.5C 300.088,439.369 301.421,435.369 300,430.5C 300.837,432.007 302.004,432.507 303.5,432C 304.042,429.745 305.209,427.912 307,426.5C 307.498,423.518 307.665,420.518 307.5,417.5C 308.822,417.67 309.989,417.337 311,416.5C 311.156,414.105 310.656,411.771 309.5,409.5C 309.696,407.714 310.529,406.381 312,405.5C 313.405,406.731 314.571,408.064 315.5,409.5 Z"/></g>
<g><path style="opacity:1" fill="#2b8548" d="M 419.5,402.5 C 415.461,407.54 410.794,411.873 405.5,415.5C 405.52,413.857 404.853,412.524 403.5,411.5C 405.413,410.949 407.413,410.782 409.5,411C 410.928,409.084 411.928,406.917 412.5,404.5C 413.167,404.833 413.833,405.167 414.5,405.5C 415.94,404.048 417.606,403.048 419.5,402.5 Z"/></g>
<g><path style="opacity:0.702" fill="#2a7f48" d="M 189.5,399.5 C 190.497,399.47 191.164,399.97 191.5,401C 194.974,408.683 197.974,416.517 200.5,424.5C 195.509,416.842 191.842,408.509 189.5,399.5 Z"/></g>
<g><path style="opacity:0.557" fill="#245537" d="M 110.5,421.5 C 112.749,422.08 114.415,423.413 115.5,425.5C 113.251,424.92 111.585,423.587 110.5,421.5 Z"/></g>
<g><path style="opacity:0.69" fill="#257344" d="M 166.5,419.5 C 168.351,423.039 170.018,426.706 171.5,430.5C 168.117,427.711 166.45,424.045 166.5,419.5 Z"/></g>
<g><path style="opacity:1" fill="#2d8549" d="M 405.5,415.5 C 401.763,419.869 397.43,423.535 392.5,426.5C 391.566,425.432 391.232,424.099 391.5,422.5C 393.167,422.5 394.833,422.5 396.5,422.5C 396.354,420.058 397.187,419.391 399,420.5C 400.191,417.466 402.358,415.799 405.5,415.5 Z"/></g>
<g><path style="opacity:0.804" fill="#2c804b" d="M 343.5,416.5 C 344.097,416.735 344.43,417.235 344.5,418C 340.162,429.78 334.829,440.946 328.5,451.5C 327.833,451.833 327.167,452.167 326.5,452.5C 333.049,440.941 338.716,428.941 343.5,416.5 Z"/></g>
<g><path style="opacity:0.384" fill="#2a7746" d="M 201.5,427.5 C 202.5,427.5 203.5,427.5 204.5,427.5C 205.854,431.888 207.521,436.221 209.5,440.5C 206.469,436.435 203.803,432.102 201.5,427.5 Z"/></g>
<g><path style="opacity:0.988" fill="#33844e" d="M 385.5,431.5 C 380.511,435.331 375.178,438.664 369.5,441.5C 369.414,440.504 369.748,439.671 370.5,439C 372.893,437.137 375.56,435.804 378.5,435C 379.803,431.956 382.136,430.789 385.5,431.5 Z"/></g>
<g><path style="opacity:1" fill="#2ba047" d="M 91.5,402.5 C 93.7863,403.316 95.7863,404.65 97.5,406.5C 98.8123,405.54 100.146,405.706 101.5,407C 100.167,408.333 100.167,409.667 101.5,411C 103.759,410.561 106.092,410.061 108.5,409.5C 108.5,410.833 108.5,412.167 108.5,413.5C 109.833,413.5 111.167,413.5 112.5,413.5C 111.833,415.833 111.167,418.167 110.5,420.5C 111.873,420.657 113.207,420.49 114.5,420C 115.521,416.691 116.521,416.691 117.5,420C 116.852,421.44 116.519,422.94 116.5,424.5C 119.025,423.36 121.692,422.693 124.5,422.5C 124.5,423.5 124.5,424.5 124.5,425.5C 122.058,425.354 121.391,426.187 122.5,428C 124.126,427.805 125.793,427.805 127.5,428C 126.672,428.915 125.672,429.581 124.5,430C 127.224,430.27 129.891,430.77 132.5,431.5C 132.723,432.967 133.056,434.467 133.5,436C 136.187,436.341 138.187,437.674 139.5,440C 140.793,440.49 142.127,440.657 143.5,440.5C 143.5,439.5 143.5,438.5 143.5,437.5C 148.249,437.197 152.916,436.363 157.5,435C 158.77,434.1 159.77,432.934 160.5,431.5C 160.766,436.764 160.766,442.097 160.5,447.5C 158.821,446.218 156.987,445.218 155,444.5C 154.517,443.552 154.351,442.552 154.5,441.5C 151.482,441.335 148.482,441.502 145.5,442C 149.861,443.684 153.861,446.017 157.5,449C 160.095,449.226 162.595,449.726 165,450.5C 167.39,449.276 169.89,448.776 172.5,449C 171.315,450.353 169.981,451.52 168.5,452.5C 172.257,454.404 175.924,456.571 179.5,459C 181.134,459.494 182.801,459.66 184.5,459.5C 184.5,458.167 184.5,456.833 184.5,455.5C 185.974,456.436 186.974,457.77 187.5,459.5C 187.179,461.048 186.179,461.715 184.5,461.5C 158.982,453.911 135.982,441.911 115.5,425.5C 114.415,423.413 112.749,422.08 110.5,421.5C 106.537,418.871 102.871,415.871 99.5,412.5C 97.2369,408.897 94.5703,405.564 91.5,402.5 Z"/></g>
<g><path style="opacity:1" fill="#2c7b48" d="M 209.5,440.5 C 212.934,441.977 214.934,444.643 215.5,448.5C 212.561,446.658 210.561,443.991 209.5,440.5 Z"/></g>
<g><path style="opacity:1" fill="#2c884a" d="M 171.5,430.5 C 175.486,438.087 179.486,445.753 183.5,453.5C 181.297,452.116 179.297,450.449 177.5,448.5C 176.604,445.856 175.771,443.19 175,440.5C 172.049,437.828 170.883,434.495 171.5,430.5 Z"/></g>
<g><path style="opacity:0.2" fill="#23613b" d="M 293.5,448.5 C 292.864,450.795 291.531,452.461 289.5,453.5C 290.08,451.251 291.413,449.585 293.5,448.5 Z"/></g>
<g><path style="opacity:0.353" fill="#2f784c" d="M 356.5,448.5 C 351.93,451.616 346.93,453.95 341.5,455.5C 344.558,453.335 347.891,451.335 351.5,449.5C 353.045,448.548 354.712,448.215 356.5,448.5 Z"/></g>
<g><path style="opacity:0.447" fill="#246c49" d="M 326.5,452.5 C 326.155,455.198 324.822,457.198 322.5,458.5C 323.34,456.147 324.674,454.147 326.5,452.5 Z"/></g>
<g><path style="opacity:0.988" fill="#2b9546" d="M 328.5,451.5 C 329.087,453.755 330.42,455.421 332.5,456.5C 335.115,455.731 337.781,455.397 340.5,455.5C 335.653,458.582 330.319,460.582 324.5,461.5C 322.821,461.715 321.821,461.048 321.5,459.5C 321.5,458.833 321.833,458.5 322.5,458.5C 324.822,457.198 326.155,455.198 326.5,452.5C 327.167,452.167 327.833,451.833 328.5,451.5 Z"/></g>
<g><path style="opacity:0.296" fill="#274d3d" d="M 187.5,459.5 C 189.466,460.255 189.8,461.421 188.5,463C 186.86,463.348 185.527,462.848 184.5,461.5C 186.179,461.715 187.179,461.048 187.5,459.5 Z"/></g>
<g><path style="opacity:0.325" fill="#2b4d3c" d="M 321.5,459.5 C 321.821,461.048 322.821,461.715 324.5,461.5C 322.899,464.071 321.233,464.071 319.5,461.5C 319.855,460.478 320.522,459.811 321.5,459.5 Z"/></g>
<g><path style="opacity:0.255" fill="#2c6d45" d="M 286.5,457.5 C 282.674,461.99 278.007,465.323 272.5,467.5C 271.227,466.923 271.227,466.257 272.5,465.5C 277.636,463.94 281.636,460.94 284.5,456.5C 285.183,456.863 285.85,457.196 286.5,457.5 Z"/></g>
<g><path style="opacity:0.766" fill="#2d8349" d="M 230.5,463.5 C 235.665,465.766 240.998,467.933 246.5,470C 254.595,470.437 262.595,469.937 270.5,468.5C 260.868,473.234 250.868,473.734 240.5,470C 236.589,468.556 233.256,466.389 230.5,463.5 Z"/></g>
</svg>
