<svg id="Layer_1" data-name="Layer 1" xmlns="http://www.w3.org/2000/svg" width="66.3" height="66.3" viewBox="0 0 66.3 66.3"><defs><style>.cls-1{fill:#41ad49;}.cls-2{fill:#f68922;}.cls-3{fill:#d2262a;}.cls-4{fill:#045594;}.cls-5{fill:#018d4c;}.cls-6,.cls-7{fill:none;stroke:#fff;}.cls-6{stroke-width:0.5px;}.cls-7{stroke-width:0.99px;}</style></defs><title>logo-icon</title><path class="cls-1" d="M58.65,58.79l-.54.16s-6.4.54-7.88.47A26.39,26.39,0,0,1,34.56,54c-7.34-5.46-9.13-14.28-9.13-14.28-12.94-5.22-15,14.59-15,14.59a34.15,34.15,0,0,0,26.27,12.8,33,33,0,0,0,21.56-8Z" transform="translate(-3.5 -0.85)"/><path class="cls-2" d="M59.51,57.93c6-6,10.29-14.79,10.29-23.93a34.7,34.7,0,0,0-6.24-19.66s.47,7.49-1.4,13.1a26.93,26.93,0,0,1-5.77,9.91,31.75,31.75,0,0,1-11.93,6.94s-2.65,4.13,1.4,8.81a14.54,14.54,0,0,0,10.76,4.83c1.33.08,2.89,0,2.89,0" transform="translate(-3.5 -0.85)"/><path class="cls-3" d="M61.71,12.3A33.07,33.07,0,0,0,36.65.85a35.11,35.11,0,0,0-19.8,6.47s6.48-.78,11.54.78,10.61,4.37,14.35,9a21.49,21.49,0,0,1,4.45,9.52s2.34,2.26,6.78.62,6.86-6.94,7.25-8.35.94-5.84.94-5.84Z" transform="translate(-3.5 -0.85)"/><path class="cls-4" d="M14.75,9.12A33.85,33.85,0,0,0,3.5,34,35.33,35.33,0,0,0,9.34,52.81S8,38.28,14.67,31.26a26.7,26.7,0,0,1,14.58-8s1.87-5.93-1.87-9.2-6.71-4.45-9.2-4.84a8.22,8.22,0,0,0-3.43-.07" transform="translate(-3.5 -0.85)"/><path class="cls-5" d="M13.69,8.61S25.17,4.27,36,11.49,47,26.77,47,26.77a7.79,7.79,0,0,0,9.94-1.55c4.73-5,5.35-13.11,5.35-13.11s2.49,3.72.55,12.57A24.27,24.27,0,0,1,53,40c-3.19,2.41-8.62,4-8.62,4s-2.72,4.5.86,8.38S52,57.52,55.91,57.89c1.63.15,4.27.31,4.27.31a57,57,0,0,1-7,.78c-3.65.15-10.94.54-18.7-5.36a24.12,24.12,0,0,1-9.08-13.89,8.7,8.7,0,0,0-7.69.08c-3.88,2.09-5.51,6.9-6.83,11.48,0,0-.62,2.56-1,4.27,0,0-.62-7.68-.31-10.16s1.48-10.56,5.75-14.67,11.1-7.29,14-7.45c0,0,1.66-4.76-.85-8.07a18.32,18.32,0,0,0-6.67-5,29.36,29.36,0,0,0-8.15-1.56" transform="translate(-3.5 -0.85)"/><path class="cls-6" d="M13.69,8.61S25.17,4.27,36,11.49,47,26.77,47,26.77a7.79,7.79,0,0,0,9.94-1.55c4.73-5,5.35-13.11,5.35-13.11s2.49,3.72.55,12.57A24.27,24.27,0,0,1,53,40c-3.19,2.41-8.62,4-8.62,4s-2.72,4.5.86,8.38S52,57.52,55.91,57.89c1.63.15,4.27.31,4.27.31a57,57,0,0,1-7,.78c-3.65.15-10.94.54-18.7-5.36a24.12,24.12,0,0,1-9.08-13.89,8.7,8.7,0,0,0-7.69.08c-3.88,2.09-5.51,6.9-6.83,11.48,0,0-.62,2.56-1,4.27,0,0-.62-7.68-.31-10.16s1.48-10.56,5.75-14.67,11.1-7.29,14-7.45c0,0,1.66-4.76-.85-8.07a18.32,18.32,0,0,0-6.67-5A29.36,29.36,0,0,0,13.69,8.61Z" transform="translate(-3.5 -0.85)"/><path class="cls-7" d="M36.65,38.9a4.89,4.89,0,1,0-3.82-1.84A4.87,4.87,0,0,0,36.65,38.9Z" transform="translate(-3.5 -0.85)"/></svg>